<svg width="56" height="42" viewBox="0 0 56 42" fill="none" xmlns="http://www.w3.org/2000/svg">
<path d="M13.4255 41.365C10.8452 41.365 8.54716 40.7199 6.53132 39.4298C4.51548 38.059 2.90281 36.1641 1.6933 33.7451C0.564435 31.3261 0 28.5846 0 25.5205C0 22.6983 0.483801 19.9568 1.4514 17.2959C2.49964 14.635 3.99136 12.1757 5.92657 9.91793C7.86177 7.57956 10.0792 5.56372 12.5788 3.87041C15.1591 2.09647 17.9813 0.806335 21.0454 0L26.9719 7.37797C23.5047 8.74874 20.7228 10.563 18.6263 12.8207C16.6105 15.0785 15.6026 17.0137 15.6026 18.6263C15.6026 19.352 15.8042 20.1584 16.2073 21.0454C16.6911 21.8517 17.6184 22.6983 18.9892 23.5853C21.005 24.8754 22.3758 26.2462 23.1015 27.6976C23.9078 29.0684 24.311 30.6407 24.311 32.4147C24.311 35.1562 23.2628 37.3333 21.1663 38.946C19.1505 40.5587 16.5702 41.365 13.4255 41.365ZM42.4536 41.365C39.8733 41.365 37.5752 40.7199 35.5594 39.4298C33.5436 38.059 31.9309 36.1641 30.7214 33.7451C29.5925 31.3261 29.0281 28.5846 29.0281 25.5205C29.0281 22.6983 29.5119 19.9568 30.4795 17.2959C31.5277 14.635 33.0194 12.1757 34.9546 9.91793C36.8899 7.57956 39.1073 5.56372 41.6069 3.87041C44.1872 2.09647 47.0094 0.806335 50.0734 0L56 7.37797C52.5328 8.74874 49.7509 10.563 47.6544 12.8207C45.6386 15.0785 44.6307 17.0137 44.6307 18.6263C44.6307 19.352 44.8323 20.1584 45.2354 21.0454C45.7192 21.8517 46.6465 22.6983 48.0173 23.5853C50.0331 24.8754 51.4039 26.2462 52.1296 27.6976C52.9359 29.0684 53.3391 30.6407 53.3391 32.4147C53.3391 35.1562 52.2909 37.3333 50.1944 38.946C48.1785 40.5587 45.5983 41.365 42.4536 41.365Z" fill="white"/>
</svg>