<svg width="151" height="18" viewBox="0 0 151 18" fill="none" xmlns="http://www.w3.org/2000/svg">
<g clip-path="url(#clip0_13744_21804)">
<path fill-rule="evenodd" clip-rule="evenodd" d="M21.5641 2.91699C19.0419 2.91699 16.873 5.12832 16.873 7.69063C16.873 10.2916 19.0419 12.5208 21.5641 12.5208C24.052 12.5208 26.2179 10.274 26.2179 7.69063C26.2179 5.14707 24.052 2.91699 21.5641 2.91699ZM21.5459 11.6926C19.89 11.6926 18.5696 9.91836 18.5696 7.69063C18.5696 5.50215 19.89 3.74726 21.5459 3.74726C23.2018 3.74726 24.5444 5.50214 24.5444 7.70937C24.5444 9.93857 23.2231 11.6926 21.5459 11.6926Z" fill="#AFBC22"/>
<path d="M19.7863 16.1666C19.7863 16.981 20.4522 17.6205 21.2391 17.6205C22.0287 17.6205 22.6922 16.981 22.6922 16.1666C22.6922 15.3782 22.0287 14.7377 21.2391 14.7377C20.4522 14.7377 19.7863 15.3782 19.7863 16.1666Z" fill="#AFBC22"/>
<path fill-rule="evenodd" clip-rule="evenodd" d="M41.5732 17.1949H35.9549V16.2826H37.9275L36.2025 11.845L29.8908 11.8227L28.0928 16.258H30.1378V17.1949H25.4297V16.258H26.7124L33.1181 0.4104H34.0073L40.1687 16.258H41.5732V17.1949ZM35.7803 10.6643L33.1448 3.73794L30.3601 10.6643H35.7803Z" fill="#00215B"/>
<path d="M15.1486 16.4798C13.1019 17.2424 11.7232 17.5148 9.92325 17.5148C4.87099 17.5148 1.17285 13.9661 1.17285 9.08495C1.17285 4.32977 4.87099 0.631334 9.62705 0.631334C11.3271 0.631334 12.5585 0.879192 13.9647 1.54277V0.433002H15.1231V4.6245H13.9647V3.41659C12.4609 2.30741 11.3529 1.88847 9.77559 1.88847C6.2002 1.88847 3.61416 4.7956 3.61416 8.83915C3.61416 11.971 4.8458 14.1644 7.33575 15.4682C8.27177 15.9633 9.25673 16.2328 10.1696 16.2328C11.3767 16.2328 12.3892 15.8871 13.9647 15.0006V13.2012H15.1486V16.4798Z" fill="#00215B"/>
<path fill-rule="evenodd" clip-rule="evenodd" d="M45.2968 16.2826H43.4482V17.1949H49.2873C52.6893 17.1949 55.2522 14.7536 55.2522 11.4999C55.2522 8.32174 52.6398 5.80543 49.2873 5.80543H43.4482V6.71979H45.2968V16.2826ZM53.1331 11.5277C53.1331 14.189 51.3829 16.2093 49.0902 16.2093H47.1674V6.79098H49.1151C51.383 6.79098 53.1331 8.86139 53.1331 11.5277Z" fill="#00215B"/>
<path d="M62.7705 17.4911H62.1763L57.7426 6.79126H56.5349V5.80572H61.3156V6.79126H59.7631L62.9424 14.409L66.0473 6.79126H64.6428V5.80572H68.2165V6.79126H67.1802L62.7705 17.4911Z" fill="#00215B"/>
<path fill-rule="evenodd" clip-rule="evenodd" d="M76.0537 17.1949H80.1933V16.2826H79.1603L74.624 5.43808H73.9833L69.2509 16.2826H68.3149V17.1949H71.7661V16.2826H70.3584L71.5437 13.5967H76.0299L77.1383 16.2826H76.0537V17.1949ZM73.8353 8.29686L75.6347 12.6325H71.9647L73.8353 8.29686Z" fill="#00215B"/>
<path d="M93.1343 17.3923H92.3948L85.247 9.01168V16.2826H87.1193V17.1949H82.1658V16.2826H84.013V7.43434L83.5202 6.79156H81.794V5.80543H84.9766L91.9009 13.8427V6.79156H90.0279V5.80543H94.9823V6.79156H93.1343V17.3923Z" fill="#00215B"/>
<path d="M98.7778 17.1948H104.842V16.2825H102.745V6.79091H106.345V8.17313H107.257V5.31405H106.345V5.80536H97.2737V5.31405H96.386V8.17313H97.2737V6.79091H100.874V16.2825H98.7778V17.1948Z" fill="#00215B"/>
<path fill-rule="evenodd" clip-rule="evenodd" d="M119.209 17.1949H115.068V16.2826H116.153L115.044 13.5967H110.56L109.376 16.2826H110.781V17.1949H107.33V16.2826H108.266L112.999 5.43808H113.639L118.175 16.2826H119.209V17.1949ZM114.648 12.6325L112.85 8.29686L110.979 12.6325H114.648Z" fill="#00215B"/>
<path d="M126.899 17.5157C128.303 17.5157 129.339 17.3171 131.089 16.701V13.4224H132.962V12.5106H127.365V13.4224H129.239V16.2826C128.45 16.4792 128.106 16.5293 127.612 16.5293C124.681 16.5293 122.612 14.3584 122.612 11.3048C122.612 8.54238 124.534 6.47402 127.122 6.47402C128.081 6.47402 128.846 6.69491 129.955 7.26181V8.39501H130.868V5.46239H129.955V6.12831C128.55 5.65898 127.812 5.50986 126.85 5.50986C123.25 5.50986 120.49 8.0997 120.49 11.5274C120.49 15.0012 123.179 17.5157 126.899 17.5157Z" fill="#00215B"/>
<path d="M144.25 17.1948H135.426V16.2825H137.276V6.71972H135.426V5.80536H143.167V5.31405H144.076V8.07411H143.191V6.79091H139.147V10.9095H142.302V9.72558L143.215 9.70214V13.1272H142.302V11.895H139.147V16.2093H143.338V14.902H144.25V17.1948Z" fill="#00215B"/>
<path fill-rule="evenodd" clip-rule="evenodd" d="M148.753 7.5571L149.283 8.48903H149.806V8.32116H149.658C149.599 8.32116 149.54 8.28542 149.508 8.23093L149.088 7.51109C149.417 7.42056 149.581 7.22985 149.581 6.94098C149.581 6.57448 149.314 6.37877 148.803 6.37877H147.908V6.54636H148.223V8.32116H147.908V8.48903H148.852V8.32116H148.54V7.5571H148.753ZM148.54 6.56481H148.766C149.074 6.56481 149.237 6.70016 149.237 6.97204C149.237 7.21198 149.07 7.37078 148.815 7.37078H148.54V6.56481Z" fill="#00215B"/>
<path fill-rule="evenodd" clip-rule="evenodd" d="M146.97 7.45221C146.97 8.47584 147.799 9.30846 148.824 9.30846C149.851 9.30846 150.68 8.47584 150.68 7.45221C150.68 6.42447 149.851 5.59157 148.824 5.59157C147.799 5.59157 146.97 6.42447 146.97 7.45221ZM147.26 7.45221C147.26 6.58268 147.961 5.88132 148.824 5.88132C149.688 5.88132 150.39 6.58268 150.39 7.45221C150.39 8.31735 149.688 9.01873 148.824 9.01873C147.961 9.01873 147.26 8.31735 147.26 7.45221Z" fill="#00215B"/>
</g>
<defs>
<clipPath id="clip0_13744_21804">
<rect width="150" height="17.5781" fill="white" transform="translate(0.889648 0.283203)"/>
</clipPath>
</defs>
</svg>
