<svg width="141" height="25" viewBox="0 0 141 25" fill="none" xmlns="http://www.w3.org/2000/svg">
<path d="M50.4622 0.557922C45.1668 0.842619 41.0672 5.3693 41.3519 10.6931C41.6366 15.9885 46.1633 20.0882 51.4871 19.8035C52.2558 19.775 52.996 19.6326 53.7078 19.4333L54.4195 20.7999C54.7042 21.3693 55.3875 21.5686 55.9569 21.2839C56.5263 20.9992 56.7256 20.3159 56.4409 19.7465L55.7861 18.5223C58.8039 16.7572 60.7683 13.3978 60.569 9.66823C60.3412 4.37286 55.7861 0.273224 50.4622 0.557922ZM54.7611 16.501L53.9355 14.9351C53.6508 14.3657 52.9675 14.1664 52.3981 14.4511C51.8288 14.7358 51.6295 15.4191 51.9142 15.9885L52.6259 17.3551C52.2273 17.4405 51.8003 17.4974 51.3732 17.5259C47.3305 17.7252 43.8572 14.622 43.6295 10.5508C43.4302 6.50809 46.5334 3.03479 50.6045 2.80703C54.6473 2.60774 58.1206 5.71094 58.3483 9.78211C58.4907 12.6006 57.0103 15.1344 54.7611 16.501Z" fill="#44A0D9"/>
<path d="M35.6583 19.7745C35.032 19.7745 34.5195 19.2621 34.5195 18.6357V1.72473C34.5195 1.09839 35.032 0.585938 35.6583 0.585938C36.2847 0.585938 36.7971 1.09839 36.7971 1.72473V18.6357C36.7971 19.2621 36.2847 19.7745 35.6583 19.7745Z" fill="#44A0D9"/>
<path d="M89.7501 19.7745C89.1238 19.7745 88.6113 19.2621 88.6113 18.6357V1.72473C88.6113 1.09839 89.1238 0.585938 89.7501 0.585938C90.3765 0.585938 90.8889 1.09839 90.8889 1.72473V18.6357C90.8889 19.2621 90.3765 19.7745 89.7501 19.7745Z" fill="#205483"/>
<path d="M73.5241 19.7716C73.0971 19.7716 72.6985 19.5438 72.5277 19.1737L63.6736 2.26271C63.3889 1.69331 63.5882 1.01004 64.1576 0.725341C64.727 0.440643 65.4102 0.639931 65.6949 1.20933L73.5526 16.2129L81.5526 1.20933C81.8373 0.6684 82.5491 0.440643 83.09 0.75381C83.6309 1.03851 83.8587 1.75025 83.5455 2.29118L74.5206 19.2022C74.3213 19.5438 73.9227 19.7716 73.5241 19.7716Z" fill="#205483"/>
<path d="M109.623 15.9241H104.156C103.53 15.9241 103.018 15.4116 103.018 14.7853C103.018 14.1589 103.53 13.6465 104.156 13.6465H109.651C110.277 13.6465 110.79 14.1589 110.79 14.7853C110.79 15.4116 110.277 15.9241 109.623 15.9241Z" fill="#205483"/>
<path d="M115.8 19.7669C115.401 19.7669 115.002 19.5392 114.803 19.1691L106.946 4.16551L98.9455 19.1691C98.6608 19.71 97.9491 19.9377 97.4081 19.6246C96.8672 19.3399 96.6395 18.6281 96.9526 18.0872L105.978 1.17619C106.177 0.806086 106.575 0.549859 106.974 0.578329C107.401 0.578329 107.771 0.806086 107.97 1.17619L116.825 18.0872C117.109 18.6566 116.91 19.3399 116.341 19.6246C116.17 19.71 115.97 19.7669 115.8 19.7669Z" fill="#205483"/>
<path d="M115.973 3.40786H115.574V0.959463H114.691V0.589355H116.884V0.930991H115.973V3.40786Z" fill="#205483"/>
<path d="M118.734 2.75305L119.56 0.589355H120.158V3.37939H119.759V1.04487L118.82 3.37939H118.564L117.624 1.04487V3.37939H117.254V0.589355H117.852L118.734 2.75305Z" fill="#205483"/>
<path d="M27.9162 16.6123H22.3361C21.9376 17.324 21.482 17.9789 20.998 18.5482H27.9447C28.4856 18.5482 28.9127 18.1212 28.9127 17.5803C28.8842 17.0393 28.4571 16.6123 27.9162 16.6123Z" fill="#205483"/>
<path d="M27.9169 12.9067H23.6464C23.504 13.59 23.3332 14.2163 23.1055 14.8427H27.8884C28.4293 14.8427 28.8564 14.4156 28.8564 13.8747C28.8564 13.3338 28.4578 12.9067 27.9169 12.9067Z" fill="#205483"/>
<path d="M27.9166 9.21143H23.9023C23.9308 9.52459 23.9308 9.80929 23.9308 10.1225C23.9308 10.4641 23.9308 10.8057 23.9023 11.1474H27.9166C28.4575 11.1474 28.8846 10.7203 28.8846 10.1794C28.8846 9.63847 28.4575 9.21143 27.9166 9.21143Z" fill="#205483"/>
<path d="M27.9166 5.5166H23.1621C23.3899 6.14294 23.5607 6.79774 23.6746 7.45254H27.9166C28.4575 7.45254 28.8845 7.0255 28.8845 6.48457C28.8845 5.97212 28.4575 5.5166 27.9166 5.5166Z" fill="#205483"/>
<path d="M27.9167 1.81104H21.084C21.568 2.38043 22.0235 3.03523 22.3936 3.74698H27.9167C28.4577 3.74698 28.8847 3.31993 28.8847 2.779C28.8847 2.23808 28.4577 1.81104 27.9167 1.81104Z" fill="#205483"/>
<path d="M9.43995 17.5803C9.43995 17.0393 9.867 16.6123 10.4079 16.6123H6.59297C6.05205 16.6123 5.625 17.0393 5.625 17.5803C5.625 18.1212 6.05205 18.5482 6.59297 18.5482H10.4079C9.89547 18.5482 9.43995 18.0927 9.43995 17.5803Z" fill="#44A0D9"/>
<path d="M22.3363 16.6123H10.4074C9.8665 16.6123 9.43945 17.0393 9.43945 17.5803C9.43945 18.1212 9.8665 18.5482 10.4074 18.5482H20.9697C21.4822 17.9504 21.9377 17.324 22.3363 16.6123Z" fill="#87A8C0"/>
<path d="M6.73405 14.074C6.5917 13.4477 7.07568 12.9067 7.67355 12.9067H3.8586C3.31767 12.9067 2.89062 13.3338 2.89062 13.8747C2.89062 14.4156 3.31767 14.8427 3.8586 14.8427H7.70202C7.2465 14.8427 6.81946 14.5295 6.73405 14.074Z" fill="#44A0D9"/>
<path d="M23.6736 12.9067H7.67356C7.07569 12.9067 6.59171 13.4477 6.73406 14.074C6.81947 14.5295 7.24651 14.8427 7.70203 14.8427H23.1042C23.3604 14.2163 23.5312 13.5615 23.6736 12.9067Z" fill="#87A8C0"/>
<path d="M4.00163 10.3787C3.85928 9.75235 4.34326 9.21143 4.94113 9.21143H1.12618C0.58525 9.21143 0.158203 9.63847 0.158203 10.1794C0.158203 10.7203 0.58525 11.1474 1.12618 11.1474H4.9696C4.51408 11.1474 4.1155 10.8342 4.00163 10.3787Z" fill="#44A0D9"/>
<path d="M4.00109 10.3787C4.0865 10.8342 4.51354 11.1474 4.96906 11.1474H23.873C23.9015 10.8057 23.9015 10.4641 23.9015 10.1225C23.9015 9.80929 23.9015 9.49612 23.873 9.21143H4.96906C4.3712 9.21143 3.88721 9.75235 4.00109 10.3787Z" fill="#87A8C0"/>
<path d="M5.34034 6.48457C5.34034 5.94365 5.76739 5.5166 6.30832 5.5166H2.49336C1.95244 5.5166 1.52539 5.94365 1.52539 6.48457C1.52539 7.0255 1.95244 7.45254 2.49336 7.45254H6.30832C5.76739 7.45254 5.34034 7.0255 5.34034 6.48457Z" fill="#44A0D9"/>
<path d="M23.1619 5.5166H6.30782C5.76689 5.5166 5.33984 5.94365 5.33984 6.48457C5.33984 7.0255 5.76689 7.45254 6.30782 7.45254H23.6744C23.5605 6.79774 23.3897 6.14294 23.1619 5.5166Z" fill="#87A8C0"/>
<path d="M12.3708 3.00954C12.2284 2.38321 12.7124 1.84229 13.3103 1.84229H9.49532C8.95439 1.84229 8.52734 2.26933 8.52734 2.81026C8.52734 3.35118 8.95439 3.77823 9.49532 3.77823H13.3387C12.9117 3.77823 12.4846 3.46506 12.3708 3.00954Z" fill="#44A0D9"/>
<path d="M21.0834 1.81104H13.3396C12.7417 1.81104 12.2577 2.35196 12.4001 2.97829C12.4855 3.43381 12.9125 3.74698 13.368 3.74698H22.393C22.0229 3.0637 21.5673 2.4089 21.0834 1.81104Z" fill="#87A8C0"/>
</svg>
