<svg width="90" height="74" viewBox="0 0 90 74" fill="none" xmlns="http://www.w3.org/2000/svg">
<path d="M10.4106 9.56958L8.50977 11.6431V16.3372L10.209 17.8347L11.9082 19.3035H23.4858V21.8953H13.6938V21.1754C13.6938 20.4554 13.665 20.4554 11.1018 20.4554H8.50977V25.9271H10.497C12.3114 25.9271 12.513 25.8695 12.9738 25.1783L13.4634 24.4296L14.241 25.1783L15.0186 25.9271H28.0362L29.793 24.1128L31.5498 22.3273V17.7195L29.7066 16.0492L27.8346 14.4077H16.5738V11.5279H25.2138V13.2558H30.3978V7.49609H28.5546C26.8554 7.49609 26.6538 7.55369 26.1354 8.27365L25.5306 9.08001L24.7242 8.27365L23.889 7.49609H12.3114L10.4106 9.56958ZM32.9898 9.94396V12.3918H35.0058V22.0681L36.9642 23.9976L38.9226 25.9271H50.4426L52.3722 23.9688L54.3018 22.0105V12.3918H56.0298V7.49609H47.1018V9.94396C47.1018 12.363 47.1018 12.3918 47.8218 12.3918H48.5418V21.3193H42.4938V12.3918H44.2218V7.49609H32.9898V9.94396ZM57.4698 9.94396V12.3918H59.4858V21.3193H57.4698V25.9271H68.9898V21.3193H67.9818C66.9738 21.3193 66.9738 21.3193 66.9738 20.0234V18.7275H77.8026L79.1562 17.3452L80.5098 15.9628V10.7791L78.8394 9.13761L77.169 7.49609H57.4698V9.94396ZM73.2522 13.8893L73.1658 15.4157L70.0842 15.5021L66.9738 15.5885V12.3918H73.3386L73.2522 13.8893ZM8.50977 29.8149V32.2628H10.5258V41.1903H8.50977V46.086H29.4186L30.4842 44.9917L31.5498 43.8973V37.4465H25.7898V41.1903H18.0138V38.3104H21.3258L21.2394 36.5825L21.1242 34.8546H18.0138V32.2628H25.7898V36.0066H31.5498V29.4981L30.4554 28.4326L29.361 27.367H8.50977V29.8149ZM60.0042 29.6997L57.4698 32.0324V41.3919L60.033 43.7533L62.5956 46.086H76.362L78.4356 43.9837L80.5092 41.9102V38.0224H74.7492V41.1903H64.9572V32.2628H74.7492V35.1426H80.5092V27.367H78.378C76.3332 27.367 76.218 27.4246 75.498 28.2598L74.7492 29.1525L74.0004 28.2598L73.2522 27.367H62.5098L60.0042 29.6997ZM8.50977 49.8298V52.1337H10.5258V61.3492H8.50977V65.9569H29.6778L30.6282 64.805C31.5498 63.7107 31.5498 63.6819 31.5498 60.514V57.3174H25.7898V61.3492H18.0138V58.4693H21.1818V55.0135H18.0138V52.1337H25.7898V56.1655H31.5498V52.9688C31.5498 49.801 31.5498 49.7716 30.6282 48.6779L29.6778 47.5259H8.50977V49.8298ZM32.9898 49.801V52.1049L33.9402 52.1913L34.8618 52.2777L34.9482 56.799L35.0346 61.3492H32.9898V65.9569H54.2154L55.1082 64.8338L56.0298 63.6819V55.3015H50.2698V61.3492H42.4938V52.1337H44.5098V47.5259H32.9898V49.801ZM57.4698 49.801V52.1049L58.4202 52.1913L59.3418 52.2777L59.4282 56.799L59.5146 61.3492H57.4698V65.9569H78.6954L79.5882 64.8338L80.5098 63.6819V55.3015H74.7498V61.3492H66.9738V52.1337H68.9898V47.5259H57.4698V49.801ZM55.9722 43.9837C55.8858 41.9678 55.8573 41.9102 55.1082 41.8238C54.3306 41.7374 54.3018 41.6508 54.3018 40.0668C54.3018 38.4256 54.3018 38.3962 52.9482 37.4459L51.6234 36.4668L52.7463 35.5164C53.3514 34.998 53.9556 34.5661 54.0996 34.5661C54.2148 34.5661 54.3012 33.6157 54.3012 32.4638V30.3615L52.7748 28.864L51.2481 27.3664H32.9898V32.2628H35.0058V41.1903H32.9898V46.086H43.9338V43.6381C43.9338 41.2191 43.9338 41.1903 43.2138 41.1903C42.5514 41.1903 42.4938 41.1039 42.4938 39.7504V38.3104H46.5258V43.9549L47.6202 45.0205L48.7146 46.086H56.0586L55.9722 43.9837ZM46.5258 35.3407H42.4938V32.3708H46.5258V35.3407Z" fill="black"/>
</svg>
