<svg width="141" height="18" viewBox="0 0 141 18" fill="none" xmlns="http://www.w3.org/2000/svg">
<path d="M131.746 7.26928L131.085 5.78416C132.445 4.9735 134.004 4.55734 135.587 4.58226C138.673 4.58226 140.158 6.27738 140.158 9.43675V17.0723H138.647L138.484 15.7027C137.298 16.7133 135.802 17.2874 134.244 17.3295C131.887 17.3295 130.402 15.8917 130.402 13.7716C130.402 11.4414 131.887 9.97729 134.926 9.97729H138.411V9.57829C138.411 7.38478 137.445 6.2092 135.304 6.2092C134.045 6.24249 132.817 6.60823 131.746 7.26928H131.746ZM138.411 11.4676H134.994C133.11 11.4676 132.171 12.2443 132.171 13.5669C132.171 14.8893 133.184 15.708 134.669 15.708C136.055 15.6667 137.382 15.1326 138.411 14.2018V11.4676ZM97.7126 17.0725L95.4927 3.95254L90.8274 17.0725H89.4838L84.8394 3.92104L82.5985 17.0725H80.7355L83.6639 0.583312H85.4797L90.166 14.2963L94.8315 0.583312H96.6473L99.5757 17.0777L97.7126 17.0725ZM110.89 16.2013C109.577 16.9477 108.087 17.3299 106.576 17.3087C102.903 17.3087 100.568 14.7161 100.568 10.9429C100.568 7.38478 102.903 4.58226 106.151 4.58226C109.4 4.58226 111.336 7.10142 111.336 10.2606C111.336 10.7067 111.336 11.158 111.289 11.6041H102.368C102.646 14.1021 104.252 15.729 106.723 15.729C107.963 15.7065 109.18 15.3995 110.282 14.8316L110.89 16.2013ZM109.547 10.0716V9.97729C109.547 7.80981 108.277 6.16202 106.178 6.16202C104.078 6.16202 102.688 7.836 102.383 10.0716H109.547ZM123.942 0.0585938V17.0462H122.436L122.268 15.8024C121.155 16.7818 119.72 17.3178 118.237 17.3087C114.937 17.3087 113.1 14.4328 113.1 10.969C113.1 7.41096 115.199 4.58226 118.542 4.58226C119.867 4.5804 121.156 5.00964 122.215 5.80516V0.0585938H123.942ZM118.594 15.7027C119.92 15.6606 121.187 15.1514 122.173 14.2649V7.50532C121.253 6.67706 120.068 6.20118 118.83 6.16188C116.353 6.16188 114.868 8.18753 114.868 10.9689C114.868 13.5824 116.164 15.7026 118.594 15.7026V15.7027ZM128.314 4.62958V17.0725H126.545V4.62958H128.314ZM11.5619 6.70256C11.373 7.78896 11.0897 8.99057 10.927 9.69379L9.13752 17.0725H4.93906L0.158203 0.583312H4.0208L6.26164 8.82271C6.42432 9.55211 6.73386 10.8012 6.97004 11.8403L9.6992 0.583452H13.399L16.1594 11.8454C16.4165 10.7959 16.7209 9.55743 16.8888 8.82789L19.0772 0.583312H22.945L18.2218 17.0777H14.0234L12.1971 9.69379C12.0344 8.98007 11.7508 7.78882 11.5619 6.70256ZM45.2487 4.62958H48.3083L48.5444 5.92584C49.0796 5.41827 49.7018 5.01119 50.3812 4.72408C51.0494 4.46165 51.7627 4.33321 52.4804 4.34608C53.0495 4.31324 53.6184 4.41329 54.1421 4.63829C54.6659 4.8633 55.13 5.20709 55.498 5.64248C56.2064 6.51356 56.5475 7.74163 56.5475 9.31607V17.0725H53.0368V9.53097C53.0813 8.95752 52.9132 8.38773 52.5644 7.93035C52.3693 7.73636 52.1332 7.58854 51.8735 7.49774C51.6138 7.40693 51.3371 7.37546 51.0636 7.40564C50.2098 7.43066 49.3921 7.75584 48.7543 8.32403V17.0723H45.2487V4.62958ZM68.4867 13.7032L69.5678 16.0859C68.1052 16.9732 66.4183 17.4214 64.7081 17.3768C61.0345 17.3768 58.4107 14.6426 58.4107 10.8484C58.4107 7.21678 60.8405 4.36722 64.4195 4.36722C67.8622 4.36722 70.0034 6.79692 70.0034 10.4705C70.0034 10.9429 70.0034 11.5779 69.9562 11.9294H61.8743C62.1839 13.6507 63.3385 14.4746 65.2697 14.4746C66.3869 14.4671 67.4876 14.2032 68.4867 13.7032ZM61.8638 9.62561H66.7654V9.51011C66.7707 8.86387 66.5456 8.2369 66.1304 7.74164C65.9184 7.51048 65.6592 7.3276 65.3704 7.20538C65.0815 7.08316 64.7698 7.02445 64.4563 7.03324C64.1361 7.02669 63.818 7.08621 63.5218 7.2081C63.2257 7.32998 62.9578 7.51161 62.735 7.74164C62.2583 8.27373 61.9545 8.93804 61.8638 9.64661V9.62561ZM43.244 4.61376C43.0927 4.59318 42.9402 4.58266 42.7875 4.58226C42.072 4.58468 41.3642 4.72981 40.7054 5.00917C40.0467 5.28853 39.4503 5.6965 38.9512 6.2092L38.715 4.63476H35.6502V17.0723H39.1611V8.56567C40.0328 8.02977 41.0347 7.74298 42.058 7.73645C42.4553 7.73401 42.8521 7.76562 43.244 7.83095V4.61376ZM79.455 7.83081H79.5022L80.0743 4.78162L79.8958 4.72408C79.6035 4.65346 79.3043 4.61474 79.0037 4.60858C78.2873 4.61056 77.5786 4.75546 76.9189 5.0348C76.2593 5.31414 75.662 5.7223 75.1621 6.23538L74.926 4.66108H71.8612V17.0725H75.3721V8.56553C76.2453 8.02869 77.2492 7.74187 78.2743 7.73631C78.6768 7.73408 79.0787 7.76569 79.4759 7.83081H79.455ZM127.395 0.0585938C127.171 0.0585661 126.952 0.125026 126.765 0.249568C126.579 0.37411 126.434 0.551141 126.348 0.758273C126.262 0.965404 126.24 1.19333 126.283 1.41324C126.327 1.63314 126.435 1.83513 126.593 1.99368C126.752 2.15223 126.954 2.26021 127.174 2.30396C127.394 2.34771 127.622 2.32527 127.829 2.23947C128.036 2.15368 128.213 2.00839 128.338 1.82197C128.462 1.63555 128.529 1.41638 128.529 1.19217C128.529 0.891528 128.409 0.603198 128.197 0.390611C127.984 0.178024 127.696 0.0585938 127.395 0.0585938ZM28.2716 4.34622C26.6261 4.34851 24.9993 4.69531 23.4959 5.3643L24.1676 8.10899C25.2705 7.60481 26.466 7.33498 27.6786 7.3166C29.211 7.3166 30.0138 7.93049 30.0138 9.53111V9.64661H27.6312C24.1676 9.64661 22.588 11.0374 22.588 13.5616C22.588 15.8234 24.2148 17.3768 26.6657 17.3768C28.0594 17.3829 29.4016 16.8509 30.4128 15.8917L30.6279 17.0725H33.4985V9.31593C33.4985 6.1357 31.6145 4.34622 28.2716 4.34622ZM30.0139 13.9342C29.3551 14.4055 28.5805 14.6885 27.7731 14.7528C26.7233 14.7528 26.0989 14.1651 26.0989 13.315C26.0989 12.4648 26.7128 11.9033 27.8674 11.9033H30.0139V13.9342Z" fill="#1E1E1E"/>
</svg>
