<svg width="141" height="62" viewBox="0 0 141 62" fill="none" xmlns="http://www.w3.org/2000/svg">
<path d="M42.6188 0.195885H41.9804H0.855469C0.855469 0.195885 4.09242 4.04271 4.22405 4.19956V29.4523L4.23721 29.4951C4.33702 29.8143 6.8566 37.4027 21.6176 44.9065L21.6801 44.9395H21.9905L22.053 44.9065C36.8162 37.4016 39.3347 29.2637 39.4345 28.9214L39.4465 28.8809C39.4465 28.8809 39.418 4.15788 39.418 3.94289C39.5529 3.78493 42.6188 0.195885 42.6188 0.195885Z" fill="white"/>
<path d="M14.4581 21.5251C15.5111 22.8743 16.3854 24.2552 17.1137 25.6395L12.759 26.2626C13.2164 24.4955 13.7638 22.8337 14.4087 21.6139C14.4241 21.5832 14.4427 21.5547 14.4581 21.5251ZM18.9422 9.16083L9.70524 5.72644C9.66137 7.20177 9.73157 8.61457 9.91256 9.96486L18.4168 11.563C18.6351 10.8226 18.815 10.0263 18.9422 9.16083ZM11.3736 15.3791C12.0405 16.9291 12.9027 18.3616 13.9612 19.6702C14.2936 19.1481 14.6468 18.6282 15.0142 18.0918C15.6954 17.098 16.404 16.0625 17.0391 14.8833L11.3736 15.3791ZM18.2062 12.2245L10.0179 10.6855C10.2526 12.1016 10.6157 13.4442 11.1049 14.7122L17.4099 14.1594C17.7016 13.5572 17.9704 12.9155 18.2062 12.2245ZM39.8787 1.43428H3.57139L5.51619 3.60505H37.924L39.8787 1.43428ZM11.6577 31.5781L20.3441 36.7577C20.185 35.0443 19.8713 33.1566 19.3174 31.1876L12.0131 29.6081C11.8815 30.286 11.763 30.9485 11.6577 31.5781ZM12.5791 26.9843C12.4234 27.6315 12.2797 28.2852 12.1469 28.9324L19.0936 30.4341C18.6724 29.0739 18.1338 27.682 17.4461 26.2867L12.5791 26.9843ZM11.5382 32.3098C11.2694 33.999 11.1016 35.3635 11.0292 35.991C13.1956 38.0805 16.2022 40.4038 20.3561 42.6886C20.4735 41.4063 20.5481 39.6513 20.411 37.599L11.5382 32.3098ZM21.5945 4.23247H37.9668V28.5079C37.9668 28.5079 35.7686 36.1215 22.4315 43.1625C22.5741 43.0879 22.7155 43.0122 22.8549 42.9365C22.9393 41.901 22.9887 40.8875 22.9887 39.9113C22.9887 28.3916 17.5437 21.2662 16.6486 20.1737C20.7894 14.9711 21.6779 9.6654 21.6779 6.10268C21.6779 5.40725 21.6439 4.78092 21.5945 4.23247ZM26.3167 17.8143L20.7291 17.7715L25.2231 21.0896L23.4549 26.3931L28.0026 23.1419L32.4966 26.4633L30.8129 21.1379L35.3562 17.8856L29.7697 17.8439L28.0871 12.5151L26.3167 17.8143ZM39.4191 3.94179C39.4191 4.15788 39.4476 28.8809 39.4476 28.8809L39.4356 28.9214C39.3358 29.2637 36.8173 37.4016 22.0541 44.9065L21.9916 44.9395H21.6812L21.6176 44.9065C6.8566 37.4027 4.33812 29.8132 4.2383 29.4951L4.22514 29.4523V4.19956C4.09241 4.04161 0.855469 0.195885 0.855469 0.195885H41.9815H42.6199C42.6199 0.195885 39.5529 3.78493 39.4191 3.94179ZM38.8586 28.7909C38.8586 28.6966 38.8301 3.7257 38.8301 3.7257C38.8301 3.7257 40.7376 1.49351 41.3431 0.783821H2.1191C2.72897 1.50887 4.81308 3.98457 4.81308 3.98457V29.3569C4.95677 29.7683 7.70889 37.157 21.8249 44.3504H21.8468C36.0045 37.1339 38.7303 29.1924 38.8586 28.7909ZM16.1309 20.3547L15.985 20.1912L16.1232 20.0223C21.124 13.849 21.3817 7.5111 21.079 4.23247H20.4724C20.9594 11.8351 18.2972 15.7258 16.1451 18.8673C15.8204 19.3422 15.5045 19.8029 15.2084 20.2625C22.4424 29.1814 22.1693 39.2937 21.679 43.395C21.7053 43.4082 21.7305 43.4224 21.7569 43.4356H21.9159C22.0541 43.3643 22.1847 43.293 22.3207 43.2206C23.6062 28.9445 16.2066 20.4391 16.1309 20.3547ZM12.0965 20.5576C8.25734 16.1097 7.4917 10.1897 7.4917 6.21456C7.4917 5.47854 7.51803 4.81273 7.55532 4.23247H5.70485V28.5079C5.70485 28.5079 6.33996 30.6798 8.94729 33.7708C9.74363 26.4973 11.8179 21.2388 12.0965 20.5576ZM13.5773 20.2933C10.1045 16.1064 8.59957 10.7064 9.09646 4.23247H8.06867C7.83064 7.88295 8.02918 15.1861 12.5835 20.3481L12.6899 20.4688L12.6263 20.619C12.6021 20.6761 10.2054 26.3712 9.40908 34.3028C9.53632 34.4476 9.66246 34.5902 9.79848 34.7372C10.1934 31.6626 11.2639 24.6293 13.1956 20.9733C13.3162 20.743 13.4457 20.517 13.5773 20.2933ZM19.098 4.23247H9.78422C9.76447 4.49024 9.74692 4.74691 9.73376 5.00249L19.0322 8.45882C19.1715 7.20177 19.2044 5.80433 19.098 4.23247ZM33.6056 18.4055L29.3573 18.3726L28.0761 14.2022L26.7302 18.3495L22.4819 18.3166L25.8998 20.913L24.5529 25.0615L28.0114 22.5189L31.4304 25.1185L30.1492 20.9514L33.6056 18.4055ZM30.5562 23.8626L28.03 21.9419L25.4721 23.8209L26.468 20.7539L23.9419 18.8344L27.0834 18.8596L28.0772 15.7949L29.0227 18.8772L32.1631 18.9013L29.6096 20.7814L30.5562 23.8626Z" fill="#231F20"/>
<path d="M35.3567 17.8855L29.7691 17.8438L28.0875 12.5151L26.3172 17.8153L20.7296 17.7725L25.2235 21.0896L23.4553 26.3931L28.0031 23.1419L32.4971 26.4633L30.8133 21.1378L35.3567 17.8855ZM31.4309 25.1196L28.0119 22.5188L24.5533 25.0614L25.9003 20.913L22.4824 18.3177L26.7307 18.3495L28.0766 14.2021L29.3578 18.3736L33.606 18.4055L30.1497 20.9514L31.4309 25.1196ZM8.06915 4.23244C7.83113 7.88401 8.02967 15.1861 12.584 20.3481L12.6904 20.4698L12.6268 20.619C12.6015 20.6771 10.2048 26.3744 9.40847 34.3094C9.24832 34.1306 9.09476 33.9529 8.94667 33.7774C9.74302 26.5006 11.8184 21.2387 12.097 20.5576C8.25782 16.1097 7.49219 10.1897 7.49219 6.21453C7.49219 5.47961 7.51851 4.8127 7.55581 4.23244H8.06915ZM16.1237 20.0223L15.9855 20.1912L16.1314 20.3546C16.207 20.4391 23.6067 28.9445 22.3212 43.2217C22.501 43.1273 22.6798 43.033 22.8553 42.9376C22.9398 41.901 22.9892 40.8875 22.9892 39.9123C22.9892 28.3927 17.5442 21.2662 16.6491 20.1737C20.7888 14.9722 21.6784 9.66537 21.6784 6.10374C21.6784 5.40722 21.6444 4.78199 21.595 4.23244H21.0795C21.3822 7.51107 21.1244 13.8489 16.1237 20.0223Z" fill="#EDAC09"/>
<path d="M18.4176 11.5631L9.91335 9.96495C9.73237 8.61467 9.66216 7.20297 9.70604 5.72654L18.9441 9.16093C18.8158 10.0264 18.6359 10.8227 18.4176 11.5631ZM18.207 12.2246L10.0187 10.6856C10.2545 12.1017 10.6176 13.4443 11.1068 14.7123L17.4107 14.1595C17.7024 13.5573 17.9712 12.9156 18.207 12.2246ZM17.0399 14.8834L11.3744 15.3803C12.0413 16.9292 12.9035 18.3617 13.962 19.6714C14.2944 19.1482 14.6476 18.6283 15.015 18.0919C15.6962 17.0981 16.4048 16.0626 17.0399 14.8834ZM12.1488 28.9325L19.0955 30.4342C18.6732 29.074 18.1346 27.6821 17.4469 26.2879L12.5799 26.9844C12.4242 27.6316 12.2805 28.2853 12.1488 28.9325ZM14.4095 21.614C13.7646 22.8338 13.2172 24.4956 12.7609 26.2627L17.1145 25.6396C16.3872 24.2564 15.513 22.8744 14.4589 21.5252C14.4435 21.5548 14.4249 21.5844 14.4095 21.614ZM20.4118 37.5991L11.539 32.3099C11.2702 33.9991 11.1024 35.3625 11.03 35.9911C13.1964 38.0796 16.203 40.4028 20.358 42.6865C20.4754 41.4042 20.5489 39.6503 20.4118 37.5991ZM9.73456 5.00259L19.033 8.45892C19.1723 7.20187 19.2052 5.80442 19.0999 4.23147H9.78502C9.76527 4.49034 9.74772 4.74701 9.73456 5.00259ZM19.3182 31.1877L12.0139 29.6082C11.8823 30.2861 11.7638 30.9486 11.6585 31.5782L20.346 36.7578C20.1858 35.0444 19.8721 33.1567 19.3182 31.1877Z" fill="#5F111A"/>
<path d="M140.856 23.4593H41.082V23.7665H140.856V23.4593ZM60.5717 26.5515H61.1641V30.2404C61.1641 30.9095 61.0291 31.3504 60.7593 31.5621C60.4894 31.7705 59.9279 31.8747 59.0657 31.8747C58.2628 31.8747 57.7143 31.7738 57.4258 31.5709C57.1373 31.3691 56.9936 30.9851 56.9936 30.4148V30.2404V26.5515H57.5849V30.2404C57.5849 30.7372 57.665 31.0532 57.8273 31.1793C57.9896 31.3076 58.3889 31.3723 59.0229 31.3723C59.7162 31.3723 60.145 31.3076 60.314 31.1815C60.4862 31.0586 60.5717 30.7438 60.5717 30.2404V26.5515ZM62.4123 31.8199H62.9575V29.5998C62.9575 28.8846 63.3348 28.5259 64.0895 28.5259C64.4295 28.5259 64.6599 28.5808 64.7827 28.6882C64.9023 28.799 64.9604 29.0074 64.9604 29.3233V29.4616V31.8199H65.5067V29.4155C65.5067 28.8945 65.4112 28.538 65.2269 28.3548C65.0394 28.1705 64.684 28.0784 64.1597 28.0784C63.5103 28.0784 63.1023 28.2648 62.9399 28.64L62.9213 28.6268L62.9399 28.1244H62.4123V31.8199ZM66.7637 27.1526H67.3067V26.5515H66.7637V27.1526ZM66.7637 31.8199H67.3067V28.1244H66.7637V31.8199ZM69.0606 28.1244V27.2381H68.5144V28.1244H68.0087V28.5753H68.5144V30.8349V30.9665C68.5144 31.5742 68.8731 31.8747 69.5882 31.8747C70.2782 31.8747 70.6248 31.5128 70.6248 30.7866L70.6215 30.5102H70.118L70.1093 30.7153L70.106 30.8963C70.106 31.2517 69.9338 31.4272 69.5849 31.4272C69.235 31.4272 69.0606 31.2309 69.0606 30.8349V28.5753H70.48V28.1244H69.0606ZM73.9396 30.8162C73.9396 31.0718 73.8716 31.2363 73.7433 31.3131C73.6138 31.3899 73.3319 31.4272 72.8965 31.4272C72.4369 31.4272 72.1484 31.3471 72.0233 31.1881C71.8972 31.0279 71.8358 30.6572 71.8358 30.0714H74.4914V29.783C74.4914 29.0842 74.3839 28.6246 74.1721 28.4063C73.9604 28.1859 73.5162 28.0784 72.835 28.0784C72.2131 28.0784 71.7963 28.2045 71.5813 28.4557C71.3663 28.7069 71.2588 29.2038 71.2588 29.9365C71.2588 30.734 71.3663 31.255 71.578 31.504C71.793 31.7519 72.2372 31.8747 72.9184 31.8747C73.5042 31.8747 73.9122 31.7979 74.148 31.6444C74.3784 31.4919 74.4946 31.2221 74.4946 30.8382L74.4914 30.7032H73.9396V30.8162ZM71.8423 29.6513C71.8423 29.1818 71.9093 28.8758 72.0376 28.7343C72.167 28.5972 72.4522 28.5259 72.891 28.5259C73.3232 28.5259 73.6051 28.5873 73.7367 28.7036C73.8683 28.8232 73.933 29.0809 73.933 29.4802L73.9396 29.6513H71.8423ZM78.1594 26.5515V28.584L78.1473 28.5939C78.0179 28.2506 77.6197 28.0784 76.9473 28.0784C76.4077 28.0784 76.0369 28.2133 75.8285 28.4798C75.6201 28.7497 75.5159 29.2312 75.5159 29.9245C75.5159 30.6758 75.6201 31.1881 75.8252 31.4634C76.0336 31.7398 76.4208 31.8747 76.9879 31.8747C77.6077 31.8747 78.0025 31.697 78.1714 31.3351L78.1868 31.3405L78.1594 31.8199H78.7056V26.5515H78.1594ZM77.9389 28.8023C78.0859 28.9855 78.1594 29.342 78.1594 29.8696C78.1594 30.519 78.0947 30.9424 77.9597 31.1354C77.8248 31.3318 77.5331 31.4272 77.0855 31.4272C76.6753 31.4272 76.4055 31.3318 76.276 31.1354C76.1444 30.9424 76.0797 30.5376 76.0797 29.9179C76.0797 29.3574 76.1444 28.9855 76.276 28.8023C76.4077 28.6181 76.6753 28.5259 77.0767 28.5259C77.5034 28.5259 77.7876 28.6181 77.9389 28.8023ZM85.4581 26.7753C85.2179 26.5877 84.7068 26.4933 83.9181 26.4933C83.1393 26.4933 82.6216 26.5943 82.3605 26.7939C82.0995 26.9957 81.9711 27.3939 81.9711 27.995C81.9711 28.8605 82.4187 29.3233 83.3138 29.3848L83.8995 29.4155L84.5192 29.4462C84.8593 29.467 85.0841 29.5318 85.1905 29.636C85.2947 29.7435 85.3507 29.9585 85.3507 30.2799C85.3507 30.7767 85.2706 31.0839 85.1138 31.2001C84.958 31.3131 84.5379 31.3723 83.8545 31.3723C83.2589 31.3723 82.8914 31.3131 82.7466 31.2001C82.6029 31.0839 82.5294 30.7921 82.5294 30.3171V30.1877H81.9404L81.9437 30.4246C81.9437 31.0071 82.0687 31.3965 82.3177 31.5863C82.5689 31.7793 83.0746 31.8747 83.8325 31.8747C84.7068 31.8747 85.2739 31.7793 85.5284 31.5896C85.7861 31.3998 85.9123 30.9797 85.9123 30.3325C85.9123 29.7314 85.8015 29.3453 85.5777 29.1731C85.3561 29.0009 84.8318 28.8967 84.0102 28.8605C83.3082 28.8265 82.8881 28.765 82.7466 28.6696C82.6062 28.5786 82.5349 28.3208 82.5349 27.8941C82.5349 27.5168 82.6237 27.2721 82.8047 27.1646C82.9857 27.0539 83.3872 26.999 84.0135 26.999C84.5378 26.999 84.8724 27.0572 85.0128 27.1701C85.1576 27.2875 85.2278 27.5573 85.2278 27.9829H85.8169C85.8169 27.3632 85.6973 26.9617 85.4581 26.7753ZM87.4139 28.1244V27.2381H86.8688V28.1244H86.362V28.5753H86.8688V30.8349V30.9665C86.8688 31.5742 87.2275 31.8747 87.9416 31.8747C88.6315 31.8747 88.9781 31.5128 88.9781 30.7866L88.9748 30.5102H88.4724L88.4626 30.7153L88.4603 30.8963C88.4603 31.2517 88.2848 31.4272 87.9382 31.4272C87.5894 31.4272 87.4139 31.2309 87.4139 30.8349V28.5753H88.8377V28.1244H87.4139ZM90.2812 29.0568C90.2812 28.6861 90.6125 28.4985 91.275 28.4985C91.6677 28.4985 91.9222 28.5599 92.0362 28.6861C92.1525 28.8111 92.2107 29.0842 92.2107 29.5043V29.9519L92.1986 29.9552C92.0692 29.704 91.6798 29.5745 91.0293 29.5745C90.4842 29.5745 90.1068 29.6612 89.8984 29.8323C89.69 30.0012 89.5858 30.3073 89.5858 30.7526C89.5858 31.5007 90.052 31.8747 90.9843 31.8747C91.6161 31.8747 92.0363 31.7245 92.2414 31.4173L92.2534 31.4206L92.2107 31.8199H92.7536V29.3848C92.7536 28.8758 92.6462 28.5325 92.429 28.3515C92.214 28.1672 91.7961 28.0784 91.1807 28.0784C90.6158 28.0784 90.2329 28.1519 90.0399 28.2989C89.8468 28.4458 89.7481 28.7376 89.7481 29.1665H90.2845C90.2812 29.1117 90.2812 29.0755 90.2812 29.0568ZM92.0143 30.1482C92.1646 30.2469 92.2381 30.4422 92.2381 30.734C92.2381 31.1968 91.8553 31.4272 91.0907 31.4272C90.7112 31.4272 90.46 31.3778 90.3339 31.2835C90.211 31.1881 90.1463 30.9885 90.1463 30.6912C90.1463 30.4027 90.211 30.2151 90.3371 30.1263C90.4622 30.0407 90.7321 29.9946 91.15 29.9946C91.5789 29.9946 91.8673 30.0473 92.0143 30.1482ZM94.5657 28.1244V27.2381H94.0227V28.1244H93.517V28.5753H94.0227V30.8349V30.9665C94.0227 31.5742 94.3814 31.8747 95.0966 31.8747C95.7865 31.8747 96.1331 31.5128 96.1331 30.7866L96.1299 30.5102H95.6264L95.6176 30.7153L95.6144 30.8963C95.6144 31.2517 95.4399 31.4272 95.0933 31.4272C94.7434 31.4272 94.5657 31.2309 94.5657 30.8349V28.5753H95.9884V28.1244H94.5657ZM99.4447 30.8162C99.4447 31.0718 99.38 31.2363 99.2516 31.3131C99.12 31.3899 98.8403 31.4272 98.4049 31.4272C97.9453 31.4272 97.6535 31.3471 97.5317 31.1881C97.4056 31.0279 97.3441 30.6572 97.3441 30.0714H99.9965V29.783C99.9965 29.0842 99.8922 28.6246 99.6805 28.4063C99.4699 28.1859 99.0246 28.0784 98.3434 28.0784C97.7215 28.0784 97.3014 28.2045 97.0864 28.4557C96.8747 28.7069 96.7672 29.2038 96.7672 29.9365C96.7672 30.734 96.8747 31.255 97.0864 31.504C97.2981 31.7519 97.7456 31.8747 98.4268 31.8747C99.0125 31.8747 99.4206 31.7979 99.6531 31.6444C99.8868 31.4919 100.003 31.2221 100.003 30.8382L99.9965 30.7032H99.4447V30.8162ZM97.3508 29.6513C97.3508 29.1818 97.4143 28.8758 97.546 28.7343C97.6754 28.5972 97.9573 28.5259 98.3961 28.5259C98.8316 28.5259 99.1135 28.5873 99.2451 28.7036C99.3778 28.8232 99.4414 29.0809 99.4414 29.4802L99.4447 29.6513H97.3508ZM103.984 28.9647C103.984 28.3723 103.496 28.0784 102.52 28.0784C101.911 28.0784 101.506 28.1464 101.301 28.2835C101.098 28.4217 100.997 28.6981 100.997 29.1117C100.997 29.5504 101.125 29.8389 101.383 29.9771C101.644 30.1142 102.184 30.1855 103.005 30.1855C103.357 30.1855 103.536 30.3786 103.536 30.768C103.536 31.0378 103.465 31.2155 103.321 31.3011C103.18 31.3844 102.889 31.4272 102.44 31.4272C102.076 31.4272 101.83 31.3877 101.708 31.3076C101.583 31.2243 101.521 31.0619 101.521 30.8195L101.518 30.6451H100.96L100.956 30.848C100.956 31.2396 101.07 31.5095 101.301 31.6576C101.527 31.8045 101.945 31.8747 102.548 31.8747C103.137 31.8747 103.545 31.7979 103.765 31.6444C103.987 31.4919 104.097 31.2067 104.097 30.7921C104.097 30.1263 103.763 29.7775 103.094 29.7435L102.539 29.716L102.104 29.6908C101.738 29.6733 101.557 29.4769 101.557 29.0963C101.557 28.8484 101.613 28.6915 101.721 28.6246C101.827 28.5599 102.082 28.5259 102.484 28.5259C102.916 28.5259 103.186 28.5566 103.287 28.6181C103.395 28.6828 103.444 28.8418 103.444 29.0996H103.984V28.9647ZM111.071 31.8199H111.689L109.724 26.5515H108.89L106.961 31.8199H107.59L107.995 30.7032H110.663L111.071 31.8199ZM108.163 30.2524L109.32 27.0352L110.488 30.2524H108.163ZM112.531 31.8199H113.076V29.6053C113.076 28.867 113.373 28.4985 113.974 28.4985C114.386 28.4985 114.594 28.6861 114.594 29.0601C114.594 29.093 114.587 29.1577 114.582 29.2553L114.573 29.3475H115.103L115.11 29.093C115.11 28.3976 114.768 28.0477 114.088 28.0477C113.597 28.0477 113.245 28.2199 113.033 28.5632L113.021 28.55L113.076 28.1244H112.531V31.8199ZM115.907 31.8199H116.452V29.7226C116.452 28.9241 116.817 28.5259 117.55 28.5259C118.093 28.5259 118.363 28.7628 118.363 29.2345L118.369 29.4034V31.8199H118.915V29.682C118.915 29.2312 118.988 28.9274 119.142 28.765C119.292 28.606 119.58 28.5259 120.007 28.5259C120.325 28.5259 120.544 28.584 120.66 28.6981C120.774 28.8144 120.832 29.0327 120.832 29.3541V31.8199H121.377V29.4034C121.377 28.5193 120.942 28.0784 120.074 28.0784C119.458 28.0784 119.034 28.2835 118.805 28.6915H118.79C118.655 28.2835 118.277 28.0784 117.652 28.0784C117.06 28.0784 116.658 28.2835 116.452 28.6915L116.44 28.6828L116.452 28.1244H115.907V31.8199ZM124.748 28.1244L124.33 29.7709L124.122 30.5903L124.027 31.0038L123.926 31.4151H123.911L123.77 31.0038L123.628 30.5903L123.343 29.7709L122.776 28.1244H122.202L123.536 31.8199H123.742C123.72 31.8989 123.708 31.9449 123.705 31.9581L123.601 32.319C123.46 32.8038 123.245 33.0375 122.953 33.0221C122.902 33.0188 122.84 33.0122 122.767 33.0002V33.451C122.871 33.463 122.957 33.4696 123.025 33.4696C123.356 33.4696 123.61 33.3687 123.788 33.1625C123.969 32.9574 124.131 32.5768 124.278 32.0283L125.324 28.1244H124.748ZM48.7504 33.9939L47.3541 37.4042L47.1281 37.9527C47.1095 38.002 47.0722 38.0941 47.0206 38.2258L46.9132 38.5022H46.8945L46.787 38.2258L46.6773 37.9527L46.4524 37.3976L45.0484 33.9939H44.0217V39.2623H44.6129V35.0426V34.7541L44.6064 34.6104L44.6042 34.4656H44.6195C44.6371 34.5183 44.6524 34.5577 44.6656 34.5852L44.7117 34.708L44.8159 34.9504L46.6159 39.2623H47.2071L49.0016 34.9011L49.1026 34.6565C49.1113 34.6378 49.1267 34.5983 49.1486 34.5369L49.1947 34.4141H49.2101L49.2068 34.5698L49.2035 34.73V35.0426V39.2623H49.7958V33.9939H48.7504ZM53.6108 38.2598C53.6108 38.5143 53.5461 38.6799 53.4145 38.7567C53.285 38.8335 53.0031 38.8697 52.5677 38.8697C52.1114 38.8697 51.8196 38.7896 51.6945 38.6305C51.5684 38.4682 51.5069 38.0974 51.5069 37.5139H54.1626V37.2265C54.1626 36.5234 54.055 36.0671 53.8466 35.8488C53.6349 35.6283 53.1874 35.5208 52.5095 35.5208C51.8843 35.5208 51.4675 35.647 51.2525 35.8982C51.0375 36.1493 50.9333 36.643 50.9333 37.379C50.9333 38.1764 51.0375 38.6985 51.2492 38.9464C51.4642 39.1954 51.9117 39.3172 52.5896 39.3172C53.1753 39.3172 53.5834 39.2415 53.8192 39.0879C54.0518 38.9344 54.1691 38.6645 54.1691 38.2806L54.1626 38.1457H53.6108V38.2598ZM51.5157 37.0949C51.5157 36.6254 51.5805 36.3183 51.7088 36.1779C51.8382 36.0397 52.1234 35.9695 52.5622 35.9695C52.9943 35.9695 53.2795 36.0265 53.4079 36.1461C53.5406 36.2667 53.6075 36.5234 53.6075 36.9227L53.6108 37.0949H51.5157ZM57.8339 33.9939V36.0265L57.8207 36.0364C57.6924 35.693 57.2909 35.5208 56.6185 35.5208C56.0821 35.5208 55.7081 35.6557 55.4997 35.9223C55.2913 36.1921 55.1871 36.6737 55.1871 37.3669C55.1871 38.1161 55.2913 38.6305 55.4997 38.9069C55.7048 39.1801 56.092 39.3172 56.6591 39.3172C57.2789 39.3172 57.6737 39.1395 57.8426 38.7775L57.858 38.7808L57.8339 39.2623H58.3758V33.9939H57.8339ZM57.6101 36.2448C57.7571 36.4291 57.8339 36.7845 57.8339 37.3121C57.8339 37.9625 57.7659 38.3859 57.6309 38.579C57.496 38.772 57.2042 38.8697 56.76 38.8697C56.3487 38.8697 56.0766 38.772 55.9472 38.579C55.8156 38.3859 55.7509 37.9801 55.7509 37.3614C55.7509 36.7998 55.8156 36.4291 55.9472 36.2448C56.0788 36.0605 56.3465 35.9695 56.7479 35.9695C57.1735 35.9695 57.4587 36.0605 57.6101 36.2448ZM59.5999 34.595H60.1461V33.9939H59.5999V34.595ZM59.5999 39.2623H60.1461V35.5669H59.5999V39.2623ZM63.7308 38.7073C63.6167 38.8148 63.3568 38.8697 62.9421 38.8697C62.4551 38.8697 62.1447 38.7874 62.0098 38.6185C61.8781 38.4528 61.8112 38.0634 61.8112 37.4503C61.8112 36.8217 61.8694 36.4192 61.9856 36.2393C62.1019 36.0572 62.3662 35.9695 62.7743 35.9695C63.1966 35.9695 63.4796 36.0177 63.6233 36.1132C63.7637 36.2075 63.835 36.3983 63.835 36.6835V36.7812H64.3747C64.3747 36.2941 64.2639 35.9629 64.0467 35.7852C63.8251 35.6064 63.4182 35.5208 62.8171 35.5208C62.2061 35.5208 61.7926 35.6503 61.5743 35.9102C61.3571 36.1746 61.2496 36.6682 61.2496 37.4009C61.2496 38.1797 61.3538 38.6953 61.5688 38.9432C61.7838 39.1954 62.2215 39.3172 62.884 39.3172C63.9173 39.3172 64.4361 38.9256 64.4361 38.1336V37.934H63.8964C63.8964 38.3399 63.8405 38.5965 63.7308 38.7073ZM66.0244 36.4993C66.0244 36.1285 66.3557 35.9409 67.0182 35.9409C67.4109 35.9409 67.6621 36.0024 67.7784 36.1285C67.8946 36.2514 67.9528 36.5267 67.9528 36.9468V37.3943L67.9407 37.3976C67.8123 37.1464 67.423 37.0181 66.7725 37.0181C66.2263 37.0181 65.85 37.1037 65.6405 37.2726C65.4321 37.4437 65.3279 37.7508 65.3279 38.1951C65.3279 38.9431 65.794 39.3172 66.7264 39.3172C67.3582 39.3172 67.775 39.1669 67.9846 38.8609L67.9933 38.8642L67.9528 39.2623H68.4957V36.8272C68.4957 36.3183 68.3882 35.9749 68.171 35.7907C67.9561 35.6097 67.5392 35.5208 66.9228 35.5208C66.3557 35.5208 65.975 35.5943 65.782 35.7424C65.5856 35.8894 65.4913 36.1779 65.4913 36.6068H66.0277C66.0244 36.5541 66.0244 36.5179 66.0244 36.4993ZM67.7575 37.5874C67.9078 37.6894 67.9813 37.8857 67.9813 38.1764C67.9813 38.6404 67.5974 38.8697 66.8306 38.8697C66.4533 38.8697 66.1988 38.8214 66.076 38.726C65.9509 38.6305 65.8895 38.4309 65.8895 38.1336C65.8895 37.8451 65.9542 37.6587 66.0792 37.5698C66.2021 37.4832 66.4752 37.4371 66.892 37.4371C67.3187 37.4371 67.6072 37.4898 67.7575 37.5874ZM69.7747 39.2623H70.3177V33.9939H69.7747V39.2623ZM74.4113 39.2623V37.1344H76.2058H76.4022C76.932 37.1344 77.1996 37.4404 77.1996 38.0547V39.2623H77.7908V37.9186C77.7908 37.2813 77.5122 36.9413 76.9572 36.8974V36.8887C77.3126 36.8305 77.5517 36.7077 77.6779 36.5146C77.8029 36.3216 77.8676 35.9837 77.8676 35.4967C77.8676 34.9417 77.7514 34.5556 77.521 34.3285C77.2885 34.1047 76.8892 33.9939 76.3254 33.9939H73.8201V39.2623H74.4113ZM74.4113 34.4996H76.3319C76.7334 34.4996 76.9967 34.5698 77.1195 34.7146C77.2424 34.8583 77.3038 35.1687 77.3038 35.6437C77.3038 36.0243 77.2205 36.2843 77.0581 36.4225C76.8892 36.5574 76.5831 36.6276 76.129 36.6276H74.4113V34.4996ZM81.5543 38.2598C81.5543 38.5143 81.4896 38.6799 81.3612 38.7567C81.2285 38.8335 80.9466 38.8697 80.5111 38.8697C80.0537 38.8697 79.763 38.7896 79.6369 38.6305C79.514 38.4682 79.4504 38.0974 79.4504 37.5139H82.1061V37.2265C82.1061 36.5234 82.0018 36.0671 81.7901 35.8488C81.5784 35.6283 81.1342 35.5208 80.453 35.5208C79.8311 35.5208 79.4099 35.647 79.196 35.8982C78.9843 36.1493 78.8767 36.643 78.8767 37.379C78.8767 38.1764 78.9843 38.6985 79.196 38.9464C79.4077 39.1954 79.8552 39.3172 80.5353 39.3172C81.1221 39.3172 81.5291 39.2415 81.7627 39.0879C81.9953 38.9344 82.1115 38.6645 82.1115 38.2806L82.1061 38.1457H81.5543V38.2598ZM79.4592 37.0949C79.4592 36.6254 79.5239 36.3183 79.6556 36.1779C79.7839 36.0397 80.0669 35.9695 80.5056 35.9695C80.9411 35.9695 81.223 36.0265 81.3547 36.1461C81.4863 36.2667 81.551 36.5234 81.551 36.9227L81.5543 37.0949H79.4592ZM86.0899 36.4038C86.0899 35.8159 85.6051 35.5208 84.6267 35.5208C84.0201 35.5208 83.6143 35.5888 83.4092 35.727C83.2073 35.8641 83.1031 36.1406 83.1031 36.5541C83.1031 36.9929 83.2315 37.2781 83.4914 37.4195C83.7503 37.5578 84.2922 37.628 85.1138 37.628C85.467 37.628 85.6424 37.821 85.6424 38.2104C85.6424 38.4803 85.5711 38.658 85.4296 38.7413C85.2892 38.8269 84.9953 38.8697 84.5466 38.8697C84.1857 38.8697 83.9401 38.8302 83.8139 38.7468C83.6911 38.6678 83.6274 38.5044 83.6274 38.2631V38.0876H83.0691L83.0658 38.2905C83.0658 38.6799 83.1788 38.953 83.4059 39.0967C83.6362 39.2437 84.0497 39.3172 84.6574 39.3172C85.2465 39.3172 85.6512 39.2415 85.8717 39.0879C86.0955 38.9311 86.2062 38.6492 86.2062 38.2346C86.2062 37.5665 85.8717 37.2166 85.2004 37.1837L84.6487 37.1585L84.2131 37.1344C83.8479 37.1157 83.6669 36.9194 83.6669 36.5387C83.6669 36.2908 83.7218 36.1318 83.8293 36.0671C83.9368 36.0024 84.1912 35.9695 84.5927 35.9695C85.0249 35.9695 85.2925 35.9991 85.3967 36.0605C85.5009 36.1252 85.5525 36.2843 85.5525 36.542H86.0954L86.0899 36.4038ZM89.8183 38.2598C89.8183 38.5143 89.7536 38.6799 89.6253 38.7567C89.4969 38.8335 89.2118 38.8697 88.7785 38.8697C88.3189 38.8697 88.0271 38.7896 87.9053 38.6305C87.7792 38.4682 87.7177 38.0974 87.7177 37.5139H90.3712V37.2265C90.3712 36.5234 90.267 36.0671 90.0553 35.8488C89.8425 35.6283 89.3982 35.5208 88.717 35.5208C88.0951 35.5208 87.675 35.647 87.4633 35.8982C87.2483 36.1493 87.1419 36.643 87.1419 37.379C87.1419 38.1764 87.2483 38.6985 87.46 38.9464C87.675 39.1954 88.1203 39.3172 88.8004 39.3172C89.3828 39.3172 89.7942 39.2415 90.0268 39.0879C90.2604 38.9344 90.3766 38.6645 90.3766 38.2806L90.3712 38.1457H89.8183V38.2598ZM87.7244 37.0949C87.7244 36.6254 87.789 36.3183 87.9207 36.1779C88.049 36.0397 88.3343 35.9695 88.7697 35.9695C89.2052 35.9695 89.4871 36.0265 89.6198 36.1461C89.7514 36.2667 89.815 36.5234 89.815 36.9227L89.8183 37.0949H87.7244ZM92.0571 36.4993C92.0571 36.1285 92.3883 35.9409 93.0509 35.9409C93.4436 35.9409 93.6947 36.0024 93.811 36.1285C93.9284 36.2514 93.9833 36.5267 93.9833 36.9468V37.3943L93.9711 37.3976C93.8417 37.1464 93.4523 37.0181 92.8052 37.0181C92.26 37.0181 91.8827 37.1037 91.6743 37.2726C91.4626 37.4437 91.3584 37.7508 91.3584 38.1951C91.3584 38.9431 91.8245 39.3172 92.7591 39.3172C93.3887 39.3172 93.8088 39.1669 94.0139 38.8609L94.026 38.8642L93.9833 39.2623H94.5284V36.8272C94.5284 36.3183 94.4187 35.9749 94.2037 35.7907C93.9865 35.6097 93.5719 35.5208 92.9555 35.5208C92.3884 35.5208 92.0077 35.5943 91.8114 35.7424C91.6183 35.8894 91.524 36.1779 91.524 36.6068H92.0571V36.4993ZM93.7902 37.5874C93.9372 37.6894 94.0139 37.8857 94.0139 38.1764C94.0139 38.6404 93.6301 38.8697 92.8633 38.8697C92.4838 38.8697 92.2315 38.8214 92.1098 38.726C91.9836 38.6305 91.9222 38.4309 91.9222 38.1336C91.9222 37.8451 91.9836 37.6587 92.1098 37.5698C92.2348 37.4832 92.5079 37.4371 92.9215 37.4371C93.3514 37.4371 93.6432 37.4898 93.7902 37.5874ZM95.8534 39.2623H96.3997V37.0477C96.3997 36.3095 96.697 35.9409 97.2981 35.9409C97.7094 35.9409 97.9145 36.1285 97.9145 36.5025C97.9145 36.5365 97.9112 36.6002 97.9058 36.6989L97.8959 36.791H98.4268L98.43 36.5366C98.43 35.84 98.0922 35.4901 97.4121 35.4901C96.9207 35.4901 96.5687 35.6623 96.357 36.0056L96.3448 35.9936L96.3997 35.5669H95.8534V39.2623ZM101.598 38.7073C101.484 38.8148 101.224 38.8697 100.809 38.8697C100.322 38.8697 100.012 38.7874 99.8802 38.6185C99.7452 38.4528 99.6805 38.0634 99.6805 37.4503C99.6805 36.8217 99.7397 36.4192 99.8527 36.2393C99.969 36.0572 100.233 35.9695 100.64 35.9695C101.064 35.9695 101.347 36.0177 101.49 36.1132C101.631 36.2075 101.702 36.3983 101.702 36.6835V36.7812H102.242C102.242 36.2941 102.131 35.9629 101.914 35.7852C101.696 35.6064 101.285 35.5208 100.686 35.5208C100.073 35.5208 99.6597 35.6503 99.4414 35.9102C99.2242 36.1746 99.1167 36.6682 99.1167 37.4009C99.1167 38.1797 99.2242 38.6953 99.4381 38.9432C99.6498 39.1954 100.089 39.3172 100.754 39.3172C101.788 39.3172 102.303 38.9256 102.303 38.1336V37.934H101.764C101.764 38.3399 101.708 38.5965 101.598 38.7073ZM103.34 33.9939V39.2623H103.883V37.1837C103.883 36.6989 103.958 36.3764 104.112 36.2141C104.266 36.0484 104.573 35.9695 105.029 35.9695C105.594 35.9695 105.878 36.2448 105.878 36.7965V36.9007V39.2623H106.421V36.9007V36.7504C106.421 35.9322 105.958 35.5208 105.036 35.5208C104.409 35.5208 104.03 35.6897 103.895 36.0298L103.883 36.0243V33.9939H103.34ZM109.957 39.2623H110.549V33.9939H109.957V39.2623ZM111.815 39.2623H112.358V37.0389C112.358 36.3248 112.736 35.9695 113.491 35.9695C113.831 35.9695 114.061 36.0243 114.183 36.1318C114.303 36.2393 114.361 36.4499 114.361 36.7658V36.904V39.2623H114.907V36.8579C114.907 36.3369 114.814 35.9804 114.628 35.7972C114.444 35.613 114.088 35.5208 113.561 35.5208C112.91 35.5208 112.502 35.7084 112.34 36.0824L112.325 36.0704L112.34 35.5669H111.815V39.2623ZM119.019 36.4038C119.019 35.8159 118.532 35.5208 117.557 35.5208C116.949 35.5208 116.541 35.5888 116.336 35.727C116.134 35.8641 116.032 36.1406 116.032 36.5541C116.032 36.9929 116.161 37.2781 116.419 37.4195C116.679 37.5578 117.219 37.628 118.04 37.628C118.394 37.628 118.571 37.821 118.571 38.2104C118.571 38.4803 118.501 38.658 118.357 38.7413C118.216 38.8269 117.924 38.8697 117.477 38.8697C117.111 38.8697 116.867 38.8302 116.741 38.7468C116.618 38.6678 116.556 38.5044 116.556 38.2631V38.0876H115.996L115.993 38.2905C115.993 38.6799 116.105 38.953 116.336 39.0967C116.563 39.2437 116.98 39.3172 117.584 39.3172C118.173 39.3172 118.58 39.2415 118.802 39.0879C119.022 38.9311 119.133 38.6492 119.133 38.2346C119.133 37.5665 118.798 37.2166 118.13 37.1837L117.575 37.1585L117.14 37.1344C116.778 37.1157 116.594 36.9194 116.594 36.5387C116.594 36.2908 116.648 36.1318 116.756 36.0671C116.863 36.0024 117.118 35.9695 117.519 35.9695C117.952 35.9695 118.221 35.9991 118.327 36.0605C118.431 36.1252 118.479 36.2843 118.479 36.542H119.022L119.019 36.4038ZM120.718 35.5669V34.6806H120.173V35.5669H119.669V36.0177H120.173V38.2784V38.41C120.173 39.0166 120.532 39.3172 121.246 39.3172C121.936 39.3172 122.282 38.9552 122.282 38.2291L122.279 37.9527H121.78L121.767 38.1589L121.764 38.3399C121.764 38.6952 121.592 38.8697 121.246 38.8697C120.892 38.8697 120.718 38.6733 120.718 38.2784V36.0177H122.141V35.5669H120.718ZM123.034 34.595H123.576V33.9939H123.034V34.595ZM123.034 39.2623H123.576V35.5669H123.034V39.2623ZM125.33 35.5669V34.6806H124.787V35.5669H124.282V36.0177H124.787V38.2784V38.41C124.787 39.0166 125.143 39.3172 125.858 39.3172C126.548 39.3172 126.895 38.9552 126.895 38.2291L126.891 37.9527H126.388L126.379 38.1589L126.377 38.3399C126.377 38.6952 126.205 38.8697 125.855 38.8697C125.505 38.8697 125.33 38.6733 125.33 38.2784V36.0177H126.753V35.5669H125.33ZM130.108 35.5669V37.6861C130.108 38.1369 130.028 38.4463 129.872 38.6152C129.712 38.7874 129.424 38.8697 129.002 38.8697C128.679 38.8697 128.464 38.8148 128.355 38.6985C128.244 38.5845 128.189 38.3607 128.189 38.0261V35.5669H127.646V38.0261C127.646 38.8883 128.075 39.3172 128.934 39.3172C129.547 39.3172 129.948 39.134 130.136 38.7654L130.148 38.7775L130.108 39.2623H130.651V35.5669H130.108ZM132.464 35.5669V34.6806H131.921V35.5669H131.415V36.0177H131.921V38.2784V38.41C131.921 39.0166 132.276 39.3172 132.991 39.3172C133.684 39.3172 134.031 38.9552 134.031 38.2291L134.024 37.9527H133.524L133.515 38.1589L133.512 38.3399C133.512 38.6952 133.338 38.8697 132.991 38.8697C132.638 38.8697 132.464 38.6733 132.464 38.2784V36.0177H133.886V35.5669H132.464ZM137.343 38.2598C137.343 38.5143 137.278 38.6799 137.149 38.7567C137.018 38.8335 136.735 38.8697 136.303 38.8697C135.843 38.8697 135.551 38.7896 135.428 38.6305C135.303 38.4682 135.239 38.0974 135.239 37.5139H137.894V37.2265C137.894 36.5234 137.79 36.0671 137.578 35.8488C137.367 35.6283 136.919 35.5208 136.241 35.5208C135.619 35.5208 135.199 35.647 134.984 35.8982C134.772 36.1493 134.665 36.643 134.665 37.379C134.665 38.1764 134.769 38.6985 134.984 38.9464C135.196 39.1954 135.643 39.3172 136.321 39.3172C136.907 39.3172 137.318 39.2415 137.551 39.0879C137.784 38.9344 137.901 38.6645 137.901 38.2806L137.894 38.1457H137.343V38.2598ZM135.249 37.0949C135.249 36.6254 135.312 36.3183 135.442 36.1779C135.573 36.0397 135.855 35.9695 136.294 35.9695C136.729 35.9695 137.011 36.0265 137.143 36.1461C137.275 36.2667 137.339 36.5234 137.339 36.9227L137.343 37.0949H135.249ZM53.0338 43.3165C52.8287 43.5523 52.7278 44.0679 52.7278 44.862C52.7278 45.6529 52.8287 46.1684 53.0338 46.4075C53.2368 46.6434 53.6755 46.7607 54.3523 46.7607C55.0335 46.7607 55.4756 46.6434 55.6807 46.4075C55.8825 46.1684 55.9845 45.6529 55.9845 44.862C55.9845 44.0679 55.8825 43.5523 55.6807 43.3165C55.4756 43.0806 55.0335 42.9611 54.3523 42.9611C53.6755 42.9611 53.2368 43.0806 53.0338 43.3165ZM55.2485 43.6445C55.3615 43.8013 55.4196 44.2061 55.4196 44.862C55.4196 45.518 55.3615 45.9238 55.2485 46.0796C55.1344 46.2364 54.8372 46.3121 54.3523 46.3121C53.8741 46.3121 53.5768 46.2364 53.4638 46.0796C53.3497 45.9238 53.2916 45.518 53.2916 44.862C53.2916 44.2061 53.3497 43.8013 53.4638 43.6445C53.5768 43.4887 53.8741 43.4119 54.3523 43.4119C54.8372 43.4119 55.1344 43.4887 55.2485 43.6445ZM57.7933 46.7048V43.458H58.7596V43.0104H57.7933V42.4148C57.7933 42.0221 57.9864 41.8258 58.3758 41.8258C58.4558 41.8258 58.5841 41.8357 58.7596 41.8532V41.409C58.6094 41.3881 58.4777 41.3783 58.3669 41.3783C57.6222 41.3783 57.2503 41.7402 57.2503 42.4642V43.0104H56.6865V43.458H57.2503V46.7048H57.7933ZM61.7586 46.7048H62.3509V41.4364H61.7586V46.7048ZM63.6145 46.7048H64.1597V44.4814C64.1597 43.7673 64.537 43.4119 65.2884 43.4119C65.6317 43.4119 65.8654 43.4635 65.9849 43.5743C66.1045 43.6818 66.1626 43.8935 66.1626 44.2083V44.3465V46.7048H66.7089V44.3015C66.7089 43.7794 66.6167 43.424 66.4292 43.2397C66.2416 43.0554 65.8862 42.9611 65.3619 42.9611C64.7125 42.9611 64.3045 43.1509 64.141 43.5249L64.1235 43.5128L64.141 43.0104H63.6145V46.7048ZM68.6526 46.7048V43.458H69.6156V43.0104H68.6526V42.4148C68.6526 42.0221 68.8456 41.8258 69.235 41.8258C69.3151 41.8258 69.4434 41.8357 69.6156 41.8532V41.409C69.4687 41.3881 69.3371 41.3783 69.2263 41.3783C68.4815 41.3783 68.1096 41.7402 68.1096 42.4642V43.0104H67.5458V43.458H68.1096V46.7048H68.6526ZM72.8998 45.7022C72.8998 45.9567 72.835 46.1224 72.7067 46.1991C72.5751 46.2726 72.2932 46.3121 71.8599 46.3121C71.4003 46.3121 71.1085 46.2331 70.9868 46.073C70.8606 45.9106 70.7992 45.5399 70.7992 44.9574H73.4515V44.669C73.4515 43.9669 73.3473 43.5063 73.1356 43.2891C72.9239 43.0708 72.4797 42.9611 71.7985 42.9611C71.1766 42.9611 70.7564 43.0894 70.5447 43.3406C70.3297 43.5929 70.2222 44.0865 70.2222 44.8225C70.2222 45.62 70.3297 46.141 70.5414 46.3889C70.7531 46.6379 71.2007 46.7607 71.8818 46.7607C72.4643 46.7607 72.8756 46.684 73.1082 46.5304C73.3418 46.3768 73.4581 46.107 73.4581 45.7242L73.4515 45.586H72.8998V45.7022ZM70.8047 44.5373C70.8047 44.0646 70.8694 43.7607 71.0021 43.6203C71.1305 43.4821 71.4124 43.4119 71.8511 43.4119C72.2866 43.4119 72.5685 43.47 72.7001 43.5896C72.8329 43.7092 72.8965 43.9669 72.8965 44.3651L72.8998 44.5373H70.8047ZM76.9473 46.1498C76.8376 46.2573 76.5766 46.3121 76.163 46.3121C75.6749 46.3121 75.3656 46.2298 75.2307 46.0609C75.098 45.8953 75.031 45.5059 75.031 44.8927C75.031 44.2642 75.0892 43.8627 75.2054 43.6817C75.3228 43.5008 75.5861 43.4119 75.9941 43.4119C76.4175 43.4119 76.6994 43.458 76.8431 43.5523C76.9846 43.651 77.0548 43.8408 77.0548 44.126V44.2214H77.5945C77.5945 43.7366 77.4848 43.402 77.2665 43.2276C77.0461 43.0499 76.638 42.9611 76.0369 42.9611C75.427 42.9611 75.0124 43.0927 74.7952 43.3527C74.5769 43.617 74.4673 44.1106 74.4673 44.8434C74.4673 45.6222 74.5736 46.1377 74.7886 46.3867C75.0036 46.6379 75.4424 46.7607 76.1049 46.7607C77.1415 46.7607 77.6559 46.3681 77.6559 45.5761V45.3776H77.1162C77.1162 45.7823 77.0614 46.0401 76.9473 46.1498ZM79.2267 43.0104V42.1231H78.6804V43.0104H78.1747V43.458H78.6804V45.7209V45.8525C78.6804 46.4602 79.0391 46.7607 79.7543 46.7607C80.4442 46.7607 80.7908 46.3988 80.7908 45.6715L80.7876 45.3951H80.2841L80.2753 45.6013L80.272 45.7823C80.272 46.1344 80.1009 46.3121 79.751 46.3121C79.4011 46.3121 79.2267 46.1169 79.2267 45.7209V43.458H80.6494V43.0104H79.2267ZM81.5422 42.0375H82.0852V41.4364H81.5422V42.0375ZM81.5422 46.7048H82.0852V43.0094H81.5422V46.7048ZM83.5013 43.3165C83.2983 43.5523 83.1975 44.0679 83.1975 44.862C83.1975 45.6529 83.2983 46.1684 83.5013 46.4075C83.7042 46.6434 84.1452 46.7607 84.8231 46.7607C85.5042 46.7607 85.9452 46.6434 86.1481 46.4075C86.3499 46.1684 86.4509 45.6529 86.4509 44.862C86.4509 44.0679 86.3499 43.5523 86.1481 43.3165C85.9452 43.0806 85.5042 42.9611 84.8231 42.9611C84.1452 42.9611 83.7042 43.0806 83.5013 43.3165ZM85.7181 43.6445C85.8322 43.8013 85.8904 44.2061 85.8904 44.862C85.8904 45.518 85.8322 45.9238 85.7181 46.0796C85.6018 46.2364 85.3046 46.3121 84.8231 46.3121C84.3448 46.3121 84.0475 46.2364 83.9302 46.0796C83.8172 45.9238 83.759 45.518 83.759 44.862C83.759 44.2061 83.8172 43.8013 83.9302 43.6445C84.0475 43.4887 84.3448 43.4119 84.8231 43.4119C85.3046 43.4119 85.6018 43.4887 85.7181 43.6445ZM90.0399 43.0104V45.1286C90.0399 45.5794 89.9598 45.8898 89.803 46.0576C89.6439 46.2265 89.3554 46.3121 88.932 46.3121C88.6106 46.3121 88.3957 46.2573 88.2849 46.141C88.1752 46.028 88.1203 45.8031 88.1203 45.4664V43.0104H87.5774V45.4664C87.5774 46.3307 88.0063 46.7607 88.8651 46.7607C89.4783 46.7607 89.8765 46.5765 90.0641 46.2079L90.0761 46.2211L90.0399 46.7048H90.5818V43.0104H90.0399ZM94.7127 43.8474C94.7127 43.2583 94.2257 42.9611 93.2505 42.9611C92.6428 42.9611 92.2381 43.0313 92.033 43.1695C91.83 43.3077 91.7258 43.583 91.7258 43.9977C91.7258 44.4353 91.8575 44.7205 92.1152 44.862C92.373 45.0002 92.916 45.0704 93.7343 45.0704C94.0908 45.0704 94.2651 45.2635 94.2651 45.6529C94.2651 45.9238 94.1949 46.1004 94.0534 46.1838C93.913 46.2693 93.618 46.3121 93.1704 46.3121C92.8052 46.3121 92.5606 46.2726 92.4377 46.1904C92.3116 46.1103 92.2501 45.9479 92.2501 45.7055V45.5311H91.6918L91.6897 45.733C91.6897 46.1224 91.8026 46.3922 92.0297 46.5392C92.26 46.6862 92.6736 46.7607 93.2812 46.7607C93.8703 46.7607 94.2739 46.684 94.4988 46.5304C94.716 46.3735 94.83 46.0916 94.83 45.6781C94.83 45.009 94.4922 44.6602 93.8242 44.6262L93.2713 44.601L92.8359 44.5768C92.4717 44.5582 92.2907 44.3596 92.2907 43.9823C92.2907 43.7333 92.3423 43.5742 92.4531 43.5095C92.5606 43.4459 92.815 43.4119 93.2165 43.4119C93.6487 43.4119 93.9152 43.4426 94.0194 43.503C94.1236 43.5644 94.1763 43.7278 94.1763 43.9856H94.716L94.7127 43.8474ZM100.746 46.7048C101.46 46.7048 101.935 46.5117 102.174 46.1289C102.411 45.745 102.53 44.9816 102.53 43.8408C102.53 42.8997 102.398 42.2646 102.128 41.9333C101.861 41.602 101.352 41.4364 100.595 41.4364H98.1602V46.7048H100.746ZM98.7515 41.9432H100.589C101.19 41.9432 101.569 42.0682 101.73 42.3227C101.889 42.5772 101.969 43.1816 101.969 44.1381C101.969 45.0068 101.876 45.5673 101.692 45.8185C101.509 46.073 101.101 46.1991 100.469 46.1991H98.7515V41.9432ZM103.569 42.0375H104.114V41.4364H103.569V42.0375ZM103.569 46.7048H104.114V43.0094H103.569V46.7048ZM108.185 43.8474C108.185 43.2583 107.698 42.9611 106.722 42.9611C106.115 42.9611 105.707 43.0313 105.504 43.1695C105.299 43.3077 105.198 43.583 105.198 43.9977C105.198 44.4353 105.326 44.7205 105.587 44.862C105.845 45.0002 106.385 45.0704 107.206 45.0704C107.56 45.0704 107.737 45.2635 107.737 45.6529C107.737 45.9238 107.666 46.1004 107.526 46.1838C107.384 46.2693 107.09 46.3121 106.643 46.3121C106.277 46.3121 106.032 46.2726 105.91 46.1904C105.784 46.1103 105.722 45.9479 105.722 45.7055V45.5311H105.161L105.158 45.733C105.158 46.1224 105.275 46.3922 105.502 46.5392C105.729 46.6862 106.146 46.7607 106.75 46.7607C107.341 46.7607 107.746 46.684 107.968 46.5304C108.188 46.3735 108.298 46.0916 108.298 45.6781C108.298 45.009 107.964 44.6602 107.295 44.6262L106.743 44.601L106.305 44.5768C105.943 44.5582 105.76 44.3596 105.76 43.9823C105.76 43.7333 105.814 43.5742 105.922 43.5095C106.032 43.4459 106.286 43.4119 106.689 43.4119C107.121 43.4119 107.387 43.4426 107.492 43.503C107.596 43.5644 107.648 43.7278 107.648 43.9856H108.188L108.185 43.8474ZM111.914 45.7022C111.914 45.9567 111.85 46.1224 111.718 46.1991C111.588 46.2726 111.307 46.3121 110.871 46.3121C110.414 46.3121 110.123 46.2331 109.997 46.073C109.874 45.9106 109.81 45.5399 109.81 44.9574H112.466V44.669C112.466 43.9669 112.358 43.5063 112.147 43.2891C111.938 43.0708 111.491 42.9611 110.813 42.9611C110.188 42.9611 109.77 43.0894 109.556 43.3406C109.341 43.5929 109.237 44.0865 109.237 44.8225C109.237 45.62 109.341 46.141 109.556 46.3889C109.768 46.6379 110.212 46.7607 110.895 46.7607C111.479 46.7607 111.889 46.684 112.119 46.5304C112.355 46.3768 112.471 46.107 112.471 45.7242L112.466 45.586H111.914V45.7022ZM109.819 44.5373C109.819 44.0646 109.884 43.7607 110.012 43.6203C110.142 43.4821 110.427 43.4119 110.866 43.4119C111.298 43.4119 111.583 43.47 111.711 43.5896C111.843 43.7092 111.911 43.9669 111.911 44.3651L111.914 44.5373H109.819ZM114.15 43.9417C114.15 43.5677 114.481 43.3845 115.146 43.3845C115.535 43.3845 115.79 43.4459 115.904 43.5677C116.02 43.6938 116.078 43.9702 116.078 44.3904V44.8379L116.066 44.8412C115.938 44.5856 115.548 44.4605 114.898 44.4605C114.352 44.4605 113.974 44.5461 113.766 44.715C113.557 44.8861 113.453 45.1933 113.453 45.6375C113.453 46.3867 113.919 46.7607 114.852 46.7607C115.484 46.7607 115.904 46.6072 116.109 46.3033L116.121 46.3066L116.078 46.7048H116.621V44.2697C116.621 43.7607 116.514 43.4141 116.296 43.2331C116.081 43.0532 115.665 42.9611 115.048 42.9611C114.483 42.9611 114.104 43.0346 113.907 43.1849C113.714 43.3318 113.616 43.6203 113.616 44.0492H114.153C114.15 43.9977 114.15 43.9604 114.15 43.9417ZM115.885 45.0309C116.032 45.1319 116.105 45.3282 116.105 45.62C116.105 46.0829 115.723 46.3121 114.959 46.3121C114.579 46.3121 114.327 46.2639 114.201 46.1684C114.078 46.0708 114.017 45.8744 114.017 45.5739C114.017 45.2887 114.078 45.0979 114.205 45.0123C114.331 44.9267 114.601 44.8807 115.017 44.8807C115.446 44.8807 115.735 44.93 115.885 45.0309ZM120.755 43.8474C120.755 43.2583 120.267 42.9611 119.292 42.9611C118.682 42.9611 118.277 43.0313 118.072 43.1695C117.869 43.3077 117.768 43.583 117.768 43.9977C117.768 44.4353 117.897 44.7205 118.154 44.862C118.414 45.0002 118.955 45.0704 119.777 45.0704C120.13 45.0704 120.308 45.2635 120.308 45.6529C120.308 45.9238 120.236 46.1004 120.093 46.1838C119.951 46.2693 119.661 46.3121 119.213 46.3121C118.848 46.3121 118.602 46.2726 118.479 46.1904C118.354 46.1103 118.293 45.9479 118.293 45.7055V45.5311H117.731L117.728 45.733C117.728 46.1224 117.842 46.3922 118.072 46.5392C118.298 46.6862 118.716 46.7607 119.319 46.7607C119.912 46.7607 120.317 46.684 120.537 46.5304C120.759 46.3735 120.868 46.0916 120.868 45.6781C120.868 45.009 120.534 44.6602 119.866 44.6262L119.311 44.601L118.875 44.5768C118.51 44.5582 118.329 44.3596 118.329 43.9823C118.329 43.7333 118.385 43.5742 118.491 43.5095C118.599 43.4459 118.857 43.4119 119.256 43.4119C119.688 43.4119 119.958 43.4426 120.059 43.503C120.166 43.5644 120.216 43.7278 120.216 43.9856H120.759L120.755 43.8474ZM124.481 45.7022C124.481 45.9567 124.417 46.1224 124.287 46.1991C124.159 46.2726 123.877 46.3121 123.442 46.3121C122.982 46.3121 122.69 46.2331 122.567 46.073C122.442 45.9106 122.381 45.5399 122.381 44.9574H125.033V44.669C125.033 43.9669 124.929 43.5063 124.717 43.2891C124.506 43.0708 124.06 42.9611 123.38 42.9611C122.757 42.9611 122.34 43.0894 122.125 43.3406C121.911 43.5929 121.804 44.0865 121.804 44.8225C121.804 45.62 121.911 46.141 122.123 46.3889C122.335 46.6379 122.782 46.7607 123.463 46.7607C124.048 46.7607 124.456 46.684 124.69 46.5304C124.922 46.3768 125.039 46.107 125.039 45.7242L125.033 45.586H124.481V45.7022ZM122.386 44.5373C122.386 44.0646 122.451 43.7607 122.583 43.6203C122.712 43.4821 122.996 43.4119 123.432 43.4119C123.867 43.4119 124.15 43.47 124.282 43.5896C124.413 43.7092 124.478 43.9669 124.478 44.3651L124.481 44.5373H122.386ZM129.019 43.8474C129.019 43.2583 128.532 42.9611 127.557 42.9611C126.946 42.9611 126.541 43.0313 126.34 43.1695C126.134 43.3077 126.032 43.583 126.032 43.9977C126.032 44.4353 126.162 44.7205 126.422 44.862C126.68 45.0002 127.219 45.0704 128.042 45.0704C128.394 45.0704 128.568 45.2635 128.568 45.6529C128.568 45.9238 128.502 46.1004 128.36 46.1838C128.22 46.2693 127.925 46.3121 127.477 46.3121C127.112 46.3121 126.867 46.2726 126.744 46.1904C126.618 46.1103 126.557 45.9479 126.557 45.7055V45.5311H125.996L125.993 45.733C125.993 46.1224 126.109 46.3922 126.336 46.5392C126.563 46.6862 126.98 46.7607 127.585 46.7607C128.174 46.7607 128.581 46.684 128.802 46.5304C129.023 46.3735 129.133 46.0916 129.133 45.6781C129.133 45.009 128.799 44.6602 128.131 44.6262L127.575 44.601L127.139 44.5768C126.775 44.5582 126.594 44.3596 126.594 43.9823C126.594 43.7333 126.649 43.5742 126.756 43.5095C126.867 43.4459 127.118 43.4119 127.523 43.4119C127.952 43.4119 128.222 43.4426 128.326 43.503C128.43 43.5644 128.483 43.7278 128.483 43.9856H129.023L129.019 43.8474ZM53.5428 16.6739C53.5428 18.1273 53.2982 19.0345 52.8068 19.3931C52.3132 19.7518 51.0715 19.9328 49.0784 19.9328C47.2411 19.9328 46.0883 19.7496 45.6188 19.3843C45.1493 19.0169 44.9135 18.1141 44.9135 16.6739V5.99891H43.1958V16.6739V17.1851C43.1958 18.8206 43.6137 19.9273 44.4506 20.5098C45.2876 21.0922 46.8737 21.384 49.2002 21.384C51.6847 21.384 53.3157 21.0802 54.0945 20.4758C54.8711 19.8725 55.2605 18.6056 55.2605 16.6739V5.99891H53.5428V16.6739ZM67.5491 6.65485C66.8558 6.11518 65.3706 5.84535 63.0957 5.84535C60.8481 5.84535 59.3454 6.13602 58.594 6.71627C57.8426 7.29873 57.4686 8.45815 57.4686 10.1934C57.4686 12.6955 58.763 14.0359 61.3538 14.2169L63.0496 14.3024L64.8376 14.3946C65.8215 14.4527 66.4687 14.637 66.7758 14.9441C67.0851 15.2534 67.242 15.8699 67.242 16.7957C67.242 18.2282 67.0149 19.1079 66.5608 19.4392C66.1045 19.7672 64.8924 19.9328 62.9213 19.9328C61.2002 19.9328 60.1308 19.7672 59.7129 19.4392C59.296 19.1112 59.0909 18.2677 59.0909 16.913V16.5357H57.383L57.3951 17.2136C57.3951 18.8908 57.7571 20.0041 58.4832 20.5558C59.2105 21.1076 60.6704 21.384 62.8653 21.384C65.3959 21.384 67.0303 21.1076 67.7729 20.5591C68.5111 20.0096 68.8829 18.7953 68.8829 16.9218C68.8829 15.1887 68.5604 14.0754 67.9166 13.5763C67.2694 13.0794 65.7579 12.7755 63.3809 12.6746C61.3538 12.5759 60.133 12.3949 59.726 12.1251C59.3147 11.8585 59.1096 11.1105 59.1096 9.88412C59.1096 8.79161 59.3695 8.0863 59.8917 7.77039C60.4127 7.45449 61.5743 7.29544 63.3743 7.29544C64.8924 7.29544 65.8588 7.46107 66.2668 7.79234C66.6771 8.12031 66.8833 8.89911 66.8833 10.1232H68.5879C68.5879 8.34737 68.2412 7.19123 67.5491 6.65485ZM81.4709 21.2304H83.2655L77.5802 5.99891H75.1725L69.597 21.2304H71.4157L72.5838 18.0264H80.2874L81.4709 21.2304ZM73.0742 16.7255L76.4077 7.40952L79.7872 16.7255H73.0742ZM98.5003 5.99891L94.4703 15.8732L93.811 17.4549C93.7595 17.603 93.6553 17.8663 93.5017 18.2469L93.1891 19.0377H93.1431L92.8326 18.2469L92.5079 17.4549L91.8641 15.8611L87.8132 5.99891H84.8351V21.2304H86.5528V9.05595V8.21574L86.543 7.78904L86.5309 7.37551H86.577C86.6264 7.52578 86.6724 7.64207 86.7086 7.72214L86.8435 8.08082L87.1441 8.78941L92.3302 21.2304H94.0447L99.2209 8.64134L99.5127 7.92396C99.5335 7.8724 99.5796 7.75504 99.6477 7.57734L99.7793 7.21866H99.8253L99.8133 7.67936L99.8001 8.13895V9.05595V21.2304H101.518V5.99891H98.5003ZM106.151 21.2304V15.0845H111.331H111.902C113.438 15.0845 114.208 15.9708 114.208 17.7401V21.2304H115.926V17.3507C115.926 15.5145 115.118 14.5328 113.506 14.4165V14.3825C114.539 14.2169 115.238 13.8582 115.603 13.3032C115.971 12.7448 116.155 11.7631 116.155 10.3536C116.155 8.74884 115.818 7.62012 115.146 6.97405C114.474 6.32359 113.318 5.99891 111.677 5.99891H104.434V21.2304H106.151ZM106.151 7.449H111.703C112.864 7.449 113.625 7.65741 113.981 8.07752C114.333 8.49434 114.512 9.396 114.512 10.7759C114.512 11.8838 114.271 12.6351 113.797 13.0333C113.318 13.4348 112.423 13.6344 111.11 13.6344H106.151V7.449ZM118.667 21.2304H120.384V5.99891H118.667V21.2304ZM123.319 21.2304H125.036V5.99891H123.319V21.2304ZM135.45 21.2304C137.511 21.2304 138.885 20.6787 139.571 19.5686C140.261 18.4608 140.606 16.2527 140.606 12.9499C140.606 10.2362 140.219 8.40002 139.446 7.44023C138.671 6.47935 137.196 5.99891 135.015 5.99891H127.967V21.2304H135.45ZM129.688 7.449H134.993C136.726 7.449 137.821 7.81646 138.278 8.55248C138.734 9.29179 138.965 11.0435 138.965 13.8088C138.965 16.3328 138.701 17.9584 138.174 18.6878C137.643 19.4151 136.468 19.7803 134.647 19.7803H129.688V7.449Z" fill="#5F111A"/>
<path d="M47.4339 56.4142C48.0262 56.4142 48.4891 56.7312 48.4891 57.3455C48.4891 57.8227 48.2324 57.9762 47.967 58.1188C48.4134 58.1868 48.7852 58.5313 48.7852 59.0347C48.7852 59.8124 48.0624 60.0197 47.6445 60.0197H46.4434V56.4142H47.4339ZM46.926 57.9598H47.1827C47.4942 57.9598 47.9867 57.928 47.9867 57.3883C47.9867 57.1283 47.8562 56.8695 47.3779 56.8695H46.926V57.9598ZM46.926 59.5645H47.5446C47.8858 59.5645 48.2829 59.4428 48.2829 58.9865C48.2829 58.5203 47.8353 58.4205 47.4986 58.4205H46.926V59.5645ZM49.7055 56.9166C49.7055 57.0603 49.6101 57.1963 49.4445 57.1963C49.2931 57.1963 49.1823 57.0647 49.1823 56.9221C49.1823 56.7795 49.2832 56.6468 49.439 56.6468C49.6244 56.6468 49.7055 56.774 49.7055 56.9166ZM49.665 60.0197H49.2229V57.6483H49.665V60.0197ZM52.5849 58.8647C52.5849 59.6161 52.0167 60.0614 51.3739 60.0614C50.6949 60.0614 50.1783 59.5536 50.1783 58.8592C50.1783 58.1079 50.741 57.6472 51.3893 57.6472C52.0979 57.6472 52.5849 58.166 52.5849 58.8647ZM50.6302 58.8494C50.6302 59.2936 50.9571 59.6325 51.3838 59.6325C51.8061 59.6325 52.1374 59.3155 52.1374 58.8439C52.1374 58.3985 51.8116 58.0607 51.3685 58.0607C50.9472 58.0607 50.6302 58.393 50.6302 58.8494ZM55.0376 56.4142V60.0197H54.0526C53.4043 60.0197 52.9918 59.4943 52.9918 58.8022C52.9918 58.1342 53.4142 57.6 54.103 57.6C54.2642 57.6 54.4398 57.6208 54.59 57.6954V56.4142H55.0376ZM53.4394 58.8537C53.4394 59.1675 53.5897 59.6282 54.0931 59.6282H54.59V58.1133C54.4496 58.0234 54.329 57.9971 54.1677 57.9971C53.6807 57.9971 53.4394 58.3985 53.4394 58.8537ZM57.5703 58.8702H55.9831C55.9831 59.2618 56.2935 59.6227 56.7268 59.6227C57.0229 59.6227 57.2895 59.5053 57.5308 59.3309V59.7861C57.2895 59.966 57.0284 60.0614 56.6566 60.0614C55.6661 60.0614 55.5399 59.1236 55.5399 58.8219C55.5399 58.1814 55.8975 57.6 56.5853 57.6C57.3301 57.6 57.5703 58.2296 57.5703 58.8702ZM55.9929 58.5949H57.1337C57.1337 58.2658 56.922 58.0015 56.5853 58.0015C56.2485 58.0015 56.0829 58.2033 55.9929 58.5949ZM59.2244 56.4142V56.8695C59.1444 56.8431 59.1093 56.8267 59.0182 56.8267C58.5564 56.8267 58.5509 57.1821 58.5509 57.6472H58.9535V58.0651H58.5509V60.0197H58.1034V58.0651H57.7875V57.6472H58.1034V57.4037C58.1034 56.8157 58.4204 56.366 58.9129 56.366C59.0182 56.366 59.1246 56.3769 59.2244 56.4142ZM61.2351 58.8702H59.6467C59.6467 59.2618 59.9582 59.6227 60.3904 59.6227C60.6866 59.6227 60.9531 59.5053 61.1944 59.3309V59.7861C60.9531 59.966 60.6921 60.0614 60.3202 60.0614C59.3297 60.0614 59.2047 59.1236 59.2047 58.8219C59.2047 58.1814 59.5612 57.6 60.2489 57.6C60.9937 57.6 61.2351 58.2296 61.2351 58.8702ZM59.6566 58.5949H60.7974C60.7974 58.2658 60.5868 58.0015 60.2489 58.0015C59.9122 58.0015 59.7477 58.2033 59.6566 58.5949ZM63.6076 58.5576V60.0197H63.1601V58.6113C63.1601 58.2976 63.0998 57.9861 62.7126 57.9861C62.4866 57.9861 62.2902 58.1243 62.1641 58.3305V60.0197H61.7122V57.6472H62.1641V57.9444C62.3407 57.747 62.5722 57.6 62.8431 57.6C63.3959 57.6 63.6076 58.0388 63.6076 58.5576ZM65.5371 57.7897V58.2559C65.3462 58.1342 65.1301 58.0015 64.8987 58.0015C64.7879 58.0015 64.6025 58.0442 64.6025 58.2143C64.6025 58.4095 64.9294 58.5477 65.1598 58.6903C65.5327 58.9185 65.6479 59.1719 65.6479 59.3945C65.6479 59.8333 65.2804 60.0669 64.868 60.0669C64.5367 60.0669 64.3711 59.966 64.1243 59.8552V59.3463C64.3612 59.5108 64.687 59.6589 64.8438 59.6589C64.9689 59.6589 65.185 59.5744 65.185 59.4099C65.185 59.2146 64.9996 59.14 64.6124 58.8965C64.28 58.6903 64.1396 58.494 64.1396 58.2143C64.1396 57.8062 64.4764 57.6 64.8636 57.6C65.1542 57.6 65.3254 57.679 65.5371 57.7897ZM68.0896 58.8702H66.5024C66.5024 59.2618 66.8128 59.6227 67.246 59.6227C67.5422 59.6227 67.8087 59.5053 68.0501 59.3309V59.7861C67.8087 59.966 67.5477 60.0614 67.1747 60.0614C66.1853 60.0614 66.0592 59.1236 66.0592 58.8219C66.0592 58.1814 66.4157 57.6 67.1056 57.6C67.8482 57.6 68.0896 58.2296 68.0896 58.8702ZM66.5111 58.5949H67.653C67.653 58.2658 67.4413 58.0015 67.1056 58.0015C66.7678 58.0015 66.6022 58.2033 66.5111 58.5949ZM71.1357 57.7897V58.2559C70.9448 58.1342 70.7287 58.0015 70.4973 58.0015C70.3876 58.0015 70.2 58.0442 70.2 58.2143C70.2 58.4095 70.5279 58.5477 70.7583 58.6903C71.1301 58.9185 71.2464 59.1719 71.2464 59.3945C71.2464 59.8333 70.879 60.0669 70.4676 60.0669C70.1353 60.0669 69.9696 59.966 69.7228 59.8552V59.3463C69.9598 59.5108 70.2866 59.6589 70.4424 59.6589C70.5674 59.6589 70.7835 59.5744 70.7835 59.4099C70.7835 59.2146 70.5982 59.14 70.211 58.8965C69.8797 58.6903 69.7382 58.494 69.7382 58.2143C69.7382 57.8062 70.0749 57.6 70.4621 57.6C70.7539 57.6 70.9251 57.679 71.1357 57.7897ZM74.0402 58.8647C74.0402 59.6161 73.4731 60.0614 72.8292 60.0614C72.1514 60.0614 71.6336 59.5536 71.6336 58.8592C71.6336 58.1079 72.1963 57.6472 72.8446 57.6472C73.5532 57.6472 74.0402 58.166 74.0402 58.8647ZM72.0856 58.8494C72.0856 59.2936 72.4124 59.6325 72.8402 59.6325C73.2614 59.6325 73.5938 59.3155 73.5938 58.8439C73.5938 58.3985 73.2669 58.0607 72.8249 58.0607C72.4025 58.0607 72.0856 58.393 72.0856 58.8494ZM74.9957 60.0197H74.5525V56.4142H74.9957V60.0197ZM76.0761 57.6472V59.0611C76.0761 59.3737 76.1463 59.6797 76.5236 59.6797C76.6991 59.6797 76.9613 59.559 77.0764 59.3364V57.6472H77.524V60.0197H77.0764V59.7181C76.8955 59.9079 76.6794 60.0614 76.3931 60.0614C75.8293 60.0614 75.6285 59.5964 75.6285 59.1082V57.6472H76.0761ZM78.6747 57.6472H79.3887V58.0651H78.6747V59.2256C78.6747 59.4472 78.7701 59.6435 79.0015 59.6435C79.1781 59.6435 79.3481 59.5645 79.5039 59.4746V59.9133C79.3481 60.0088 79.1167 60.0614 78.9412 60.0614C78.509 60.0614 78.2326 59.807 78.2326 59.2881V58.0651H77.8399V58.0234L78.6747 57.1546V57.6472ZM80.3221 56.9166C80.3221 57.0603 80.2267 57.1963 80.0611 57.1963C79.9108 57.1963 79.8001 57.0647 79.8001 56.9221C79.8001 56.7795 79.9009 56.6468 80.0567 56.6468C80.2432 56.6468 80.3221 56.774 80.3221 56.9166ZM80.2827 60.0197H79.8406V57.6483H80.2827V60.0197ZM83.2026 58.8647C83.2026 59.6161 82.6355 60.0614 81.9927 60.0614C81.3138 60.0614 80.7949 59.5536 80.7949 58.8592C80.7949 58.1079 81.3587 57.6472 82.007 57.6472C82.7156 57.6472 83.2026 58.166 83.2026 58.8647ZM81.2468 58.8494C81.2468 59.2936 81.5748 59.6325 82.0015 59.6325C82.4238 59.6325 82.7551 59.3155 82.7551 58.8439C82.7551 58.3985 82.4293 58.0607 81.9872 58.0607C81.5649 58.0607 81.2468 58.393 81.2468 58.8494ZM85.5906 58.5576V60.0197H85.143V58.6113C85.143 58.2976 85.0827 57.9861 84.6955 57.9861C84.4695 57.9861 84.2743 58.1243 84.1482 58.3305V60.0197H83.6951V57.6472H84.1482V57.9444C84.3237 57.747 84.5551 57.6 84.8271 57.6C85.3788 57.6 85.5906 58.0388 85.5906 58.5576ZM87.52 57.7897V58.2559C87.3291 58.1342 87.112 58.0015 86.8816 58.0015C86.7709 58.0015 86.5855 58.0442 86.5855 58.2143C86.5855 58.4095 86.9112 58.5477 87.1427 58.6903C87.5156 58.9185 87.6308 59.1719 87.6308 59.3945C87.6308 59.8333 87.2633 60.0669 86.8509 60.0669C86.5196 60.0669 86.354 59.966 86.1072 59.8552V59.3463C86.3442 59.5108 86.671 59.6589 86.8257 59.6589C86.9518 59.6589 87.1679 59.5744 87.1679 59.4099C87.1679 59.2146 86.9825 59.14 86.5953 58.8965C86.264 58.6903 86.1226 58.494 86.1226 58.2143C86.1226 57.8062 86.4593 57.6 86.8465 57.6C87.1383 57.6 87.3083 57.679 87.52 57.7897ZM89.9288 57.6472H90.6418V58.0651H89.9288V59.2256C89.9288 59.4472 90.0242 59.6435 90.2546 59.6435C90.4301 59.6435 90.6012 59.5645 90.7581 59.4746V59.9133C90.6012 60.0088 90.3697 60.0614 90.1942 60.0614C89.7621 60.0614 89.4856 59.807 89.4856 59.2881V58.0651H89.093V58.0234L89.9288 57.1546V57.6472ZM93.3555 58.8647C93.3555 59.6161 92.7873 60.0614 92.1435 60.0614C91.4656 60.0614 90.9478 59.5536 90.9478 58.8592C90.9478 58.1079 91.5105 57.6472 92.1599 57.6472C92.8674 57.6472 93.3555 58.166 93.3555 58.8647ZM91.4009 58.8494C91.4009 59.2936 91.7267 59.6325 92.1544 59.6325C92.5756 59.6325 92.908 59.3155 92.908 58.8439C92.908 58.3985 92.5811 58.0607 92.139 58.0607C91.7167 58.0607 91.4009 58.393 91.4009 58.8494ZM95.9189 57.6472C96.6473 57.6472 97.1354 58.0815 97.1354 58.8384C97.1354 59.5854 96.6725 60.0614 96.0188 60.0614C95.8531 60.0614 95.6864 60.0197 95.5361 59.9605V61.2373H95.0842V57.6472H95.9189ZM95.5361 59.5426C95.6721 59.6117 95.8236 59.6589 95.9683 59.6589C96.4016 59.6589 96.6824 59.2991 96.6824 58.8384C96.6824 58.1814 96.225 58.0815 95.8981 58.0815H95.5361V59.5426ZM99.3007 57.8698L99.0649 58.2779C98.9541 58.1715 98.784 58.0442 98.6327 58.0442C98.3003 58.0442 98.0996 58.4578 98.0996 58.7649V60.0197H97.6575V57.6472H98.0996V58.1923C98.2411 57.9707 98.4418 57.6 98.7742 57.6C99.01 57.6 99.1351 57.7009 99.3007 57.8698ZM101.714 58.8647C101.714 59.6161 101.146 60.0614 100.503 60.0614C99.8239 60.0614 99.3062 59.5536 99.3062 58.8592C99.3062 58.1079 99.8689 57.6472 100.518 57.6472C101.226 57.6472 101.714 58.166 101.714 58.8647ZM99.7592 58.8494C99.7592 59.2936 100.085 59.6325 100.513 59.6325C100.934 59.6325 101.266 59.3155 101.266 58.8439C101.266 58.3985 100.939 58.0607 100.497 58.0607C100.075 58.0607 99.7592 58.393 99.7592 58.8494ZM102.639 57.6472H103.353V58.0651H102.639V59.2256C102.639 59.4472 102.734 59.6435 102.964 59.6435C103.141 59.6435 103.312 59.5645 103.468 59.4746V59.9133C103.312 60.0088 103.081 60.0614 102.905 60.0614C102.473 60.0614 102.195 59.807 102.195 59.2881V58.0651H101.804V58.0234L102.639 57.1546V57.6472ZM105.714 58.8702H104.127C104.127 59.2618 104.437 59.6227 104.87 59.6227C105.167 59.6227 105.432 59.5053 105.675 59.3309V59.7861C105.432 59.966 105.171 60.0614 104.799 60.0614C103.81 60.0614 103.683 59.1236 103.683 58.8219C103.683 58.1814 104.04 57.6 104.729 57.6C105.473 57.6 105.714 58.2296 105.714 58.8702ZM104.136 58.5949H105.278C105.278 58.2658 105.066 58.0015 104.729 58.0015C104.393 58.0015 104.226 58.2033 104.136 58.5949ZM107.84 57.7579V58.2614C107.665 58.1287 107.443 58.0333 107.223 58.0333C106.79 58.0333 106.524 58.4051 106.524 58.8274C106.524 59.3046 106.825 59.6282 107.303 59.6282C107.504 59.6282 107.705 59.5481 107.892 59.4691V59.9342C107.69 60.0033 107.493 60.0614 107.237 60.0614C106.493 60.0614 106.076 59.559 106.076 58.8494C106.076 58.1616 106.458 57.6 107.192 57.6C107.479 57.6 107.629 57.6581 107.84 57.7579ZM108.921 57.6472H109.635V58.0651H108.921V59.2256C108.921 59.4472 109.016 59.6435 109.247 59.6435C109.424 59.6435 109.594 59.5645 109.751 59.4746V59.9133C109.594 60.0088 109.364 60.0614 109.187 60.0614C108.755 60.0614 108.478 59.807 108.478 59.2881V58.0651H108.086V58.0234L108.921 57.1546V57.6472ZM113.605 58.8647C113.605 59.6161 113.037 60.0614 112.394 60.0614C111.715 60.0614 111.198 59.5536 111.198 58.8592C111.198 58.1079 111.76 57.6472 112.409 57.6472C113.118 57.6472 113.605 58.166 113.605 58.8647ZM111.651 58.8494C111.651 59.2936 111.976 59.6325 112.403 59.6325C112.827 59.6325 113.158 59.3155 113.158 58.8439C113.158 58.3985 112.831 58.0607 112.389 58.0607C111.967 58.0607 111.651 58.393 111.651 58.8494ZM114.389 57.6472V59.0611C114.389 59.3737 114.459 59.6797 114.836 59.6797C115.012 59.6797 115.273 59.559 115.389 59.3364V57.6472H115.836V60.0197H115.389V59.7181C115.208 59.9079 114.992 60.0614 114.706 60.0614C114.143 60.0614 113.941 59.5964 113.941 59.1082V57.6472H114.389ZM118.143 57.8698L117.906 58.2779C117.797 58.1715 117.625 58.0442 117.475 58.0442C117.143 58.0442 116.942 58.4578 116.942 58.7649V60.0197H116.499V57.6472H116.942V58.1923C117.083 57.9707 117.283 57.6 117.616 57.6C117.851 57.6 117.978 57.7009 118.143 57.8698ZM121.601 58.5576V60.0197H121.154V58.6113C121.154 58.2976 121.093 57.9861 120.707 57.9861C120.481 57.9861 120.284 58.1243 120.159 58.3305V60.0197H119.706V57.6472H120.159V57.9444C120.335 57.747 120.566 57.6 120.837 57.6C121.39 57.6 121.601 58.0388 121.601 58.5576ZM123.642 58.4095V59.5854C123.642 59.6282 123.672 59.728 123.728 59.728C123.773 59.728 123.909 59.649 123.973 59.6007V59.8815C123.843 59.977 123.728 60.0614 123.537 60.0614C123.38 60.0614 123.239 60.0088 123.2 59.8234C123.034 59.966 122.813 60.0614 122.597 60.0614C122.295 60.0614 122.048 59.8333 122.048 59.4856C122.048 59.1993 122.28 58.9349 122.526 58.8439L123.204 58.5894C123.204 58.2033 123.134 58.0387 122.803 58.0387C122.517 58.0387 122.284 58.2186 122.089 58.4249V57.917C122.29 57.7053 122.461 57.6 122.827 57.6C123.321 57.6 123.642 57.8172 123.642 58.4095ZM122.486 59.4154C122.486 59.6227 122.667 59.7389 122.813 59.7389C122.968 59.7389 123.099 59.6545 123.21 59.5481V58.8439C122.968 58.9492 122.486 59.0501 122.486 59.4154ZM124.692 57.6472H125.406V58.0651H124.692V59.2256C124.692 59.4472 124.787 59.6435 125.019 59.6435C125.194 59.6435 125.365 59.5645 125.521 59.4746V59.9133C125.365 60.0088 125.135 60.0614 124.958 60.0614C124.526 60.0614 124.25 59.807 124.25 59.2881V58.0651H123.858V58.0234L124.692 57.1546V57.6472ZM126.339 56.9166C126.339 57.0603 126.245 57.1963 126.078 57.1963C125.928 57.1963 125.817 57.0647 125.817 56.9221C125.817 56.7795 125.918 56.6468 126.074 56.6468C126.26 56.6468 126.339 56.774 126.339 56.9166ZM126.3 60.0197H125.858V57.6483H126.3V60.0197ZM129.22 58.8647C129.22 59.6161 128.651 60.0614 128.009 60.0614C127.33 60.0614 126.812 59.5536 126.812 58.8592C126.812 58.1079 127.376 57.6472 128.024 57.6472C128.733 57.6472 129.22 58.166 129.22 58.8647ZM127.265 58.8494C127.265 59.2936 127.591 59.6325 128.019 59.6325C128.441 59.6325 128.772 59.3155 128.772 58.8439C128.772 58.3985 128.446 58.0607 128.003 58.0607C127.581 58.0607 127.265 58.393 127.265 58.8494ZM131.608 58.5576V60.0197H131.159V58.6113C131.159 58.2976 131.1 57.9861 130.713 57.9861C130.487 57.9861 130.29 58.1243 130.164 58.3305V60.0197H129.712V57.6472H130.164V57.9444C130.341 57.747 130.572 57.6 130.843 57.6C131.396 57.6 131.608 58.0388 131.608 58.5576Z" fill="black"/>
</svg>
