<svg width="141" height="29" viewBox="0 0 141 29" fill="none" xmlns="http://www.w3.org/2000/svg">
<path d="M5.09669 19.2227C5.09669 20.8443 5.45259 22.0892 5.91778 22.8423C6.5277 23.8288 7.4374 24.2468 8.36483 24.2468C9.56103 24.2468 10.6553 23.9499 12.7642 21.0333C14.4536 18.6955 16.4444 15.4141 17.7838 13.3569L20.0522 9.8717C21.6279 7.45125 23.4518 4.76054 25.5429 2.9367C27.2501 1.4481 29.0916 0.621094 30.945 0.621094C34.0566 0.621094 37.0205 2.42425 39.2889 5.8061C41.7714 9.50989 42.9764 14.1751 42.9764 18.9894C42.9764 21.8514 42.4123 23.9544 41.4524 25.6158C40.525 27.2225 38.7174 28.8278 35.6766 28.8278V24.2468C38.2802 24.2468 38.93 21.8544 38.93 19.1164C38.93 15.2147 38.0203 10.8848 36.0163 7.79091C34.5942 5.5964 32.7511 4.25547 30.7235 4.25547C28.5304 4.25547 26.7657 5.90948 24.7823 8.85863C23.7279 10.4255 22.6454 12.335 21.43 14.4896L20.092 16.8599C17.4043 21.6255 16.7235 22.7109 15.3796 24.5023C13.0241 27.639 11.0127 28.8278 8.36483 28.8278C5.22369 28.8278 3.2374 27.4677 2.00723 25.4179C1.00301 23.7476 0.509766 21.5561 0.509766 19.0588L5.09669 19.2227Z" fill="#0081FB"/>
<path d="M4.12695 6.12952C6.22991 2.88797 9.26472 0.621094 12.7455 0.621094C14.7613 0.621094 16.7654 1.21772 18.858 2.92636C21.147 4.7945 23.5867 7.87065 26.6303 12.9405L27.7217 14.7599C30.3563 19.1489 31.8552 21.4069 32.7324 22.4717C33.8607 23.8392 34.6508 24.2468 35.6772 24.2468C38.2808 24.2468 38.9305 21.8544 38.9305 19.1164L42.977 18.9894C42.977 21.8514 42.4128 23.9544 41.4529 25.6158C40.5255 27.2225 38.7179 28.8278 35.6772 28.8278C33.7869 28.8278 32.1122 28.4172 30.2603 26.6702C28.8367 25.3293 27.1723 22.9472 25.8919 20.8059L22.0833 14.4438C20.1723 11.251 18.4194 8.87044 17.4048 7.79238C16.3135 6.6331 14.9105 5.23311 12.6717 5.23311C10.8597 5.23311 9.32084 6.50462 8.03307 8.44956L4.12695 6.12952Z" fill="url(#paint0_linear_2585_38108)"/>
<path d="M12.6712 5.23311C10.8591 5.23311 9.32032 6.50462 8.03255 8.44956C6.21167 11.1979 5.09669 15.2915 5.09669 19.2227C5.09669 20.8443 5.45259 22.0892 5.91778 22.8423L2.00723 25.4179C1.00301 23.7476 0.509766 21.5561 0.509766 19.0588C0.509766 14.5177 1.75618 9.78457 4.12643 6.12952C6.22939 2.88797 9.2642 0.621094 12.745 0.621094L12.6712 5.23311Z" fill="url(#paint1_linear_2585_38108)"/>
<path d="M51.8945 1.51562H57.2006L66.2224 17.8371L75.2456 1.51562H80.4365V28.3341H76.108V7.78017L68.1954 22.0135H64.1342L56.223 7.78017V28.3341H51.8945V1.51562ZM93.9994 11.515C90.8952 11.515 89.0256 13.8513 88.5781 16.7443H99.1135C98.8964 13.7641 97.1774 11.515 93.9994 11.515ZM84.2865 18.3924C84.2865 12.3051 88.2207 7.87468 94.0747 7.87468C99.8327 7.87468 103.271 12.2489 103.271 18.7173V19.9061H88.5781C89.0994 23.0531 91.1876 25.1738 94.5547 25.1738C97.241 25.1738 98.9201 24.3542 100.512 22.8552L102.811 25.6715C100.645 27.6637 97.8893 28.8126 94.4011 28.8126C88.0642 28.8126 84.2865 24.1917 84.2865 18.3924ZM108.519 11.8989H104.535V8.35464H108.519V2.49326H112.696V8.35464H118.749V11.8989H112.696V20.8822C112.696 23.9495 113.676 25.0394 116.086 25.0394C117.187 25.0394 117.817 24.9449 118.749 24.7898V28.2957C117.588 28.6236 116.481 28.7742 115.281 28.7742C110.773 28.7742 108.519 26.3109 108.519 21.3799V11.8989ZM136.335 15.3458C135.496 13.228 133.625 11.6686 130.875 11.6686C127.301 11.6686 125.014 14.2042 125.014 18.3348C125.014 22.362 127.119 25.0202 130.704 25.0202C133.521 25.0202 135.533 23.381 136.335 21.3415V15.3458ZM140.511 28.3341H136.411V25.5371C135.265 27.1837 133.18 28.8126 129.803 28.8126C124.371 28.8126 120.741 24.2656 120.741 18.3348C120.741 12.3479 124.458 7.87468 130.033 7.87468C132.789 7.87468 134.951 8.97637 136.411 10.9213V8.35464H140.511V28.3341Z" fill="#192830"/>
<defs>
<linearGradient id="paint0_linear_2585_38108" x1="9.51873" y1="17.8995" x2="38.7592" y2="19.3763" gradientUnits="userSpaceOnUse">
<stop stop-color="#0064E1"/>
<stop offset="0.4" stop-color="#0064E1"/>
<stop offset="0.83" stop-color="#0073EE"/>
<stop offset="1" stop-color="#0082FB"/>
</linearGradient>
<linearGradient id="paint1_linear_2585_38108" x1="7.15534" y1="21.1485" x2="7.15534" y2="10.3679" gradientUnits="userSpaceOnUse">
<stop stop-color="#0082FB"/>
<stop offset="1" stop-color="#0064E0"/>
</linearGradient>
</defs>
</svg>
