<svg width="141" height="47" viewBox="0 0 141 47" fill="none" xmlns="http://www.w3.org/2000/svg">
<path d="M140.157 40.1098H96.4961V28.9346H140.157V40.1098Z" fill="#E669A2"/>
<path d="M134.486 40.1095H96.4961V12.1592H134.486V40.1095Z" fill="#F3BE26"/>
<path d="M118.791 40.1128H96.4961V0.993164H118.791V40.1128Z" fill="#EE9C34"/>
<path d="M123.177 40.1188H96.4961V5.36426H123.177V40.1188Z" fill="#F3BC87"/>
<path d="M96.4902 5.36426V40.1086H118.788V5.36426H96.4902Z" fill="#E3721C"/>
<path d="M74.1406 40.1104H96.4969V45.6985H74.1406V40.1104Z" fill="#AD1B02"/>
<path d="M96.4902 12.1494V40.1023H123.19V12.1494H96.4902Z" fill="#E88D14"/>
<path d="M96.4902 12.1494V40.1023H118.788V12.1494H96.4902Z" fill="#D85604"/>
<path d="M110.438 40.1102H96.4961V23.334H110.438V40.1102Z" fill="#C14303"/>
<path d="M96.4902 28.9443V40.108H134.499V28.9443H96.4902Z" fill="#DB4E18"/>
<path d="M96.4902 28.9443V40.108H123.19V28.9443H96.4902Z" fill="#D1390D"/>
<path d="M96.4902 28.9443V40.108H118.788V28.9443H96.4902Z" fill="#C22303"/>
<path d="M96.4902 28.9443V40.108H110.452V28.9443H96.4902Z" fill="#AD1B02"/>
<path fill-rule="evenodd" clip-rule="evenodd" d="M62.3711 25.1511C65.8369 20.8399 67.1049 19.0648 67.1049 16.9515C67.1049 14.8382 65.4143 12.9785 63.0474 12.9785C61.6949 12.9785 60.4269 13.7393 59.8352 14.4156V23.2914L54.1716 30.8992V13.6548H48.7615L39.8012 28.4478V13.6548H36.758L28.5585 15.5145V17.6277L33.0386 18.0504V36.3937H38.7023L47.3245 22.1924V36.3937H53.6644L62.3711 25.1511ZM81.3908 15.5145C77.5868 16.1907 75.5581 19.0648 75.5581 24.0521C75.5581 29.124 78.2631 32.5053 82.2361 32.5053C84.1803 32.5053 85.871 31.829 89.4213 30.0539V34.1959C85.1102 36.2247 82.5742 36.7319 79.193 36.7319C75.389 36.7319 72.684 35.802 70.5707 33.5197C68.3729 31.3218 67.1895 28.4478 67.1895 25.151C67.1895 17.9659 72.5995 12.9785 80.4609 12.9785C85.6174 12.9785 89.2522 15.4299 89.2522 18.8957C89.2522 21.1781 87.5616 22.7842 85.1102 22.7842C83.8422 22.7842 82.8278 22.3615 81.3908 21.6007V15.5145ZM12.6669 33.5156H11.399V18.3C12.6669 18.0464 13.4277 17.9618 13.9349 17.9618C17.7388 17.9618 19.7676 20.4978 19.7676 25.147C19.7676 30.7261 17.2317 33.5156 12.6669 33.5156ZM15.1184 44.3357L11.399 43.4904V36.2206C11.5267 36.2277 11.6538 36.2348 11.78 36.2419C13.1576 36.3188 14.4285 36.3897 15.2029 36.3897C22.8107 36.3897 27.7981 31.4024 27.7981 24.1326C27.7981 17.7928 24.0787 13.2281 19.1759 13.2281C16.9781 13.2281 15.541 13.6507 11.399 16.1867V13.1436H9.03208L0.15625 15.8486V17.9618H3.87564V43.4904L0.494378 44.3357V46.449H15.1184V44.3357Z" fill="black"/>
</svg>
