<svg width="141" height="30" viewBox="0 0 141 30" fill="none" xmlns="http://www.w3.org/2000/svg">
<path d="M23.9934 23.8375C24.0155 23.8346 24.0465 23.8272 24.0671 23.8242L22.0169 29.3716H21.9078H13.9946H13.884L15.8634 24.6207H15.9312H15.9356C16.4858 24.6207 20.1998 24.5883 23.9993 23.8242L23.9934 23.8375ZM134.688 10.3726C134.688 16.6441 129.731 20.6796 121.565 20.6796H116.653V29.3716H94.4686L85.5126 17.5674V29.3716H64.1109L61.7598 22.8935C61.6079 22.864 59.2199 22.4157 56.3954 22.4157C53.5841 22.4157 51.0884 22.8552 50.9513 22.8803L48.5382 29.3716H37.6264L35.8462 24.4423C38.5188 25.1075 40.5675 26.2019 41.5897 26.8096L42.044 25.693C40.395 24.7151 35.7901 22.3847 29.1852 22.3847C24.073 22.3847 20.8222 23.6325 15.5094 23.6325C6.88231 23.6325 0.930836 19.4289 0.621094 19.2224L2.91319 13.619C3.5076 14.0069 9.24373 17.712 15.853 17.712C16.974 17.712 17.9357 17.6515 18.831 17.563L25.9949 0.0625782H27.0215H32.8741H37.9037L44.9939 18.4421L52.4985 0.0625782H64.4236L74.856 27.1119V0.0625782H89.1145C98.8079 0.0625782 103.557 4.51107 103.557 10.3726C103.557 16.2385 98.9407 18.5041 97.6589 19.0852L106.009 28.168V0.0625782H121.565C130.169 0.0625782 134.688 4.41815 134.688 10.3726ZM33.1853 17.0719L29.9139 8.04508L26.7088 16.6898C27.2516 16.6677 27.8312 16.6574 28.4566 16.6574C31.057 16.6574 32.9774 17.0306 33.1853 17.0719ZM59.6609 16.8875L56.3954 8.15866L53.0737 16.8875C53.2271 16.8654 55.0148 16.6589 56.3954 16.6589C57.8718 16.6589 59.5016 16.8624 59.6609 16.8875ZM92.6057 10.3726C92.6057 7.46542 91.1381 4.89308 87.079 4.89308H85.5126V15.8314H87.079C90.734 15.8314 92.6057 13.7576 92.6057 10.3726ZM123.736 10.3726C123.736 7.1837 122.044 4.89308 118.814 4.89308H116.653V15.8314H118.814C121.845 15.8314 123.736 13.7812 123.736 10.3726Z" fill="#EE2722"/>
<path d="M137.707 0.0636683C139.328 0.0636683 140.622 1.38229 140.622 3.03277C140.622 4.7098 139.328 6.01367 137.694 6.01367C136.072 6.01367 134.75 4.7098 134.75 3.03277C134.75 1.38229 136.072 0.0636683 137.694 0.0636683H137.707ZM137.694 0.526807C136.387 0.526807 135.316 1.6463 135.316 3.03277C135.316 4.44431 136.387 5.55348 137.707 5.55348C139.024 5.56676 140.081 4.44431 140.081 3.04605C140.081 1.6463 139.024 0.526807 137.707 0.526807H137.694ZM137.138 4.75995H136.611V1.44866C136.889 1.40884 137.151 1.37049 137.547 1.37049C138.048 1.37049 138.378 1.47521 138.578 1.62123C138.775 1.76578 138.881 1.98997 138.881 2.30709C138.881 2.7422 138.589 3.00622 138.234 3.11242V3.13897C138.524 3.19059 138.721 3.45314 138.787 3.9443C138.868 4.45759 138.945 4.65671 138.998 4.75995H138.443C138.367 4.65671 138.287 4.35286 138.221 3.91627C138.142 3.49296 137.929 3.33661 137.508 3.33661H137.138V4.75995ZM137.138 2.92657H137.521C137.957 2.92657 138.325 2.76728 138.325 2.36019C138.325 2.06962 138.113 1.77905 137.521 1.77905C137.349 1.77905 137.231 1.79233 137.138 1.8056V2.92657Z" fill="#EE2722"/>
</svg>
