<svg width="141" height="44" viewBox="0 0 141 44" fill="none" xmlns="http://www.w3.org/2000/svg">
<path d="M0.3125 28.9318L2.75924 26.1652C3.05319 26.9001 3.57193 27.5312 4.2463 27.9548C4.93795 28.3871 5.73336 28.6206 6.5547 28.6033C7.58642 28.6033 8.402 28.3612 9.00144 27.877C9.59799 27.4015 9.92653 26.6666 9.90059 25.9058C9.90059 24.9375 8.90345 23.9692 6.90918 23.0008C6.25787 22.6896 5.74489 22.436 5.37024 22.24C3.57193 21.3005 2.32695 20.3841 1.63529 19.4907C0.934991 18.5742 0.563226 17.4503 0.589163 16.2918C0.563226 14.6577 1.3154 13.1015 2.61226 12.1072C3.95523 11.0179 5.70166 10.4732 7.85156 10.4732C8.95821 10.4473 10.0649 10.6721 11.0764 11.1303C12.0274 11.6058 12.8488 12.3061 13.4713 13.1707L10.8776 15.6606C10.6095 15.0987 10.1773 14.6318 9.64987 14.3205C9.07925 14.0093 8.43947 13.8537 7.79969 13.8796C7.03886 13.8364 6.29533 14.0698 5.68149 14.528C5.17139 14.9344 4.87744 15.5655 4.89473 16.2226C4.89473 17.312 5.9495 18.3062 8.05906 19.2054C8.48558 19.3783 8.81123 19.5195 9.03602 19.629C10.7767 20.4187 12.0678 21.3178 12.9093 22.3265C13.7306 23.2775 14.1716 24.4965 14.1629 25.7588C14.1629 27.6955 13.5059 29.2344 12.1917 30.3756C10.8718 31.5169 9.10231 32.0904 6.88324 32.0961C5.49128 32.1307 4.10797 31.854 2.83705 31.2834C1.76498 30.7906 0.874471 29.9693 0.3125 28.9318Z" fill="#334750"/>
<path d="M26.7258 31.1364C26.1984 31.465 25.6192 31.7071 25.014 31.8627C24.3742 32.0183 23.7085 32.0961 23.0428 32.0961C20.8698 32.0961 19.1003 31.4045 17.7343 30.0212C16.3625 28.6378 15.6737 26.8395 15.668 24.6262C15.668 22.4648 16.3567 20.704 17.7343 19.3437C19.1118 17.9892 20.8957 17.3062 23.086 17.2947C23.7517 17.286 24.4088 17.3552 25.0572 17.5022C25.6451 17.6405 26.2071 17.8653 26.7258 18.1592L26.6826 22.1795C25.844 21.3063 24.6768 20.8221 23.4664 20.8308C22.4635 20.7789 21.4865 21.1593 20.7689 21.8596C20.0946 22.5513 19.7574 23.4648 19.7574 24.6003C19.7574 25.73 20.1003 26.6551 20.7862 27.3756C21.4779 28.0615 22.4087 28.4044 23.5788 28.4044C24.1753 28.413 24.7633 28.3007 25.2993 28.0499C25.8353 27.7906 26.3108 27.4188 26.6826 26.9606L26.7258 31.1364Z" fill="#334750"/>
<path d="M28.6094 12.0901C28.6267 10.8019 29.6642 9.76438 30.9524 9.76438C31.5749 9.75574 32.1801 9.99782 32.621 10.4474C33.0706 10.871 33.3299 11.4762 33.3213 12.0987C33.3299 12.7212 33.0706 13.3264 32.621 13.7587C32.1801 14.1996 31.5835 14.4504 30.9524 14.4417C30.3299 14.4417 29.7247 14.1823 29.301 13.7241C28.8601 13.2918 28.6094 12.6953 28.6094 12.0901ZM28.9638 17.7444H32.9582V31.5343H28.9638V17.7444Z" fill="#334750"/>
<path fill-rule="evenodd" clip-rule="evenodd" d="M49.2819 25.638H38.9243C39.0799 26.6352 39.4402 27.3787 40.005 27.8686C40.567 28.3614 41.3192 28.6035 42.2961 28.6035C42.9532 28.6294 43.6016 28.4825 44.1895 28.1885C44.7342 27.8859 45.1838 27.445 45.5037 26.9089L48.7458 28.5171C48.0887 29.641 47.1464 30.5747 46.0138 31.2145C44.838 31.8284 43.5238 32.131 42.201 32.0964C39.9704 32.0964 38.2038 31.4307 36.9012 30.0992C35.5986 28.7678 34.9473 26.9781 34.9473 24.7302C34.9473 22.563 35.6303 20.782 36.9963 19.3872C38.3566 17.9923 40.1001 17.2949 42.227 17.2949C44.423 17.2949 46.1579 17.9491 47.4317 19.2575C48.7055 20.5659 49.3424 22.3469 49.3424 24.6005C49.3424 24.7216 49.3424 24.8686 49.3424 24.9982C49.3424 25.1366 49.3164 25.3614 49.2819 25.638ZM45.3221 23.2259C45.2702 22.4737 44.9331 21.7648 44.3797 21.246C43.7659 20.7791 43.0051 20.5457 42.2356 20.5976C41.4661 20.5544 40.6967 20.7878 40.0828 21.2633C39.5036 21.7734 39.1404 22.4737 39.0453 23.2345L45.3221 23.2259Z" fill="#334750"/>
<path d="M51.2969 31.5429V17.753H55.2134V19.9231C55.8445 19.1018 56.6399 18.4274 57.5477 17.9346C59.2596 17.1132 61.2481 17.0787 63.0032 17.8308C63.7294 18.194 64.326 18.7732 64.715 19.4822C64.9312 19.8885 65.0868 20.3294 65.1646 20.7877C65.2683 21.5398 65.3116 22.292 65.2943 23.0529V31.5429H61.2827V24.7301C61.2827 23.0298 61.0867 21.9087 60.6948 21.3669C60.3057 20.8223 59.64 20.5542 58.6717 20.5542C58.1443 20.5456 57.6169 20.6666 57.1414 20.9001C56.6832 21.1249 56.2855 21.462 55.9829 21.877C55.7408 22.2142 55.5592 22.5946 55.4555 23.001C55.3258 23.6321 55.2739 24.2805 55.2912 24.929V31.5429H51.2969Z" fill="#334750"/>
<path d="M78.2367 31.1366C77.7007 31.4651 77.1301 31.7072 76.5249 31.8628C75.8764 32.0185 75.2194 32.0963 74.5536 32.0963C72.3807 32.0963 70.6112 31.4046 69.2452 30.0213C67.8734 28.638 67.1875 26.8397 67.1875 24.6264C67.1875 22.4649 67.8763 20.7041 69.2538 19.3438C70.6314 17.9893 72.4153 17.3092 74.6055 17.3035C75.2712 17.2948 75.937 17.364 76.5767 17.511C77.156 17.6493 77.718 17.8741 78.2367 18.1594L78.2108 22.1796C77.3635 21.3064 76.205 20.8223 74.9946 20.8309C73.9917 20.779 73.0147 21.1594 72.2971 21.8597C71.5968 22.5946 71.2337 23.5889 71.2769 24.6004C71.2769 25.759 71.6227 26.6841 72.3144 27.3757C73.0003 28.0674 73.9312 28.4103 75.107 28.4045C75.6949 28.4132 76.2828 28.3008 76.8275 28.0501C77.3635 27.7907 77.839 27.4189 78.2108 26.9607L78.2367 31.1366Z" fill="#334750"/>
<path fill-rule="evenodd" clip-rule="evenodd" d="M93.824 25.6379H83.4578C83.6192 26.635 83.9794 27.3786 84.5385 27.8685C85.1033 28.3642 85.8699 28.6091 86.8383 28.6034C87.4953 28.6293 88.1438 28.4823 88.723 28.1884C89.2763 27.8858 89.7259 27.4448 90.0458 26.9088L93.2966 28.5169C92.6309 29.6409 91.6971 30.5659 90.5646 31.2057C89.3887 31.8196 88.0832 32.1222 86.7518 32.0876C84.527 32.0876 82.7604 31.4219 81.452 30.0904C80.1494 28.759 79.498 26.9693 79.498 24.7214C79.498 22.56 80.1811 20.779 81.5471 19.3784C82.9131 17.9836 84.6595 17.2861 86.7864 17.2861C88.9766 17.2861 90.7087 17.9403 91.9825 19.2487C93.262 20.5571 93.9018 22.341 93.9018 24.6004C93.9018 24.7214 93.9018 24.8598 93.8845 24.9981C93.8672 25.1278 93.8586 25.3526 93.824 25.6379ZM89.8556 23.2344C89.8037 22.4822 89.4666 21.7733 88.9132 21.2632C88.308 20.7876 87.5472 20.5456 86.7777 20.5974C86.0083 20.5542 85.2388 20.7876 84.625 21.2632C84.0457 21.7733 83.6826 22.4736 83.5875 23.2344H89.8556Z" fill="#334750"/>
<path d="M140.313 21.7212C140.313 33.5745 130.707 43.1799 118.845 43.1799C106.992 43.1799 97.3867 33.5745 97.3867 21.7212C97.3867 9.86794 106.992 0.253906 118.845 0.253906C130.707 0.253906 140.313 9.86794 140.313 21.7212Z" fill="#6DBE4B"/>
<path fill-rule="evenodd" clip-rule="evenodd" d="M136.923 1.1273C137.588 1.1273 138.228 1.39532 138.704 1.87083C138.853 2.02069 138.983 2.18496 139.093 2.36363C139.205 2.55384 139.3 2.76134 139.361 2.96883C139.542 3.62591 139.447 4.32621 139.093 4.90547C138.876 5.28588 138.574 5.59713 138.202 5.82192C138.012 5.93719 137.81 6.02653 137.597 6.08994C137.156 6.20233 136.698 6.20233 136.257 6.08994C136.049 6.02077 135.851 5.93143 135.66 5.82192C135.289 5.60578 134.977 5.28588 134.752 4.91412C134.64 4.73256 134.554 4.52506 134.493 4.31757C134.372 3.87663 134.372 3.41841 134.493 2.97748C134.554 2.76998 134.64 2.56249 134.752 2.37228C134.865 2.19072 134.995 2.01781 135.15 1.87083C135.297 1.71521 135.47 1.57688 135.66 1.47313C135.842 1.36073 136.049 1.26563 136.257 1.20511C136.473 1.14459 136.706 1.11865 136.931 1.11865M136.931 5.9689C137.139 5.9689 137.343 5.94008 137.545 5.88244C137.741 5.83056 137.925 5.75275 138.098 5.649C138.271 5.54526 138.43 5.42422 138.574 5.28588C138.712 5.14179 138.833 4.98617 138.937 4.81902C139.041 4.64034 139.119 4.45301 139.17 4.25705C139.222 4.05819 139.248 3.84205 139.248 3.63455C139.257 3.32331 139.188 3.01206 139.067 2.72675C138.833 2.16478 138.392 1.72385 137.83 1.48177C137.26 1.23969 136.603 1.23969 136.023 1.48177C135.755 1.60281 135.505 1.77573 135.297 1.99187C135.081 2.20801 134.917 2.45874 134.796 2.7354C134.562 3.32331 134.562 3.97174 134.796 4.55964C134.917 4.83631 135.081 5.08703 135.297 5.29453C135.505 5.51067 135.747 5.68359 136.015 5.80463C136.3 5.92567 136.611 5.98619 136.923 5.98619L136.931 5.9689ZM136.845 2.10426C137.13 2.08697 137.415 2.15614 137.657 2.30311C137.839 2.45009 137.943 2.68353 137.925 2.91696C137.925 3.1331 137.848 3.3406 137.701 3.48758C137.528 3.65185 137.303 3.74695 137.07 3.77289C137.121 3.80747 137.173 3.8507 137.208 3.91122L138.202 5.19078H137.934C137.911 5.19078 137.891 5.1879 137.874 5.18214C137.851 5.17061 137.836 5.15332 137.83 5.13026L136.879 3.91122C136.862 3.8824 136.839 3.86222 136.81 3.8507C136.764 3.83341 136.718 3.82476 136.672 3.82476H136.283V5.19078H135.989V2.10426H136.845ZM136.802 3.60862C137.018 3.62591 137.242 3.56539 137.424 3.4357C137.571 3.31466 137.649 3.1331 137.632 2.95154C137.649 2.76998 137.58 2.59707 137.45 2.48467C137.268 2.36363 137.061 2.31176 136.845 2.3377H136.283V3.60862H136.802Z" fill="#334750"/>
<path d="M104.277 17.0527C104.407 16.093 104.709 15.1679 105.159 14.312C105.574 13.5598 106.119 12.8941 106.784 12.3494C107.441 11.822 108.194 11.433 109.006 11.1822C109.871 10.9142 110.779 10.7845 111.695 10.7845C112.629 10.7759 113.554 10.9229 114.444 11.2255C115.197 11.4848 115.897 11.8825 116.502 12.4013C117.617 13.3955 118.249 14.8221 118.24 16.3091C118.249 16.9143 118.179 17.5195 118.024 18.0988C117.894 18.583 117.678 19.0412 117.393 19.4475C117.107 19.8366 116.761 20.1651 116.364 20.4245C115.923 20.7098 115.447 20.926 114.955 21.0902C117.421 21.8972 118.649 23.5341 118.638 26.001C118.664 26.9952 118.456 27.9809 118.032 28.88C117.652 29.6841 117.099 30.4017 116.416 30.9723C115.715 31.5429 114.903 31.9665 114.038 32.2259C113.122 32.5112 112.171 32.6495 111.211 32.6495C110.286 32.6668 109.352 32.5458 108.453 32.2951C107.692 32.0789 106.983 31.7244 106.361 31.2403C105.73 30.7475 105.202 30.1423 104.804 29.4593C104.338 28.6725 103.957 27.8339 103.672 26.9607L105.462 26.2258C105.877 26.0356 106.335 25.9837 106.784 26.0702C107.165 26.1307 107.485 26.3728 107.658 26.7099C107.848 27.0731 108.058 27.4189 108.289 27.7474C108.496 28.05 108.747 28.3267 109.032 28.5601C109.309 28.7936 109.629 28.9751 109.966 29.0875C110.355 29.2258 110.761 29.295 111.168 29.2864C111.678 29.295 112.188 29.1999 112.663 29.0011C113.061 28.8368 113.416 28.5861 113.718 28.2748C113.995 27.9809 114.211 27.635 114.358 27.2546C114.496 26.9001 114.565 26.5197 114.574 26.1307C114.574 25.6897 114.531 25.2402 114.436 24.8079C114.349 24.4102 114.133 24.0557 113.831 23.7963C113.416 23.4678 112.931 23.243 112.413 23.1393C111.574 22.9663 110.727 22.8885 109.871 22.9145V20.0441C110.606 20.0614 111.349 19.9922 112.067 19.828C112.551 19.7156 113.009 19.5081 113.407 19.2055C113.718 18.9634 113.952 18.6262 114.081 18.2458C114.202 17.8567 114.272 17.4417 114.263 17.0267C114.263 16.093 114.021 15.3812 113.537 14.8913C113.047 14.3956 112.355 14.1477 111.462 14.1477C111.099 14.1477 110.727 14.1996 110.381 14.3206C109.75 14.5281 109.205 14.9345 108.825 15.4792C108.635 15.7385 108.496 16.0325 108.41 16.3437C108.289 16.7501 108.038 17.0959 107.692 17.3293C107.286 17.5023 106.836 17.5368 106.404 17.4331L104.277 17.0527Z" fill="white"/>
<path d="M134.028 11.0264V12.7642C134.037 13.1791 133.985 13.6028 133.855 14.0005C133.763 14.2714 133.654 14.5365 133.527 14.7959L125.746 31.0498C125.547 31.4216 125.279 31.7501 124.95 32.0095C124.553 32.2948 124.077 32.4331 123.593 32.4072H120.645L128.616 16.5337C128.8 16.1879 129.002 15.8507 129.221 15.5221C129.429 15.2109 129.659 14.9198 129.913 14.6489H120.048C119.806 14.6489 119.581 14.5452 119.408 14.3723C119.227 14.208 119.123 13.9832 119.123 13.7411V11.0264H134.028Z" fill="white"/>
</svg>
