<svg width="141" height="41" viewBox="0 0 141 41" fill="none" xmlns="http://www.w3.org/2000/svg">
<path d="M0.15625 20.7376V40.5191L8.18355 37.0789V17.2974L0.15625 20.7376Z" fill="#C2D62F"/>
<path d="M18.4102 4.39534V24.1769L26.533 20.7366V0.955078L18.4102 4.39534Z" fill="#C2D62F"/>
<path d="M9.23438 16.8149V36.5964L17.3572 24.5554V4.77393L9.23438 16.8149Z" fill="#C2D62F"/>
<path d="M41.6317 15.1894C41.6317 17.5785 42.3962 19.7764 46.2187 22.93L47.7477 24.2679C50.8058 26.7525 51.6658 28.0904 51.6658 30.2883C51.6658 32.3907 50.0413 34.5887 46.9832 34.5887C45.7409 34.5887 42.6829 34.302 42.1095 31.244C42.0139 30.7662 42.0139 30.2883 42.0139 30.0016C42.0139 29.8105 42.0139 29.3327 41.5361 29.3327C41.0583 29.3327 41.0583 29.9061 40.9628 30.0972V30.4795C40.8672 31.1484 40.8672 32.3907 40.8672 33.7286C40.8672 34.6842 40.8672 34.9709 41.5361 35.2576C42.874 35.9265 44.403 36.2132 46.3143 36.2132C48.4167 36.2132 50.2324 35.7354 51.6658 34.6842C53.9593 33.0597 54.7238 30.575 54.7238 28.7593C54.7238 26.0836 53.8638 23.7901 49.5634 20.4454L48.6078 19.6809C45.2631 17.0051 44.4986 15.8583 44.4986 14.0426C44.4986 11.7491 46.1232 10.3157 48.5122 10.3157C51.3791 10.3157 52.3348 11.4624 52.6215 12.0358C52.8126 12.4181 53.0037 13.2781 53.0037 13.6604C53.0037 13.9471 53.0993 14.3293 53.5771 14.3293C54.0549 14.3293 54.0549 13.6604 54.0549 13.2781C54.0549 11.4624 54.1505 10.3157 54.1505 9.83788V9.55119C54.1505 9.2645 53.9593 9.07338 53.5771 9.07338C53.386 9.07338 53.0993 9.07338 52.4303 8.88225C51.4747 8.69113 50.4235 8.5 49.1812 8.5C44.5942 8.78669 41.6317 11.3669 41.6317 15.1894Z" fill="#034932"/>
<path d="M83.8718 9.45165C83.8718 9.45165 74.6977 30.5711 74.6977 30.6666C74.6022 30.5711 65.1414 9.45165 65.1414 9.45165C65.0459 9.16497 64.8547 8.78271 64.4725 8.78271C63.9947 8.78271 63.8991 9.35609 63.8991 9.64278L61.6056 32.3867C61.51 33.6291 61.4145 34.7758 60.5544 34.8714C60.0766 34.9669 59.981 34.9669 59.5988 34.9669C59.3121 34.9669 59.0254 35.1581 59.0254 35.3492C59.0254 35.5403 59.121 35.9226 59.7899 35.9226C60.3633 35.9226 61.4145 35.827 61.7967 35.827C62.179 35.827 62.3701 35.827 62.3701 35.827C62.3701 35.827 62.7524 35.827 63.1346 35.827C63.5169 35.827 64.6636 35.9226 65.5237 35.9226C65.8104 35.9226 66.3838 35.9226 66.3838 35.3492C66.3838 35.1581 66.1926 34.9669 65.9059 34.9669C65.6193 34.9669 65.3326 34.9669 64.7592 34.7758C64.3769 34.6803 64.0902 34.3936 64.0902 33.9158C64.0902 33.3424 64.0902 32.6734 64.0902 32.1956C64.0902 32.1956 65.237 16.9056 65.3326 16.9056C65.237 16.9056 73.0732 34.2024 73.0732 34.2024C73.7421 35.5403 73.8377 35.827 74.2199 35.827C74.6022 35.827 74.7933 35.5403 75.2711 34.3936L83.0117 16.6189L84.4452 33.6291C84.4452 33.8202 84.4452 34.0113 84.4452 34.2024C84.4452 34.4891 84.4452 34.7758 84.3496 34.8714C84.0629 34.9669 84.0629 35.1581 84.0629 35.3492C84.0629 35.827 84.5408 35.9226 85.2097 35.9226C86.452 36.0181 89.8923 35.9226 90.5612 35.9226C91.4213 35.9226 91.5169 35.5403 91.5169 35.3492C91.5169 35.2536 91.5169 34.9669 91.039 34.9669C90.7524 34.9669 89.8923 34.9669 89.0322 34.6803C87.7899 34.2024 87.5988 32.3867 87.5032 31.24L85.2097 9.92947C85.2097 9.45165 85.1141 8.78271 84.5408 8.78271C84.1585 8.78271 83.9674 9.16497 83.8718 9.45165Z" fill="#034932"/>
<path d="M100.403 10.9812C100.403 10.8857 100.403 10.8857 100.594 10.8857C101.072 10.7901 101.741 10.6945 102.219 10.6945C105.468 10.6945 106.615 13.657 106.615 16.4283C106.615 17.6706 106.232 18.9129 105.468 19.773C104.799 20.5375 104.417 20.6331 102.505 20.6331C101.263 20.6331 100.69 20.5375 100.499 20.5375C100.499 20.5375 100.403 20.5375 100.403 20.4419C100.403 20.1553 100.403 10.9812 100.403 10.9812ZM100.116 9.26109H98.874H98.3962C97.6317 9.26109 96.1027 9.16553 94.9559 9.16553C94.7648 9.16553 94.1914 9.16553 94.1914 9.64334C94.1914 9.93003 94.3825 10.1212 94.6692 10.1212C94.9559 10.1212 95.5293 10.1212 95.816 10.2167C96.7716 10.4078 97.0583 10.7901 97.1539 11.9369C97.2494 12.988 97.2494 14.0392 97.2494 19.3908V25.5068C97.2494 28.7559 97.2494 31.5272 97.0583 32.9607C96.8672 34.0119 96.7716 34.5853 96.2938 34.6808C95.9115 34.7764 95.5293 34.7764 95.3382 34.7764C94.9559 34.7764 94.7648 34.9675 94.7648 35.2542C94.7648 35.8276 95.3382 35.8276 95.6249 35.8276C96.3894 35.8276 97.4406 35.732 98.2051 35.732H98.9696L100.307 35.8276C101.454 35.9231 103.079 36.0187 103.557 36.0187C109.482 36.0187 112.635 32.1006 112.635 28.2781C112.635 24.0733 109.29 21.5887 106.901 20.8242C108.621 19.6774 109.959 17.4795 109.959 14.7082C109.959 12.7014 108.43 9.26109 102.792 9.26109C101.741 9.26109 100.881 9.26109 100.116 9.26109ZM101.454 33.9163C100.499 33.4385 100.499 33.1518 100.403 31.5272V31.4317C100.403 30.9539 100.403 26.558 100.403 23.9778C100.403 23.9778 100.403 22.0665 100.403 21.971C101.836 21.971 102.697 21.971 102.983 22.0665C103.748 22.1621 104.608 22.2576 105.755 23.0221C108.717 25.029 109.004 28.3737 109.004 29.7115C109.004 34.203 104.894 34.3941 104.417 34.3941C104.13 34.3941 102.505 34.2986 101.454 33.9163Z" fill="#034932"/>
<path d="M121.045 12.7008C118.465 15.6632 117.605 19.6769 117.7 22.4482C117.796 26.8441 119.229 30.2844 121.905 32.769C124.677 35.2536 128.117 36.4004 132.799 36.3048C134.711 36.3048 137.291 35.9226 138.629 35.3492C139.298 35.0625 139.393 34.8714 139.584 34.2024C139.871 32.9601 140.158 29.9977 140.158 29.711C140.158 29.042 139.776 28.9465 139.68 28.9465C139.202 28.9465 139.202 29.4243 139.107 29.711C139.011 30.3799 138.629 31.8134 138.055 32.4823C136.909 33.9158 135.093 34.2024 132.704 34.298C129.55 34.3936 126.588 33.1513 124.39 30.7622C122.287 28.4687 121.141 25.4107 121.045 22.1615C120.95 19.1991 121.236 15.8544 123.625 13.2742C125.154 11.554 127.448 10.694 130.793 10.5984C133.659 10.5028 136.049 11.4585 137.1 12.3185C137.864 12.9875 138.342 14.1342 138.438 15.6632C138.438 16.0455 138.438 16.6189 138.915 16.6189C139.393 16.6189 139.393 16.0455 139.393 15.6632V14.4209C139.393 13.6564 139.393 12.7008 139.393 12.0319C139.393 11.2674 139.489 10.7895 139.489 10.5028V10.025C139.489 9.64278 139.298 9.45165 138.82 9.45165C137.864 9.45165 136.813 9.26053 135.666 9.0694H135.571C133.659 8.78272 131.653 8.78271 130.888 8.78271C126.492 8.78271 123.339 10.1206 121.045 12.7008Z" fill="#034932"/>
</svg>
