<svg width="121" height="39" viewBox="0 0 121 39" fill="none" xmlns="http://www.w3.org/2000/svg">
<path fill-rule="evenodd" clip-rule="evenodd" d="M76.9434 0.482422H79.7182V25.4493C79.6995 25.7868 79.7481 26.1247 79.8612 26.4433C79.9744 26.7618 80.1498 27.0546 80.3773 27.3047C80.6216 27.5348 80.9106 27.712 81.2264 27.8255C81.5423 27.9389 81.8781 27.9859 82.2129 27.9638C82.5698 27.958 82.9252 27.9171 83.2741 27.8419C83.6644 27.7667 84.0471 27.6564 84.4176 27.5123L84.9053 29.7566C84.2948 30.0014 83.6594 30.1794 83.0104 30.2871C82.3717 30.4117 81.7233 30.48 81.0726 30.4915C79.794 30.4915 78.7878 30.1311 78.0539 29.4105C77.3201 28.6899 76.95 27.6826 76.9434 26.3885V0.482422ZM0.158203 30.2642L12.2725 1.2998H14.5992L26.7168 30.2642H23.6553L19.905 21.2048H6.89096L3.1769 30.2642H0.158203ZM13.4589 4.64476L7.50063 18.9638H19.2492L13.4589 4.64476ZM40.2355 30.6693C38.5443 30.7013 36.8822 30.2261 35.4635 29.305C34.1067 28.4204 32.9658 27.2424 32.1252 25.8579V38.951H29.3438V9.00786H31.8319V13.1306C32.6951 11.8024 33.8534 10.6915 35.2164 9.88447C36.583 9.06239 38.1496 8.63253 39.7444 8.64206C41.151 8.62789 42.5413 8.94276 43.8045 9.56151C45.0232 10.1615 46.1117 10.9958 47.0078 12.0167C48.8441 14.1424 49.8568 16.8565 49.8617 19.6656C49.8702 21.1092 49.6363 22.5441 49.1696 23.9102C48.7345 25.1919 48.0639 26.3811 47.1923 27.4167C46.3487 28.4147 45.3074 29.2271 44.1341 29.8026C42.9218 30.3948 41.5878 30.695 40.2388 30.6792L40.2355 30.6693ZM39.4643 28.2339C40.5417 28.2481 41.6059 27.9956 42.5621 27.499C43.4786 27.0186 44.2898 26.3597 44.9481 25.5613C45.6201 24.7509 46.1394 23.8253 46.4805 22.8293C46.833 21.8118 47.0123 20.7424 47.011 19.6656C47.0155 18.549 46.8075 17.4418 46.3981 16.403C46.0083 15.3974 45.4412 14.4699 44.724 13.6644C44.0195 12.8782 43.1659 12.2397 42.2128 11.786C41.2382 11.3223 40.1711 11.0857 39.0919 11.0939C38.3382 11.1022 37.5923 11.2474 36.8905 11.5223C36.1237 11.8133 35.3972 12.2009 34.7286 12.6758C34.0661 13.1296 33.4799 13.6858 32.9919 14.3235C32.5395 14.9181 32.2417 15.6156 32.1252 16.3536V22.8919C32.4488 23.6493 32.8674 24.3624 33.3709 25.0142C33.8624 25.6542 34.4389 26.2241 35.0846 26.7081C35.7191 27.1815 36.4197 27.559 37.164 27.8286C37.9028 28.1 38.6838 28.2384 39.4709 28.2372L39.4643 28.2339ZM58.8338 29.8303C60.1543 30.3978 61.5786 30.6835 63.0158 30.6692V30.6923C64.0084 30.6943 64.9969 30.5646 65.9554 30.3067C66.8719 30.0614 67.7501 29.691 68.5655 29.206C69.3324 28.7463 70.0321 28.1829 70.6449 27.5319C71.2345 26.9087 71.7047 26.1826 72.0324 25.3898L69.6266 24.7307C69.3745 25.3117 69.022 25.8438 68.5852 26.3026C68.1376 26.7768 67.6224 27.1822 67.0561 27.5055C66.4646 27.8318 65.8347 28.0831 65.181 28.2536C64.5032 28.4443 63.8023 28.5408 63.0982 28.5403C62.0955 28.5464 61.1024 28.3444 60.1817 27.9471C59.2792 27.5613 58.4617 27.0014 57.7759 26.2993C57.0641 25.5687 56.4842 24.7202 56.0623 23.7914C55.6055 22.7944 55.3352 21.7221 55.2647 20.6277H73.4297C73.4656 20.4808 73.4866 20.3307 73.4923 20.1796C73.5055 19.9598 73.512 19.7401 73.512 19.5204C73.529 16.6984 72.4803 13.9738 70.5757 11.8913C69.0968 10.3018 67.1563 9.2166 65.0279 8.78854C62.8994 8.36049 60.6903 8.6112 58.7118 9.50535C57.4491 10.0713 56.3068 10.8746 55.3471 11.8715C54.389 12.8722 53.6345 14.0497 53.1259 15.3384C52.5908 16.6811 52.32 18.1146 52.3284 19.56C52.3178 21.0259 52.5886 22.4803 53.1259 23.8442C53.6368 25.1504 54.3905 26.348 55.3471 27.3737C56.3258 28.4262 57.5134 29.2629 58.8338 29.8303ZM70.055 15.4175C70.5141 16.3984 70.7836 17.4573 70.8493 18.5384L55.1922 18.5153C55.2617 17.4538 55.5148 16.4123 55.9403 15.4373C56.3363 14.5222 56.9034 13.6911 57.6111 12.9887C58.3106 12.3066 59.1353 11.7661 60.04 11.397C61.9237 10.6368 64.0288 10.6368 65.9126 11.397C66.8172 11.7661 67.6419 12.3066 68.3414 12.9887C69.0509 13.6913 69.6311 14.5135 70.055 15.4175ZM89.6016 0.482422H86.8301V26.3885C86.8323 27.6826 87.2003 28.6899 87.9341 29.4105C88.6679 30.1311 89.6741 30.4915 90.9528 30.4915C91.6034 30.48 92.2518 30.4117 92.8905 30.2871C93.5406 30.1793 94.177 30.0014 94.7888 29.7566L94.2977 27.5123C93.9273 27.6564 93.5445 27.7667 93.1542 27.8419C92.8053 27.9171 92.4499 27.958 92.093 27.9638C91.7587 27.9863 91.4233 27.9393 91.1079 27.8259C90.7926 27.7125 90.5041 27.535 90.2607 27.3047C90.0326 27.055 89.8568 26.7623 89.7436 26.4436C89.6304 26.125 89.5821 25.7869 89.6016 25.4493V0.482422ZM96.9141 9.00781H99.6889V30.2606H96.9141V9.00781ZM107.019 29.856C108.582 30.3966 110.224 30.6718 111.877 30.67C114.414 30.67 116.426 30.1087 117.911 28.986C118.634 28.4512 119.216 27.7484 119.607 26.9382C119.998 26.1281 120.186 25.235 120.155 24.336C120.181 23.5404 119.998 22.7518 119.625 22.0489C119.244 21.3947 118.704 20.8472 118.056 20.4572C117.243 19.9719 116.373 19.5889 115.466 19.3169C114.431 18.9852 113.235 18.6556 111.877 18.3283C110.921 18.1108 110.107 17.8998 109.448 17.6955C108.873 17.5304 108.32 17.2969 107.8 17.0002C107.409 16.7873 107.084 16.4702 106.861 16.084C106.653 15.6522 106.554 15.1756 106.574 14.6966C106.559 14.0796 106.7 13.4686 106.983 12.9203C107.251 12.4213 107.637 11.9949 108.107 11.6779C108.608 11.3409 109.166 11.0985 109.754 10.9628C110.423 10.809 111.108 10.7338 111.794 10.7387C112.997 10.735 114.19 10.9425 115.321 11.3516C116.409 11.7323 117.394 12.3607 118.198 13.1872L119.545 11.5395C118.639 10.6099 117.538 9.89198 116.322 9.43693C114.905 8.89156 113.396 8.62199 111.877 8.64271C110.839 8.63658 109.805 8.7741 108.805 9.05136C107.886 9.29783 107.021 9.71115 106.251 10.2707C105.531 10.8018 104.944 11.4935 104.538 12.2909C104.103 13.1643 103.887 14.13 103.908 15.1052C103.882 15.8291 104.029 16.5487 104.337 17.2045C104.641 17.7839 105.096 18.2702 105.655 18.6117C106.349 19.0448 107.095 19.3881 107.876 19.6333C108.775 19.9343 109.836 20.2331 111.059 20.5297C112.121 20.7735 113.05 21.0141 113.854 21.2448C114.552 21.4213 115.228 21.6778 115.868 22.0094C116.343 22.2607 116.756 22.6168 117.074 23.0507C117.358 23.4942 117.499 24.014 117.479 24.5403C117.508 25.129 117.381 25.7148 117.111 26.2389C116.842 26.763 116.439 27.2069 115.943 27.5261C114.924 28.2203 113.558 28.5674 111.844 28.5674C110.483 28.5778 109.133 28.3283 107.866 27.8325C106.542 27.293 105.31 26.5503 104.215 25.6311L102.949 27.5063C104.133 28.5573 105.517 29.3567 107.019 29.856Z" fill="#4C4D4F"/>
<path d="M101.439 3.64613C101.44 4.27278 101.255 4.88554 100.907 5.40685C100.559 5.92817 100.065 6.3346 99.486 6.57471C98.9071 6.81482 98.2701 6.87782 97.6554 6.75572C97.0408 6.63363 96.4762 6.33194 96.0331 5.88883C95.59 5.44571 95.2883 4.88111 95.1662 4.26646C95.0441 3.65182 95.1071 3.01477 95.3472 2.43594C95.5873 1.85711 95.9937 1.36253 96.515 1.01479C97.0363 0.667042 97.6491 0.481772 98.2758 0.482424C98.6912 0.482424 99.1026 0.564255 99.4865 0.723246C99.8703 0.882237 100.219 1.11527 100.513 1.40905C100.807 1.70283 101.04 2.05159 101.199 2.43543C101.358 2.81927 101.439 3.23066 101.439 3.64613Z" fill="#F2682B"/>
</svg>
