<svg width="151" height="33" viewBox="0 0 151 33" fill="none" xmlns="http://www.w3.org/2000/svg">
<path d="M68.5127 0.995117H0.354492V32.4386H68.5127V0.995117Z" fill="#3284BF"/>
<path d="M10.2477 19.6737C10.2046 19.1215 10.1934 18.5673 10.2143 18.0138L11.0049 9.04395H13.949L13.1422 18.0915C12.9683 20.0518 13.7387 21.4475 15.7 21.4475C16.1213 21.4553 16.54 21.3794 16.9317 21.2243C17.3233 21.0693 17.6802 20.838 17.9814 20.5441C18.2827 20.2502 18.5223 19.8995 18.6864 19.5124C18.8505 19.1252 18.9358 18.7094 18.9373 18.2891L19.7744 9.04395H22.7154L21.9036 18.1742C21.573 21.6885 19.2355 24.3235 15.4533 24.3235C14.1498 24.3758 12.8771 23.9195 11.9052 23.0514C10.9333 22.1834 10.3388 20.9718 10.2477 19.6737Z" fill="white"/>
<path d="M23.9124 16.6353C24.2966 12.3324 27.2103 8.75858 32.2401 8.75858C33.6126 8.73809 34.9598 9.12794 36.1082 9.87792L35.7725 13.4326C35.3389 12.8403 34.762 12.3672 34.0954 12.0576C33.4289 11.7479 32.6946 11.6117 31.961 11.6618C28.8299 11.6618 27.1122 13.8339 26.8665 16.5778C26.6279 19.2532 28.013 21.4233 31.0481 21.4233C31.8381 21.4268 32.62 21.2644 33.343 20.9469C34.066 20.6293 34.714 20.1635 35.2448 19.5799L34.9172 23.2314C33.6685 23.95 32.256 24.3375 30.8145 24.3568C25.8343 24.3568 23.5545 20.668 23.9124 16.6353Z" fill="white"/>
<path d="M38.4575 9.04395H41.3935L40.3238 21.2246H44.5296C44.8289 21.2246 45.8308 21.2085 46.1018 21.1934C46.0876 21.3426 45.8359 24.0078 45.8359 24.0078H37.125L38.4575 9.04395Z" fill="white"/>
<path d="M54.5133 8.35645L54.3091 8.35846L46.2695 24.0081H49.3885L50.5188 21.6333H56.1835L56.8912 24.0081H60.0051L54.5133 8.35645ZM53.7591 14.6308C53.8504 14.4279 53.9234 14.2173 53.9775 14.0016L54.024 13.9985C54.0419 14.2132 54.0791 14.4258 54.1352 14.6338C54.2959 15.3155 55.4404 19.1052 55.4404 19.1052H51.733C51.733 19.1052 53.7197 14.7286 53.7591 14.6308Z" fill="white"/>
<path d="M86.585 25.8962V25.1177C88.5019 25.1066 89.0903 24.6639 89.0903 23.2531V16.654H80.886V23.2531C80.886 24.6831 81.4976 25.1086 83.6086 25.1177V25.8962H75.749V25.1177C77.6659 25.1066 78.2533 24.6639 78.2533 23.2531V9.99951C78.2533 8.58772 77.6659 8.14503 75.749 8.13494V7.35645H83.554V8.13494C81.4865 8.14402 80.886 8.56957 80.886 9.99951V15.7757H89.0903V9.99951C89.0903 8.58772 88.4898 8.14503 86.5314 8.13494V7.35645H94.1727V8.13494C92.2972 8.14503 91.723 8.58772 91.723 9.99951V23.2531C91.723 24.6649 92.3225 25.1066 94.2829 25.1177V25.8962L86.585 25.8962Z" fill="#231F20"/>
<path d="M100.333 26.2239C97.0699 26.2239 94.416 23.2461 94.416 19.5885C94.416 15.929 97.0699 12.9521 100.333 12.9521C103.774 12.9521 106.005 15.4934 106.032 19.5351H97.2115V19.5059C97.2115 23.1694 98.7512 25.3446 101.231 25.3446C102.064 25.2922 102.872 25.0399 103.586 24.6092C104.3 24.1785 104.899 23.5822 105.332 22.8709L105.867 23.3288C105.298 24.2695 104.481 25.0368 103.505 25.5472C102.53 26.0576 101.433 26.2916 100.333 26.2239ZM100.278 13.7306C98.2437 13.7306 97.2115 15.3633 97.2115 18.5821V18.6558H103.401V18.5821C103.401 15.3633 102.35 13.7306 100.278 13.7306Z" fill="#231F20"/>
<path d="M111.143 26.224C109.269 26.224 107.377 25.2801 107.377 23.1725C107.377 20.5375 111.676 19.2256 114.245 18.441C114.675 18.3099 115.065 18.1909 115.387 18.081L115.436 18.0648V15.4863C115.436 14.1905 113.885 13.7306 112.558 13.7306C111.642 13.6934 110.736 13.9339 109.96 14.4204L109.803 14.5192L109.986 14.5535C110.31 14.6006 110.604 14.7674 110.81 15.0207C111.016 15.2741 111.118 15.5955 111.097 15.9209C111.097 16.3194 110.939 16.7016 110.656 16.9834C110.374 17.2652 109.991 17.4235 109.591 17.4235C109.192 17.4235 108.808 17.2652 108.526 16.9834C108.243 16.7016 108.085 16.3194 108.085 15.9209C108.085 14.3115 110.171 12.9521 112.641 12.9521C116.39 12.9521 117.85 13.9828 117.85 16.6268V23.1997C117.85 24.5399 118.172 24.794 118.767 24.794C119.473 24.794 119.785 23.7856 119.8 22.8921H120.519C120.496 24.438 119.77 26.0596 117.786 26.0596C116.309 26.0596 115.887 25.1863 115.654 23.6777L115.644 23.6162H115.577L115.559 23.6636C114.896 25.4101 113.425 26.224 111.143 26.224ZM115.346 18.8111C112.959 19.3889 110.171 20.8501 110.171 23.0646C110.133 23.3414 110.157 23.6232 110.24 23.89C110.323 24.1568 110.464 24.4021 110.653 24.6085C110.842 24.8148 111.074 24.9773 111.333 25.0843C111.592 25.1913 111.871 25.2402 112.151 25.2276C113.993 25.2276 115.436 23.478 115.436 21.2444V18.7899L115.346 18.8111Z" fill="#231F20"/>
<path d="M120.443 25.8961V25.1176C122.007 25.1085 122.512 24.809 122.512 23.9045V9.51036C122.512 8.60581 122.007 8.30631 120.443 8.29724V7.51672L124.926 7.3584V23.9045C124.926 24.8091 125.432 25.1086 126.997 25.1176V25.8961L120.443 25.8961Z" fill="#231F20"/>
<path d="M132.515 26.2224C130.2 26.2224 129.212 25.2533 129.212 22.9813V14.0559H127.225V13.2703C129.693 13.0475 130.067 12.3527 130.777 9.04004H131.626V13.1756H135.411V14.0559H131.626V23.9596C131.626 24.9579 132.139 25.444 133.196 25.444C133.654 25.444 135.155 25.1515 135.155 22.4379V21.9407H135.874V22.33C135.874 25.094 134.901 26.2224 132.515 26.2224Z" fill="#231F20"/>
<path d="M146.391 25.8961V16.898C146.391 14.2822 144.981 13.8919 144.14 13.8919C142.14 13.8919 140.747 16.3494 140.747 18.5548V23.9045C140.747 24.809 141.264 25.1085 142.871 25.1176V25.8961H136.398V25.1176C137.842 25.1075 138.331 24.7969 138.331 23.9045V9.51036C138.331 8.61791 137.842 8.30732 136.398 8.29724V7.51571L140.747 7.3584V15.6667H140.82L140.839 15.6234C141.15 14.8256 141.698 14.1419 142.41 13.6642C143.122 13.1865 143.963 12.9376 144.821 12.9511C146.309 12.9511 148.807 13.5864 148.807 17.849V23.9045C148.807 24.797 149.296 25.1075 150.74 25.1176V25.8961L146.391 25.8961Z" fill="#231F20"/>
</svg>
