<svg width="141" height="39" viewBox="0 0 141 39" fill="none" xmlns="http://www.w3.org/2000/svg">
<path fill-rule="evenodd" clip-rule="evenodd" d="M5.39951 33.5915H22.248V16.7823H5.39951V33.5915ZM0.158203 38.8188H27.4893V11.5522H0.158203V38.8188Z" fill="url(#paint0_linear_2585_38092)"/>
<path fill-rule="evenodd" clip-rule="evenodd" d="M16.3312 22.6843H33.1796V5.8751H16.3312V22.6843ZM11.0898 27.9115H38.4209V0.64502H11.0898V27.9115Z" fill="url(#paint1_linear_2585_38092)"/>
<path fill-rule="evenodd" clip-rule="evenodd" d="M62.6809 13.5602C61.9705 14.4347 61.1524 15.122 60.2189 15.6247C59.2854 16.1274 58.1185 16.3787 56.7208 16.3787C55.5437 16.3787 54.4717 16.1889 53.5023 15.8068C52.5303 15.4272 51.6968 14.8912 50.9967 14.2039C50.2965 13.5166 49.7554 12.6883 49.3733 11.7214C48.9912 10.7546 48.7988 9.67489 48.7988 8.48492C48.7988 7.31291 49.004 6.24348 49.4143 5.27664C49.8247 4.3098 50.3889 3.48657 51.107 2.80695C51.825 2.12991 52.679 1.59904 53.6664 1.21692C54.6538 0.837365 55.7283 0.64502 56.8849 0.64502C58.0057 0.64502 59.052 0.855318 60.0343 1.27334C61.0139 1.69137 61.8013 2.29148 62.3988 3.07367L60.301 4.72013C59.9086 4.16105 59.4059 3.7379 58.7904 3.45066C58.1749 3.16343 57.521 3.01725 56.8311 3.01725C56.0463 3.01725 55.3385 3.15574 54.7051 3.43528C54.069 3.71482 53.5279 4.0995 53.0817 4.5919C52.6354 5.0843 52.2892 5.66133 52.0482 6.32299C51.8045 6.98209 51.684 7.70273 51.684 8.48492C51.684 9.2466 51.8148 9.96212 52.0764 10.6315C52.3354 11.3008 52.6919 11.8881 53.1407 12.3882C53.5869 12.8883 54.1203 13.2858 54.7358 13.573C55.3513 13.8628 56.013 14.0065 56.7234 14.0065C57.5081 14.0065 58.2211 13.8526 58.8648 13.5474C59.506 13.2396 60.0727 12.7524 60.5574 12.083L62.6809 13.5602ZM69.1725 10.375H74.1811L71.6909 4.09946L69.1725 10.375ZM66.9336 15.9837H64.1074L70.4881 1.03223H72.9783L79.3308 15.9837H76.42L75.0197 12.5241H68.3595L66.9336 15.9837ZM86.9952 8.11712H84.7281H84.7255V3.26495H87.1054C88.0749 3.26495 88.8211 3.47012 89.3443 3.87532C89.8675 4.28053 90.1291 4.87294 90.1291 5.65001C90.1291 6.48093 89.8444 7.10155 89.2751 7.50675C88.7057 7.91452 87.9466 8.11712 86.9952 8.11712ZM87.2491 1.05942H82.043V15.9827H84.7281V10.3201H87.1644C88.8801 10.3201 90.2522 9.91745 91.278 9.10961C92.3039 8.30434 92.8168 7.14002 92.8168 5.61923C92.8168 4.15486 92.3218 3.02901 91.3344 2.24168C90.3471 1.45436 88.9827 1.05942 87.2491 1.05942ZM96.1348 15.9837H98.8199V1.03223H96.1348V15.9837ZM106.377 15.9854H109.065V3.26254H113.709V1.05957H101.789V3.26254H106.377V15.9854ZM118.167 10.375H123.175L120.685 4.09946L118.167 10.375ZM115.928 15.9837H113.102L119.482 1.03223H121.972L128.325 15.9837H125.414L124.014 12.5241H117.354L115.928 15.9837ZM140.159 13.7268H133.722V1.03467H131.037V15.9861H140.159V13.7268ZM60.6927 27.0194C60.2645 26.5373 59.7182 26.1552 59.0565 25.8756C58.3949 25.5961 57.6614 25.4576 56.8613 25.4576C56.0585 25.4576 55.3405 25.5961 54.707 25.8756C54.071 26.1552 53.5299 26.5398 53.0836 27.0322C52.6374 27.5246 52.2912 28.1068 52.0501 28.7761C51.8065 29.4455 51.6859 30.1636 51.6859 30.9253C51.6859 31.6869 51.8116 32.4025 52.0629 33.0718C52.3143 33.7412 52.6707 34.3284 53.1272 34.8285C53.5837 35.3286 54.1402 35.7261 54.7942 36.0134C55.4456 36.3006 56.174 36.4442 56.9767 36.4442C58.1512 36.4442 59.1591 36.2493 59.9977 35.8595V32.1768H56.8305V29.9738H62.6803V37.4726C61.8776 37.9009 60.9979 38.2343 60.0362 38.4651C59.0745 38.6959 58.0358 38.8139 56.9177 38.8139C55.7226 38.8139 54.6275 38.619 53.6273 38.2292C52.6297 37.8393 51.7757 37.2957 51.0679 36.5981C50.3575 35.9005 49.8035 35.0696 49.4009 34.1028C49.0008 33.1359 48.8008 32.0768 48.8008 30.9227C48.8008 29.7507 49.0059 28.6813 49.4163 27.7144C49.8266 26.7476 50.3857 25.9243 51.0935 25.2447C51.8013 24.5677 52.6451 24.0368 53.6248 23.6547C54.6044 23.2751 55.6713 23.0828 56.8279 23.0828C58.041 23.0828 59.136 23.27 60.1157 23.6419C61.0954 24.0137 61.9109 24.4984 62.5649 25.0909L60.6927 27.0194ZM71.6903 29.9185H69.3668V25.7075H71.857C72.2493 25.7075 72.6238 25.7383 72.9777 25.7921C73.329 25.846 73.6419 25.9537 73.9138 26.1101C74.183 26.2666 74.3985 26.4743 74.5575 26.7333C74.7165 26.9923 74.796 27.3155 74.796 27.7027C74.796 28.1284 74.7113 28.4798 74.5446 28.7568C74.3754 29.0312 74.1471 29.2569 73.8573 29.4338C73.5701 29.6108 73.2393 29.7364 72.8648 29.8082C72.4904 29.88 72.1006 29.9185 71.6903 29.9185ZM66.6816 38.4252H69.3642V32.1189H71.5107L74.9986 38.4252H78.1043L74.2164 31.724C75.1858 31.465 75.9706 30.9931 76.5758 30.3083C77.181 29.6236 77.4837 28.7337 77.4837 27.6412C77.4837 26.8641 77.34 26.205 77.0502 25.669C76.763 25.1305 76.3681 24.7047 75.8654 24.3893C75.3628 24.0764 74.7806 23.8482 74.1215 23.7097C73.4598 23.5712 72.7571 23.502 72.0134 23.502H66.6816V38.4252ZM93.18 30.9229C93.18 30.1407 93.0595 29.4201 92.8159 28.761C92.5722 28.0993 92.2234 27.5223 91.7669 27.0299C91.3104 26.5375 90.7591 26.1528 90.1154 25.8733C89.4716 25.5937 88.7484 25.4552 87.9483 25.4552C87.1635 25.4552 86.4557 25.5937 85.8222 25.8733C85.1888 26.1528 84.6477 26.5375 84.1989 27.0299C83.7501 27.5223 83.4064 28.0993 83.1628 28.761C82.9191 29.4201 82.7986 30.1407 82.7986 30.9229C82.7986 31.7025 82.9191 32.4335 83.1628 33.1131C83.4064 33.7901 83.7501 34.3774 84.1989 34.8698C84.6451 35.3622 85.1862 35.7494 85.8222 36.029C86.4557 36.306 87.1661 36.447 87.9483 36.447C88.751 36.447 89.4742 36.3085 90.1154 36.029C90.7591 35.7494 91.3079 35.3622 91.7669 34.8698C92.2234 34.3774 92.5748 33.7901 92.8159 33.1131C93.0595 32.4335 93.18 31.7051 93.18 30.9229ZM96.0626 30.9229C96.0626 32.0744 95.8574 33.1336 95.4471 34.103C95.0368 35.0698 94.4674 35.9033 93.7391 36.5983C93.0108 37.2959 92.1542 37.8396 91.1643 38.2294C90.1743 38.6192 89.1023 38.8141 87.9457 38.8141C86.807 38.8141 85.7479 38.6192 84.7708 38.2294C83.7911 37.8396 82.9422 37.2959 82.2241 36.5983C81.5061 35.9008 80.9418 35.0698 80.5315 34.103C80.1212 33.1361 79.916 32.077 79.916 30.9229C79.916 29.7509 80.1212 28.6815 80.5315 27.7146C80.9418 26.7478 81.5061 25.9246 82.2241 25.2449C82.9422 24.5679 83.7911 24.037 84.7708 23.6549C85.7504 23.2754 86.807 23.083 87.9457 23.083C89.1023 23.083 90.1743 23.2754 91.1643 23.6549C92.1516 24.037 93.0108 24.5653 93.7391 25.2449C94.4674 25.9246 95.0342 26.7478 95.4471 27.7146C95.8574 28.6815 96.0626 29.7509 96.0626 30.9229ZM102.805 38.3568C103.569 38.662 104.436 38.8159 105.408 38.8159C106.377 38.8159 107.249 38.6646 108.014 38.3568C108.778 38.0491 109.422 37.6311 109.945 37.1002C110.465 36.5693 110.868 35.941 111.148 35.2178C111.427 34.492 111.568 33.7021 111.568 32.8456V23.4746H108.883V32.6532C108.883 33.1533 108.821 33.6278 108.701 34.074C108.58 34.5202 108.38 34.9203 108.101 35.2742C107.819 35.6256 107.46 35.9051 107.021 36.1103C106.583 36.3154 106.047 36.418 105.413 36.418C104.78 36.418 104.244 36.3154 103.805 36.1103C103.367 35.9051 103.01 35.6281 102.741 35.2742C102.469 34.9203 102.272 34.5228 102.151 34.074C102.028 33.6278 101.969 33.1533 101.969 32.6532V23.4746H99.2812V32.8456C99.2812 33.7021 99.4146 34.492 99.6865 35.2178C99.9557 35.941 100.351 36.5693 100.874 37.1002C101.394 37.6311 102.038 38.0491 102.805 38.3568ZM118.086 30.5572H120.351C121.302 30.5572 122.064 30.3546 122.631 29.9468C123.2 29.5416 123.485 28.921 123.485 28.0901C123.485 27.313 123.223 26.7206 122.7 26.3154C122.177 25.9102 121.43 25.705 120.461 25.705H118.084V30.5572H118.086ZM115.398 23.4995H120.605C122.338 23.4995 123.7 23.8945 124.69 24.6818C125.677 25.4691 126.172 26.595 126.172 28.0593C126.172 29.5801 125.659 30.7444 124.633 31.5497C123.608 32.3575 122.236 32.7602 120.52 32.7602H118.086V38.4228H115.398V23.4995ZM131.432 25.8445C131.291 25.9035 131.144 25.9343 130.988 25.9343V25.9317H130.557V25.0828H131.047C131.188 25.0828 131.321 25.111 131.45 25.1649C131.578 25.2213 131.642 25.3265 131.642 25.4906C131.642 25.6676 131.573 25.7881 131.432 25.8445ZM131.07 24.634H130.021V27.6089H130.557V26.3651H130.942L131.642 27.6089H132.293L131.488 26.3061C131.698 26.26 131.865 26.1702 131.991 26.0343C132.116 25.8984 132.178 25.7214 132.178 25.5034C132.178 25.3419 132.145 25.2059 132.083 25.0982C132.022 24.9879 131.94 24.8982 131.834 24.8289C131.729 24.7623 131.611 24.711 131.478 24.6802C131.347 24.6494 131.211 24.634 131.07 24.634ZM128.993 26.9909C128.877 26.719 128.818 26.4344 128.818 26.1317C128.818 25.8214 128.877 25.5316 128.993 25.2598C129.111 24.9879 129.27 24.752 129.472 24.5494C129.675 24.3468 129.911 24.1878 130.183 24.0724C130.455 23.9544 130.747 23.898 131.057 23.898C131.368 23.898 131.66 23.9544 131.932 24.0724C132.204 24.1904 132.44 24.3468 132.642 24.5494C132.845 24.752 133.004 24.9879 133.122 25.2598C133.24 25.5316 133.296 25.8214 133.296 26.1317C133.296 26.4318 133.237 26.719 133.122 26.9909C133.004 27.2627 132.845 27.5012 132.642 27.7064C132.44 27.9116 132.204 28.0706 131.932 28.1885C131.66 28.3065 131.368 28.3629 131.057 28.3629C130.747 28.3629 130.455 28.3039 130.183 28.1885C129.911 28.0706 129.672 27.9116 129.472 27.7064C129.27 27.4987 129.108 27.2602 128.993 26.9909ZM128.611 25.1008C128.47 25.4239 128.4 25.7676 128.4 26.1317C128.4 26.4959 128.47 26.837 128.611 27.155C128.752 27.473 128.942 27.75 129.183 27.9859C129.424 28.2244 129.703 28.4091 130.026 28.545C130.349 28.6809 130.696 28.7476 131.06 28.7476C131.427 28.7476 131.77 28.6809 132.093 28.545C132.414 28.4091 132.696 28.2219 132.937 27.9859C133.178 27.75 133.368 27.473 133.509 27.155C133.65 26.837 133.719 26.4959 133.719 26.1317C133.719 25.7676 133.65 25.4214 133.509 25.1008C133.368 24.7802 133.178 24.5007 132.937 24.2647C132.696 24.0288 132.417 23.839 132.093 23.7005C131.77 23.562 131.427 23.4902 131.06 23.4902C130.693 23.4902 130.349 23.562 130.026 23.7005C129.706 23.839 129.424 24.0288 129.183 24.2647C128.942 24.5007 128.752 24.7802 128.611 25.1008Z" fill="#1A1919"/>
<defs>
<linearGradient id="paint0_linear_2585_38092" x1="20.8259" y1="8.80501" x2="6.87859" y2="41.5867" gradientUnits="userSpaceOnUse">
<stop stop-color="#0091C8"/>
<stop offset="1" stop-color="#00578A"/>
</linearGradient>
<linearGradient id="paint1_linear_2585_38092" x1="31.7581" y1="-2.10223" x2="17.8108" y2="30.6794" gradientUnits="userSpaceOnUse">
<stop stop-color="#A1C3CC"/>
<stop offset="1" stop-color="#647980"/>
</linearGradient>
</defs>
</svg>
