<svg width="141" height="47" viewBox="0 0 141 47" fill="none" xmlns="http://www.w3.org/2000/svg">
<path d="M34.9407 16.8952H18.7248V21.7069H30.2262C29.6563 28.4419 24.0442 31.3328 18.7443 31.3328C17.0653 31.3402 15.4016 31.013 13.8505 30.3704C12.2993 29.7277 10.8917 28.7825 9.70981 27.5899C8.52794 26.3973 7.5955 24.9812 6.96691 23.4243C6.33833 21.8674 6.0262 20.2009 6.04875 18.522C6.04875 11.2378 11.688 5.62961 18.7598 5.62961C24.2152 5.62961 27.4299 9.10722 27.4299 9.10722L30.7974 5.61796C30.7974 5.61796 26.4714 0.803711 18.5837 0.803711C8.53942 0.803711 0.769531 9.28077 0.769531 18.4365C0.769531 27.4083 8.07833 36.1574 18.8375 36.1574C28.3015 36.1574 35.2295 29.6736 35.2295 20.0866C35.2295 18.0635 34.9355 16.8952 34.9355 16.8952H34.9407Z" fill="#4885ED"/>
<path d="M48.2244 13.41C41.5697 13.41 36.8008 18.6128 36.8008 24.6782C36.8008 30.8356 41.4246 36.1342 48.3021 36.1342C54.5268 36.1342 59.626 31.377 59.626 24.8103C59.626 17.2982 53.694 13.4087 48.2244 13.4087V13.41ZM48.2892 17.8732C51.5608 17.8732 54.6615 20.5193 54.6615 24.7818C54.6615 28.9524 51.5738 31.6749 48.2736 31.6749C44.6471 31.6749 41.7977 28.771 41.7977 24.7481C41.7977 20.8107 44.6212 17.8732 48.2995 17.8732H48.2892Z" fill="#DB3236"/>
<path d="M73.0682 13.41C66.4134 13.41 61.6445 18.6128 61.6445 24.6782C61.6445 30.8356 66.2684 36.1342 73.1459 36.1342C79.3706 36.1342 84.4698 31.377 84.4698 24.8103C84.4698 17.2982 78.5378 13.4087 73.0682 13.4087V13.41ZM73.1329 17.8732C76.4046 17.8732 79.5053 20.5193 79.5053 24.7818C79.5053 28.9524 76.4176 31.6749 73.1174 31.6749C69.4908 31.6749 66.6414 28.771 66.6414 24.7481C66.6414 20.8107 69.4649 17.8732 73.1433 17.8732H73.1329Z" fill="#F4C20D"/>
<path d="M97.4355 13.4229C91.3273 13.4229 86.5273 18.772 86.5273 24.7765C86.5273 31.6152 92.0928 36.151 97.3293 36.151C100.567 36.151 102.29 34.8648 103.546 33.3896V35.6303C103.546 39.5509 101.166 41.8991 97.5728 41.8991C94.1017 41.8991 92.3609 39.3177 91.7444 37.8542L87.377 39.6674C88.926 42.9443 92.0449 46.3597 97.609 46.3597C103.696 46.3597 108.31 42.535 108.31 34.5125V14.1054H103.564V16.0301C102.101 14.4499 100.096 13.4229 97.4381 13.4229H97.4355ZM97.8759 17.8783C100.87 17.8783 103.945 20.435 103.945 24.8012C103.945 29.2398 100.876 31.6851 97.8098 31.6851C94.5537 31.6851 91.5242 29.0429 91.5242 24.8426C91.5242 20.4804 94.6715 17.8783 97.8759 17.8783Z" fill="#4885ED"/>
<path d="M129.52 13.396C123.759 13.396 118.922 17.981 118.922 24.7419C118.922 31.8992 124.314 36.1435 130.061 36.1435C134.868 36.1435 137.832 33.5143 139.58 31.157L135.652 28.5433C134.633 30.1235 132.928 31.6712 130.085 31.6712C126.891 31.6712 125.422 29.9227 124.512 28.226L139.747 21.9054L138.97 20.0533C137.499 16.4268 134.064 13.396 129.52 13.396ZM129.719 17.766C131.795 17.766 133.288 18.8695 133.923 20.1932L123.748 24.4453C123.307 21.1529 126.429 17.766 129.706 17.766H129.719Z" fill="#DB3236"/>
<path d="M111.646 35.4699H116.651V1.97998H111.646V35.4699Z" fill="#3CBA54"/>
</svg>
