<svg width="115" height="110" viewBox="0 0 115 110" fill="none" xmlns="http://www.w3.org/2000/svg">
<g filter="url(#filter0_d_2264_20969)">
<path d="M65.3132 80.3208C66.7058 80.3208 67.6039 80.4938 71.4913 78.6876C74.4814 77.3763 77.3237 74.8841 78.9317 72.166C79.1664 71.7665 79.262 71.671 79.4011 71.7057C80.8179 72.0878 84.8684 72.192 86.7893 71.8968C91.7873 71.1413 96.2898 68.8227 99.7579 65.2102C104.904 59.8609 107.12 52.2625 105.651 44.9593C104.26 38.0643 99.7752 32.22 93.4822 29.1199C90.3618 27.5828 87.1805 26.8447 83.6602 26.836C80.7136 26.836 78.106 27.3136 75.5331 28.3383C75.0377 28.5294 74.6031 28.6596 74.577 28.6249C74.5422 28.5815 74.2554 28.156 73.9338 27.6697C71.5 23.9356 67.7711 21.148 63.6337 19.9584C57.4015 18.1695 50.7956 19.7586 46.0323 24.1874L45.337 24.83L44.7025 24.0745C42.034 20.8875 38.166 18.5168 34.0721 17.5269C33.5679 17.414 32.7682 17.249 32.2902 17.1795C31.2645 17.0145 28.344 16.945 27.2923 17.0492C23.433 17.4487 19.7302 18.951 16.6445 21.3738C15.7927 22.0425 13.9587 23.9008 13.3242 24.7345C10.8643 27.9823 9.48226 31.5253 9.11718 35.5025C8.83906 38.5679 9.41274 42.1457 10.6383 45.0201C10.6817 45.133 10.5862 45.2372 10.2385 45.4456C6.54436 47.7121 3.65859 51.7154 2.57208 56.0921C2.18964 57.6204 1.96182 58.0894 2.00528 60.7727C2.03134 62.9263 2.25916 63.4039 2.41564 64.0813C2.8937 66.1741 3.90195 68.5448 5.00585 70.1947C7.79601 74.363 11.2124 77.0898 15.5529 78.206C17.2515 78.4772 19.4584 78.5433 20.9244 78.401" stroke="#373742" stroke-width="2.5" stroke-linecap="round"/>
<path d="M22.9521 80.3899C25.4801 83.8332 28.8359 86.755 33.6195 87.9028C41.2032 89.7224 47.3285 89.6243 55.1068 84.9376C56.3263 85.5297 57.8554 86.1912 59.6376 86.8984C61.5238 87.5678 63.026 87.9417 64.4406 86.6593C65.6125 85.5971 65.3204 83.4657 65.2152 80.2028C65.058 76.2003 64.8758 71.956 64.7809 69.1554C64.3434 65.3932 65.0911 58.5278 61.5724 56.5295C57.6821 54.3203 50.8936 60.1005 47.0369 62.6033C41.8352 65.951 35.4547 69.4091 35.1751 71.1162C34.8505 73.0978 36.6092 74.1529 37.4843 74.5834C38.3593 75.0138 40.2795 75.3245 40.3768 76.1616C40.474 76.9987 37.3627 78.1463 35.1751 78.242C32.9875 78.3376 30.6216 77.8755 29.0498 77.3813" stroke="#373742" stroke-width="2.5" stroke-linecap="round"/>
</g>
<defs>
<filter id="filter0_d_2264_20969" x="0.75" y="0" width="114.25" height="114" filterUnits="userSpaceOnUse" color-interpolation-filters="sRGB">
<feFlood flood-opacity="0" result="BackgroundImageFix"/>
<feColorMatrix in="SourceAlpha" type="matrix" values="0 0 0 0 0 0 0 0 0 0 0 0 0 0 0 0 0 0 127 0" result="hardAlpha"/>
<feOffset dx="4" dy="4"/>
<feComposite in2="hardAlpha" operator="out"/>
<feColorMatrix type="matrix" values="0 0 0 0 1 0 0 0 0 0.815686 0 0 0 0 0.847059 0 0 0 1 0"/>
<feBlend mode="normal" in2="BackgroundImageFix" result="effect1_dropShadow_2264_20969"/>
<feBlend mode="normal" in="SourceGraphic" in2="effect1_dropShadow_2264_20969" result="shape"/>
</filter>
</defs>
</svg>
