<svg width="110" height="110" viewBox="0 0 110 110" fill="none" xmlns="http://www.w3.org/2000/svg">
<g filter="url(#filter0_d_13582_72549)">
<path fill-rule="evenodd" clip-rule="evenodd" d="M39.7566 39.6057L33.3538 41.9902L33.5065 40.1096C22.5133 41.7168 13.6812 50.7294 12.7438 62.2749C12.4737 65.6009 12.8842 68.8252 13.8587 71.8106L11.9269 72.7262C10.8062 69.4092 10.3281 65.8145 10.6294 62.1032C11.6621 49.3845 21.509 39.4937 33.6823 37.9441L33.8223 36.2196L36.4834 37.738C36.6459 37.7347 36.8087 37.7329 36.9719 37.7325L36.9498 38.0042L39.7566 39.6057ZM41.561 38.1174L41.3886 40.241C53.6099 42.4307 62.3969 53.5933 61.3714 66.2232C61.2457 67.7717 60.9779 69.2746 60.582 70.7202L58.7773 69.9534L59.0266 76.926L64.2187 72.2654L62.5512 71.5569C63.0237 69.9018 63.3412 68.1761 63.4858 66.3949C64.6062 52.5964 54.9513 40.4092 41.561 38.1174ZM35.0834 88.5629C44.308 89.3118 52.7499 84.8263 57.4847 77.5914L59.5356 78.3234C54.4452 86.4381 45.1194 91.5061 34.9118 90.6773C26.7243 90.0125 19.7087 85.6952 15.3357 79.456L17.2828 78.5332C21.3185 84.1147 27.6803 87.9618 35.0834 88.5629Z" fill="#373742"/>
<path fill-rule="evenodd" clip-rule="evenodd" d="M47.7034 13.868L55.2108 10.3565L47.7034 6.84497V9.493C25.4174 12.5794 8.25781 31.7067 8.25781 54.8419C8.25781 61.2726 9.58362 67.3937 11.9768 72.9467L13.8276 71.8781C11.6073 66.6435 10.3792 60.8861 10.3792 54.8419C10.3792 32.8804 26.5931 14.7059 47.7034 11.6359V13.868ZM58.1393 11.3689V9.23863C81.5056 11.311 99.826 30.937 99.826 54.8419C99.826 59.0512 99.258 63.1278 98.1944 66.9992L100.8 67.8649L95.1007 73.8823L94.1352 65.6507L96.1778 66.3293C97.1733 62.669 97.7047 58.8175 97.7047 54.8419C97.7047 32.1094 80.3322 13.4343 58.1393 11.3689ZM92.592 75.3623C85.2466 89.1327 70.7387 98.5047 54.0419 98.5047C39.9903 98.5047 27.4889 91.8669 19.5024 81.556L21.4547 80.4288L14.66 75.683L15.3726 83.9403L17.649 82.626C26.0152 93.5679 39.2043 100.626 54.0419 100.626C71.7248 100.626 87.0663 90.6015 94.6934 75.9253L92.592 75.3623Z" fill="#2F2F39"/>
</g>
<defs>
<filter id="filter0_d_13582_72549" x="7.92236" y="6" width="94.9999" height="97.767" filterUnits="userSpaceOnUse" color-interpolation-filters="sRGB">
<feFlood flood-opacity="0" result="BackgroundImageFix"/>
<feColorMatrix in="SourceAlpha" type="matrix" values="0 0 0 0 0 0 0 0 0 0 0 0 0 0 0 0 0 0 127 0" result="hardAlpha"/>
<feOffset dx="1.84466" dy="2.76699"/>
<feComposite in2="hardAlpha" operator="out"/>
<feColorMatrix type="matrix" values="0 0 0 0 1 0 0 0 0 0.815686 0 0 0 0 0.847059 0 0 0 1 0"/>
<feBlend mode="normal" in2="BackgroundImageFix" result="effect1_dropShadow_13582_72549"/>
<feBlend mode="normal" in="SourceGraphic" in2="effect1_dropShadow_13582_72549" result="shape"/>
</filter>
</defs>
</svg>
