<svg width="151" height="39" viewBox="0 0 151 39" fill="none" xmlns="http://www.w3.org/2000/svg">
<path d="M0.667969 0.993164H150.087V37.7964H0.667969V0.993164Z" fill="#286EBD"/>
<path d="M37.4785 26.4849H150.094V37.8046H37.4785V26.4849Z" fill="#FAB805"/>
<path d="M43.0859 29.7383H43.8293V34.8931H43.0859V29.7383Z" fill="#1E1C1C"/>
<path d="M49.1211 29.7383H50.1311L52.4015 33.8913H52.4096V29.7383H53.1529V34.8931H52.2076L49.8725 30.6432H49.8564V34.8931H49.1211V29.7383Z" fill="#1E1C1C"/>
<path d="M59.473 30.3847H57.873V29.7383H61.8161V30.3847H60.2081V34.8931H59.473V30.3847Z" fill="#1E1C1C"/>
<path d="M66.5742 29.7383H69.4588V30.3847H67.3176V31.8875H69.2648V32.55H67.3176V34.2468H69.4588V34.8931H66.5742V29.7383Z" fill="#1E1C1C"/>
<path d="M74.5898 29.7383H75.8584C76.8765 29.7383 77.8542 29.8999 77.8542 31.128C77.8542 31.7582 77.3936 32.2026 76.7958 32.3076V32.3157C77.0138 32.4046 77.127 32.5177 77.2885 32.8409L78.2662 34.8931H77.4178L76.6341 33.0995C76.4078 32.5985 76.1575 32.5985 75.7777 32.5985H75.3252V34.8931H74.5898V29.7383ZM75.3252 31.9521H75.9554C76.6502 31.9521 77.0705 31.637 77.0705 31.1442C77.0705 30.6755 76.7149 30.3847 76.0363 30.3847H75.3252V31.9521Z" fill="#1E1C1C"/>
<path d="M83.1289 29.7383H84.1228L86.3933 33.8913H86.4175V29.7383H87.1528V34.8931H86.2154L83.8723 30.6432H83.8642V34.8931H83.1289V29.7383Z" fill="#1E1C1C"/>
<path d="M94.0847 29.7383H94.8603L97.0338 34.8931H96.234L95.7088 33.5842H93.1797L92.6626 34.8931H91.8789L94.0847 29.7383ZM94.4483 30.425L93.4141 32.9783H95.4664L94.4483 30.425Z" fill="#1E1C1C"/>
<path d="M102.254 30.3847H100.646V29.7383H104.589V30.3847H102.99V34.8931H102.254V30.3847Z" fill="#1E1C1C"/>
<path d="M109.316 29.7383H110.052V34.8931H109.316V29.7383Z" fill="#1E1C1C"/>
<path d="M117.574 29.6558C119.134 29.6558 120.055 30.7869 120.055 32.3221C120.055 33.8815 119.142 34.9884 117.574 34.9884C115.999 34.9884 115.094 33.8815 115.094 32.3221C115.094 30.7869 115.999 29.6558 117.574 29.6558ZM117.574 34.3339C118.762 34.3339 119.271 33.3482 119.271 32.3221C119.271 31.2717 118.705 30.3021 117.574 30.3021C116.435 30.3021 115.869 31.2717 115.869 32.3221C115.869 33.3482 116.387 34.3339 117.574 34.3339Z" fill="#1E1C1C"/>
<path d="M125.08 29.7383H126.082L128.36 33.8913H128.377V29.7383H129.112V34.8931H128.158L125.823 30.6432H125.815V34.8931H125.08V29.7383Z" fill="#1E1C1C"/>
<path d="M136.036 29.7383H136.811L138.985 34.8931H138.185L137.668 33.5842H135.139L134.614 34.8931H133.838L136.036 29.7383ZM136.399 30.425L135.373 32.9783H137.425L136.399 30.425Z" fill="#1E1C1C"/>
<path d="M143.711 29.7383H144.454V34.2468H146.612V34.8931H143.711V29.7383Z" fill="#1E1C1C"/>
<path d="M43.3443 11.4719C43.3443 8.82987 43.2473 8.44205 41.3243 8.26428V8.0219L45.5258 7.89261C49.8565 7.75525 50.2121 9.87215 50.2121 10.7043C50.2121 12.1426 49.3071 12.9748 48.0709 13.5161L48.1598 13.6454C49.4849 15.9643 51.1412 18.9214 53.9772 19.5113L53.9287 19.7698C52.1027 19.681 50.7534 19.7375 49.7596 18.7033C48.6284 17.5236 47.7235 16.0047 47.3599 15.2613C46.6731 13.8312 46.0591 14.2433 44.8552 14.0332V16.8126C44.8552 18.7033 44.8875 19.0427 47.2387 19.382V19.6325H41.2031V19.382C43.2715 19.0911 43.2796 18.5821 43.3443 16.8126V11.4719ZM44.8552 13.7423C46.5035 13.7343 48.4345 12.9748 48.4345 11.0599C48.4345 9.04801 46.665 8.24004 44.8552 8.25621V13.7423Z" fill="white"/>
<path d="M56.474 19.7937C54.1066 19.7937 52.2402 18.299 52.2402 15.8508C52.2402 13.4834 54.1794 11.8433 56.4901 11.8433C58.8334 11.8433 60.6997 13.3542 60.6997 15.7781C60.6997 18.1212 58.7444 19.7937 56.474 19.7937ZM56.4497 12.2149C54.5914 12.2149 53.8319 14.146 53.8319 15.7296C53.8319 17.3294 54.7369 19.414 56.5952 19.414C58.3324 19.414 59.1081 17.4425 59.1081 15.9558C59.1081 14.3722 58.3324 12.2149 56.4497 12.2149Z" fill="white"/>
<path d="M61.2495 13.5783C60.9426 12.7946 60.8778 12.633 60.0215 12.4956V12.229H63.5845V12.4956C62.2676 12.5603 62.6151 13.3521 62.9543 14.2328L64.6432 18.6039L65.7096 15.5013C66.4934 13.2632 66.6226 12.6653 65.3541 12.4956V12.229H68.3597V12.4956C67.6002 12.5764 67.3741 12.8835 67.0347 13.546L66.3235 15.2104L63.6654 21.8762C63.0271 23.4679 62.5828 24.0093 61.8959 24.0093C61.4274 24.0093 61.0476 23.6295 61.0476 23.1447C61.0476 22.7892 61.2495 22.466 61.5889 22.3368C61.7747 22.4418 62.2999 22.8135 62.51 22.8135C62.8817 22.8135 63.1967 21.8843 63.3179 21.6338L63.8836 20.3087L61.2495 13.5783Z" fill="white"/>
<path d="M71.8325 15.3716C71.9618 13.4971 71.4931 12.7134 70.1278 12.7134C68.932 12.7134 69.0532 13.279 69.0532 14.2324L68.1967 14.2809C68.0513 14.2809 67.8008 14.3051 67.8008 14.1112C67.8008 13.6506 69.6915 11.8569 71.0892 11.8569C72.6729 11.8569 73.1576 13.0608 73.1576 14.4344V16.8906C73.1576 18.3934 73.0041 19.3388 74.6524 19.0883V19.4761C73.998 19.662 73.4325 19.7266 72.9153 19.7266C72.1962 19.7266 71.9134 19.3145 71.8325 18.6358C71.2751 19.258 70.5236 19.8074 69.6429 19.8074C68.5361 19.8074 67.922 18.8782 67.922 17.8521C67.922 17.5936 67.9543 17.3431 68.0271 17.0926L71.8325 15.3716ZM69.5056 16.8987C69.441 17.1249 69.3924 17.3431 69.3924 17.5936C69.3924 18.3126 69.7964 18.9509 70.5884 18.9509C71.0569 18.9509 71.5175 18.6358 71.8325 18.3126V15.719L69.5056 16.8987Z" fill="white"/>
<path d="M73.8613 19.6355V19.2235C75.0571 19.078 75.2106 18.8033 75.2106 17.6318V10.3196C75.2106 9.6086 75.2186 9.37427 74.3542 8.75214V8.58247L76.3418 7.83105L76.5275 7.89569V17.6318C76.5275 19.0457 76.6003 19.1912 77.877 19.3851V19.6355H73.8613Z" fill="white"/>
<path d="M94.1333 15.3716C94.2787 13.4971 93.7939 12.7134 92.4363 12.7134C91.2406 12.7134 91.3699 13.279 91.3699 14.2324L90.5055 14.2809C90.3679 14.2809 90.1094 14.3051 90.1094 14.1112C90.1094 13.6506 92.0001 11.8569 93.398 11.8569C94.9815 11.8569 95.4664 13.0608 95.4664 14.4344V16.8906C95.4664 18.3934 95.2968 19.4438 96.9612 19.0883V19.4761C96.3066 19.662 95.7411 19.7266 95.224 19.7266C94.4967 19.7266 94.222 19.3145 94.1333 18.6358C93.5837 19.258 92.8325 19.8074 91.9517 19.8074C90.8528 19.8074 90.2389 18.8782 90.2389 17.8521C90.2389 17.5936 90.2631 17.3431 90.3357 17.0926L94.1333 15.3716ZM91.8224 16.8987C91.7496 17.1249 91.7012 17.3431 91.7012 17.5936C91.7012 18.3126 92.1052 18.9509 92.9051 18.9509C93.3657 18.9509 93.8261 18.6358 94.1333 18.3126V15.719L91.8224 16.8987Z" fill="white"/>
<path d="M89.1159 11.4783H88.8493C88.526 9.53105 87.3949 8.13325 85.3265 8.13325C82.1753 8.13325 80.4058 10.7188 80.4058 13.676C80.4058 17.0694 82.9996 19.4206 85.4961 19.4206C87.7503 19.4206 88.6472 17.7724 89.4309 15.914L89.6733 16.0191C89.4551 17.0694 89.132 18.1036 88.72 19.0975C87.621 19.6388 86.4253 19.8408 85.2053 19.8408C81.6098 19.8408 78.4102 17.7724 78.4102 13.878C78.4102 10.8238 80.8017 7.72119 85.3427 7.72119C86.6516 7.72119 87.9847 7.97974 89.1159 8.65036V11.4783Z" fill="white"/>
<path d="M135.035 15.3579C135.181 13.4834 134.696 12.6997 133.338 12.6997C132.151 12.6997 132.272 13.2734 132.272 14.2187L131.415 14.2753C131.27 14.2753 131.02 14.2914 131.02 14.0975C131.02 13.645 132.91 11.8433 134.3 11.8433C135.892 11.8433 136.376 13.0552 136.376 14.4288V16.8769C136.376 18.3879 136.134 19.3493 137.693 19.2685V19.5675C137.047 19.7614 136.643 19.7129 136.134 19.7129C135.407 19.7129 135.132 19.3009 135.035 18.6302C134.494 19.2443 133.734 19.8018 132.854 19.8018C131.755 19.8018 131.141 18.8726 131.141 17.8303C131.141 17.5799 131.173 17.3375 131.238 17.0709L135.035 15.3579ZM132.716 16.8931C132.66 17.1193 132.595 17.3375 132.595 17.5799C132.595 18.299 133.007 18.9292 133.807 18.9292C134.276 18.9292 134.736 18.6302 135.035 18.299V15.6973L132.716 16.8931Z" fill="white"/>
<path d="M98.8275 17.6283C98.8275 19.0423 98.9001 19.1716 100.556 19.3655V19.6321H96.25V19.22C97.4135 19.115 97.4863 18.8322 97.5105 17.491V14.348C97.5105 13.6208 97.5266 13.4026 96.6701 12.7724V12.6027L98.7224 11.8433L98.9001 11.916L98.8275 13.944H98.8678C99.2395 13.031 100.209 11.8433 101.292 11.8433C101.777 11.8433 102.173 12.1584 102.173 12.6431C102.173 13.1037 101.68 13.5319 101.284 13.7258C100.993 13.4996 100.556 13.1118 100.177 13.1602C98.7224 13.2895 98.8275 15.6327 98.8275 15.8912V17.6283Z" fill="white"/>
<path d="M102.705 19.6367V19.3701C103.982 19.1762 104.03 18.9822 104.054 17.6329V14.3526C104.054 13.6254 104.062 13.4072 103.004 12.777V12.6074L105.186 11.8479L105.371 11.9206V17.6329C105.371 19.0469 105.444 19.1762 106.721 19.3701V19.6367H102.705ZM105.517 8.97956C105.517 9.46432 105.113 9.86025 104.636 9.86025C104.151 9.86025 103.755 9.46432 103.755 8.97956C103.755 8.50284 104.151 8.10693 104.636 8.10693C105.113 8.10693 105.517 8.50284 105.517 8.97956Z" fill="white"/>
<path d="M107.344 10.314C107.344 9.59491 107.369 9.37675 106.504 8.74655V8.57687L108.484 7.81738L108.669 7.89007V12.8187C109.518 12.3582 110.568 11.8492 111.546 11.8492C113.453 11.8492 114.786 13.6267 114.786 15.4366C114.786 18.4745 111.982 19.8077 110.083 19.8077C109.049 19.8077 108.273 19.533 107.344 19.1209V10.314ZM108.669 16.1395C108.669 17.7393 108.847 19.2744 110.843 19.2744C111.788 19.2744 113.323 18.5149 113.323 16.1233C113.323 14.0549 111.942 12.7056 110.277 12.7056C109.687 12.7056 109.203 12.8672 108.669 13.0934V16.1395Z" fill="white"/>
<path d="M115.577 10.314C115.577 9.59491 115.593 9.37675 114.736 8.74655V8.57687L116.716 7.81738L116.91 7.89007V12.8187C117.742 12.3582 118.792 11.8492 119.778 11.8492C121.685 11.8492 123.01 13.6267 123.01 15.4366C123.01 18.4745 120.214 19.8077 118.308 19.8077C117.282 19.8077 116.506 19.533 115.577 19.1209V10.314ZM116.91 16.1395C116.91 17.7393 117.071 19.2744 119.067 19.2744C120.021 19.2744 121.556 18.5149 121.556 16.1233C121.556 14.0549 120.166 12.7056 118.501 12.7056C117.92 12.7056 117.435 12.8672 116.91 13.0934V16.1395Z" fill="white"/>
<path d="M125.257 15.2367C125.128 17.0224 126.356 18.7029 128.295 18.7029C129.192 18.7029 129.806 18.299 130.331 17.6122L130.582 17.798C129.927 18.9211 128.764 19.8018 127.414 19.8018C125.281 19.8018 123.803 18.0404 123.803 15.972C123.803 13.7501 125.354 11.8433 127.673 11.8433C129.232 11.8433 130.258 12.8371 130.331 14.3803H125.33L125.257 15.2367ZM128.699 13.9117C128.538 13.1118 128.061 12.223 127.14 12.223C126.162 12.223 125.572 13.1845 125.386 14.049L128.699 13.9117Z" fill="white"/>
<path d="M138.452 14.348C138.452 13.6208 138.477 13.4026 137.612 12.7724V12.6027L139.665 11.8433L139.85 11.916L139.713 13.1764C140.691 12.4492 141.644 11.8433 142.743 11.8433C144.803 11.8433 144.916 13.5481 144.916 14.5661V17.6283C144.916 19.0423 144.973 19.1716 146.25 19.3655V19.6321H142.242V19.3655C143.511 19.1716 143.575 18.9776 143.583 17.6283V15.6488C143.583 14.453 143.632 12.7401 141.531 12.7401C140.836 12.7401 140.351 12.9663 139.786 13.4834V17.6283C139.786 19.0423 139.85 19.1716 141.119 19.3655V19.6321H137.111V19.317C138.34 19.22 138.428 18.9776 138.452 17.6283V14.348Z" fill="white"/>
<path d="M0.667969 0.993164H37.4793V37.7964H0.667969V0.993164Z" fill="#173378"/>
<path d="M19.1218 6.08057C20.4388 7.35714 21.9093 8.70647 23.194 10.0235L21.6992 11.9384V12.0434L25.6502 13.8048L28.3246 11.9707L26.7087 10.1851V10.0477C28.365 8.87615 29.7871 7.74498 31.3949 6.6623L30.6192 14.7097H7.53542L6.75977 6.6623C8.36762 7.74498 9.78967 8.87615 11.446 10.0477V10.1851L9.83006 11.9707L12.5125 13.8048L16.4555 12.0434V11.9384L14.9607 10.0235C16.2454 8.70647 17.7159 7.35714 19.0329 6.08057H19.1218Z" fill="white"/>
<path d="M30.4348 16.1445L30.2086 18.827H21.6683V28.0621L25.8294 28.046C26.7585 28.0379 27.7281 27.0684 27.5423 26.422C27.308 25.4847 26.4757 24.8626 25.7001 24.402C25.8536 24.402 28.7058 22.3013 30.047 21.3964C29.9824 21.9781 29.0209 29.5246 29.0128 29.6539L19.1555 33.3948H19.002L9.14468 29.6539C9.13659 29.5246 8.17511 21.9781 8.11855 21.3964C9.45172 22.3013 12.3039 24.402 12.4574 24.402C11.6817 24.8626 10.8495 25.4847 10.6233 26.422C10.4294 27.0684 11.3989 28.0379 12.3281 28.046L16.4892 28.0621L16.4973 18.827H7.95697L7.72266 16.1445H30.4348Z" fill="white"/>
</svg>
