<svg width="16" height="16" viewBox="0 0 16 16" fill="none" xmlns="http://www.w3.org/2000/svg">
<path d="M13.2644 6.26492L8.26444 11.2649C8.19412 11.3351 8.09881 11.3746 7.99943 11.3746C7.90006 11.3746 7.80475 11.3351 7.73444 11.2649L2.73443 6.26492C2.66819 6.19384 2.63213 6.09981 2.63385 6.00266C2.63556 5.90551 2.67492 5.81282 2.74362 5.74411C2.81233 5.67541 2.90502 5.63605 3.00217 5.63434C3.09932 5.63262 3.19335 5.66868 3.26444 5.73492L7.99943 10.4693L12.7344 5.73492C12.8055 5.66868 12.8995 5.63262 12.9967 5.63434C13.0938 5.63605 13.1865 5.67541 13.2552 5.74411C13.324 5.81282 13.3633 5.90551 13.365 6.00266C13.3667 6.09981 13.3307 6.19384 13.2644 6.26492Z" fill="#E6E6ED"/>
</svg>
