<svg width="161" height="160" viewBox="0 0 161 160" fill="none" xmlns="http://www.w3.org/2000/svg">
<rect x="1.0625" y="1" width="158" height="158" rx="79" fill="#FFF9ED"/>
<g filter="url(#filter0_d_2264_20867)">
<path fill-rule="evenodd" clip-rule="evenodd" d="M49.5458 88.1511C49.9982 87.8343 50.6217 87.9443 50.9385 88.3967L58.2009 98.7685C58.5177 99.2209 58.4078 99.8445 57.9554 100.161C57.503 100.478 56.8794 100.368 56.5626 99.9157L49.3002 89.5438C48.9834 89.0914 49.0934 88.4679 49.5458 88.1511Z" fill="#373742"/>
<path fill-rule="evenodd" clip-rule="evenodd" d="M119.072 45.2299C119.992 45.4813 120.795 46.0465 121.342 46.8278C121.889 47.6102 122.146 48.5599 122.066 49.5117C121.713 54.3811 120.148 65.4822 113.119 75.9201C106.056 86.4084 93.5365 96.1325 71.4797 98.2611C71.1209 98.2957 70.7712 98.1346 70.5645 97.8393L56.0396 77.0956C55.8346 76.8029 55.8014 76.423 55.9525 76.0991C65.3709 55.9183 78.7896 47.4538 91.0959 44.4372C103.338 41.4364 114.366 43.8513 119.072 45.2299ZM119.703 47.9749C119.423 47.5745 119.011 47.2852 118.539 47.1576L118.519 47.1519C113.98 45.8213 103.337 43.4957 91.5721 46.3797C79.9679 49.2242 67.1611 57.1615 58.0105 76.4234L71.8669 96.2124C92.9731 94.0284 104.796 84.699 111.46 74.803C118.216 64.7707 119.732 54.0608 120.072 49.3613L120.073 49.3486C120.114 48.8615 119.984 48.3753 119.703 47.9749Z" fill="#373742"/>
<path fill-rule="evenodd" clip-rule="evenodd" d="M78.9653 51.1521C78.9184 51.7024 78.4344 52.1105 77.8841 52.0636L58.5581 50.4186C58.2386 50.3872 57.9163 50.4329 57.6181 50.5519C57.32 50.6709 57.0547 50.8597 56.8446 51.1024C56.8383 51.1097 56.8318 51.117 56.8253 51.1241L41.5654 67.7496C41.5651 67.75 41.5648 67.7504 41.5644 67.7508C41.3175 68.0219 41.1435 68.3513 41.0587 68.7082C40.9738 69.0655 40.9811 69.4385 41.0801 69.7922C41.179 70.1459 41.3663 70.4686 41.6243 70.73C41.8823 70.9914 42.2026 71.1828 42.5549 71.2864L57.1418 75.563C57.6717 75.7184 57.9754 76.2739 57.82 76.8039C57.6647 77.3339 57.1091 77.6376 56.5791 77.4822L41.9917 73.2054C41.3138 73.0062 40.6972 72.6378 40.2009 72.135C39.7046 71.6322 39.3444 71.0114 39.154 70.3311C38.9637 69.6507 38.9495 68.9331 39.1128 68.2458C39.2762 67.5584 39.6116 66.9239 40.0877 66.4019L40.0899 66.3996L55.3427 49.7817C55.7605 49.3028 56.2863 48.9301 56.8767 48.6944C57.4698 48.4577 58.1109 48.3661 58.7465 48.4274L78.0537 50.0708C78.604 50.1177 79.0121 50.6018 78.9653 51.1521Z" fill="#373742"/>
<path fill-rule="evenodd" clip-rule="evenodd" d="M102.906 84.7941C103.439 84.9389 103.754 85.4883 103.609 86.0213L98.4269 105.102C98.267 105.72 97.9618 106.291 97.5366 106.767C97.1133 107.241 96.5832 107.608 95.9903 107.837L75.1578 116.486L75.1548 116.487C74.5015 116.756 73.7905 116.854 73.0887 116.773C72.387 116.691 71.7175 116.432 71.1433 116.021C70.5691 115.609 70.109 115.058 69.8063 114.42C69.5035 113.782 69.3681 113.077 69.4128 112.372L70.3832 97.2006C70.4184 96.6494 70.8938 96.2312 71.445 96.2665C71.9961 96.3017 72.4144 96.7771 72.3791 97.3283L71.4088 112.498C71.3856 112.865 71.456 113.231 71.6133 113.563C71.7707 113.895 72.0099 114.181 72.3084 114.395C72.6069 114.609 72.955 114.744 73.3198 114.786C73.6841 114.828 74.0532 114.777 74.3925 114.638C74.3929 114.638 74.3934 114.638 74.3938 114.638L95.2359 105.984C95.2448 105.981 95.2538 105.977 95.2629 105.973C95.5628 105.859 95.8309 105.674 96.0447 105.435C96.2585 105.195 96.4118 104.908 96.4916 104.597L96.4951 104.584L101.679 85.4971C101.824 84.9641 102.373 84.6494 102.906 84.7941Z" fill="#373742"/>
<path fill-rule="evenodd" clip-rule="evenodd" d="M93.6331 66.2277C94.253 67.113 95.4731 67.3281 96.3584 66.7082C97.2437 66.0884 97.4588 64.8682 96.8389 63.983C96.2191 63.0977 94.9989 62.8826 94.1137 63.5025C93.2284 64.1223 93.0133 65.3425 93.6331 66.2277ZM97.5056 68.3466C95.7155 69.6 93.2483 69.1649 91.9948 67.3749C90.7414 65.5848 91.1765 63.1176 92.9665 61.8641C94.7566 60.6107 97.2238 61.0458 98.4772 62.8358C99.7307 64.6259 99.2956 67.0931 97.5056 68.3466Z" fill="#373742"/>
</g>
<rect x="1.0625" y="1" width="158" height="158" rx="79" stroke="#676775" stroke-width="2"/>
<defs>
<filter id="filter0_d_2264_20867" x="39" y="43" width="87.0806" height="77.8005" filterUnits="userSpaceOnUse" color-interpolation-filters="sRGB">
<feFlood flood-opacity="0" result="BackgroundImageFix"/>
<feColorMatrix in="SourceAlpha" type="matrix" values="0 0 0 0 0 0 0 0 0 0 0 0 0 0 0 0 0 0 127 0" result="hardAlpha"/>
<feOffset dx="4" dy="4"/>
<feComposite in2="hardAlpha" operator="out"/>
<feColorMatrix type="matrix" values="0 0 0 0 1 0 0 0 0 0.815686 0 0 0 0 0.847059 0 0 0 1 0"/>
<feBlend mode="normal" in2="BackgroundImageFix" result="effect1_dropShadow_2264_20867"/>
<feBlend mode="normal" in="SourceGraphic" in2="effect1_dropShadow_2264_20867" result="shape"/>
</filter>
</defs>
</svg>
