<svg width="26" height="14" viewBox="0 0 26 14" fill="none" xmlns="http://www.w3.org/2000/svg">
<path d="M1.15429 11.9038L12.4043 0.6538C12.5625 0.495793 12.7769 0.407043 13.0005 0.407043C13.2241 0.407043 13.4386 0.495793 13.5968 0.6538L24.8468 11.9038C24.9958 12.0637 25.077 12.2753 25.0731 12.4939C25.0693 12.7125 24.9807 12.921 24.8261 13.0756C24.6715 13.2302 24.463 13.3188 24.2444 13.3226C24.0258 13.3265 23.8142 13.2453 23.6543 13.0963L13.0005 2.44396L2.34679 13.0963C2.18684 13.2453 1.97529 13.3265 1.7567 13.3226C1.53811 13.3188 1.32955 13.2302 1.17496 13.0756C1.02037 12.921 0.931824 12.7125 0.927967 12.4939C0.92411 12.2753 1.00525 12.0637 1.15429 11.9038Z" fill="#E6E6ED"/>
</svg>
