<svg width="24" height="25" viewBox="0 0 24 25" fill="none" xmlns="http://www.w3.org/2000/svg">
<path d="M12 2.48535C10.0716 2.48535 8.18657 3.05718 6.58319 4.12852C4.97982 5.19987 3.73013 6.72261 2.99218 8.50419C2.25422 10.2858 2.06114 12.2462 2.43735 14.1375C2.81355 16.0288 3.74215 17.7661 5.10571 19.1296C6.46928 20.4932 8.20656 21.4218 10.0979 21.798C11.9892 22.1742 13.9496 21.9811 15.7312 21.2432C17.5127 20.5052 19.0355 19.2555 20.1068 17.6522C21.1782 16.0488 21.75 14.1637 21.75 12.2354C21.7473 9.65033 20.7192 7.17196 18.8913 5.34408C17.0634 3.51619 14.585 2.48808 12 2.48535ZM12.75 20.4507V14.4854H15C15.1989 14.4854 15.3897 14.4063 15.5303 14.2657C15.671 14.125 15.75 13.9343 15.75 13.7354C15.75 13.5364 15.671 13.3457 15.5303 13.205C15.3897 13.0644 15.1989 12.9854 15 12.9854H12.75V10.7354C12.75 10.3375 12.908 9.956 13.1893 9.67469C13.4706 9.39339 13.8522 9.23535 14.25 9.23535H15.75C15.9489 9.23535 16.1397 9.15633 16.2803 9.01568C16.421 8.87503 16.5 8.68426 16.5 8.48535C16.5 8.28644 16.421 8.09567 16.2803 7.95502C16.1397 7.81437 15.9489 7.73535 15.75 7.73535H14.25C13.4544 7.73535 12.6913 8.05142 12.1287 8.61403C11.5661 9.17664 11.25 9.9397 11.25 10.7354V12.9854H9C8.80109 12.9854 8.61033 13.0644 8.46967 13.205C8.32902 13.3457 8.25 13.5364 8.25 13.7354C8.25 13.9343 8.32902 14.125 8.46967 14.2657C8.61033 14.4063 8.80109 14.4854 9 14.4854H11.25V20.4507C9.13575 20.2577 7.17728 19.257 5.78198 17.6569C4.38667 16.0567 3.66195 13.9803 3.75855 11.8594C3.85515 9.73859 4.76564 7.73662 6.30064 6.26995C7.83563 4.80328 9.87696 3.98483 12 3.98483C14.1231 3.98483 16.1644 4.80328 17.6994 6.26995C19.2344 7.73662 20.1449 9.73859 20.2415 11.8594C20.3381 13.9803 19.6133 16.0567 18.218 17.6569C16.8227 19.257 14.8643 20.2577 12.75 20.4507Z" fill="white"/>
</svg>
