<svg width="24" height="25" viewBox="0 0 24 25" fill="none" xmlns="http://www.w3.org/2000/svg">
<path d="M12 8.48535C11.11 8.48535 10.24 8.74927 9.49993 9.24374C8.75991 9.7382 8.18314 10.441 7.84254 11.2633C7.50195 12.0855 7.41283 12.9903 7.58647 13.8633C7.7601 14.7362 8.18868 15.538 8.81802 16.1673C9.44736 16.7967 10.2492 17.2253 11.1221 17.3989C11.995 17.5725 12.8998 17.4834 13.7221 17.1428C14.5443 16.8022 15.2471 16.2254 15.7416 15.4854C16.2361 14.7454 16.5 13.8754 16.5 12.9854C16.4988 11.7923 16.0243 10.6484 15.1806 9.80474C14.337 8.9611 13.1931 8.48659 12 8.48535ZM12 15.9854C11.4067 15.9854 10.8266 15.8094 10.3333 15.4798C9.83994 15.1501 9.45542 14.6816 9.22836 14.1334C9.0013 13.5852 8.94189 12.982 9.05764 12.4001C9.1734 11.8181 9.45912 11.2836 9.87868 10.864C10.2982 10.4445 10.8328 10.1588 11.4147 10.043C11.9967 9.92724 12.5999 9.98665 13.1481 10.2137C13.6962 10.4408 14.1648 10.8253 14.4944 11.3186C14.8241 11.812 15 12.392 15 12.9854C15 13.781 14.6839 14.5441 14.1213 15.1067C13.5587 15.6693 12.7956 15.9854 12 15.9854ZM16.5 3.23535H7.5C6.10807 3.23684 4.77358 3.79044 3.78933 4.77469C2.80509 5.75893 2.25149 7.09342 2.25 8.48535V17.4854C2.25149 18.8773 2.80509 20.2118 3.78933 21.196C4.77358 22.1803 6.10807 22.7339 7.5 22.7354H16.5C17.8919 22.7339 19.2264 22.1803 20.2107 21.196C21.1949 20.2118 21.7485 18.8773 21.75 17.4854V8.48535C21.7485 7.09342 21.1949 5.75893 20.2107 4.77469C19.2264 3.79044 17.8919 3.23684 16.5 3.23535ZM20.25 17.4854C20.25 18.4799 19.8549 19.4337 19.1516 20.137C18.4484 20.8403 17.4946 21.2354 16.5 21.2354H7.5C6.50544 21.2354 5.55161 20.8403 4.84835 20.137C4.14509 19.4337 3.75 18.4799 3.75 17.4854V8.48535C3.75 7.49079 4.14509 6.53696 4.84835 5.8337C5.55161 5.13044 6.50544 4.73535 7.5 4.73535H16.5C17.4946 4.73535 18.4484 5.13044 19.1516 5.8337C19.8549 6.53696 20.25 7.49079 20.25 8.48535V17.4854ZM18 8.11035C18 8.33286 17.934 8.55036 17.8104 8.73537C17.6868 8.92037 17.5111 9.06457 17.3055 9.14972C17.1 9.23486 16.8738 9.25714 16.6555 9.21374C16.4373 9.17033 16.2368 9.06318 16.0795 8.90585C15.9222 8.74851 15.815 8.54806 15.7716 8.32983C15.7282 8.1116 15.7505 7.8854 15.8356 7.67983C15.9208 7.47427 16.065 7.29856 16.25 7.17495C16.435 7.05133 16.6525 6.98535 16.875 6.98535C17.1734 6.98535 17.4595 7.10388 17.6705 7.31486C17.8815 7.52583 18 7.81198 18 8.11035Z" fill="white"/>
</svg>
