<svg width="24" height="25" viewBox="0 0 24 25" fill="none" xmlns="http://www.w3.org/2000/svg">
<path d="M20.25 3.23535H3.75C3.35218 3.23535 2.97064 3.39339 2.68934 3.67469C2.40804 3.956 2.25 4.33753 2.25 4.73535V21.2354C2.25 21.6332 2.40804 22.0147 2.68934 22.296C2.97064 22.5773 3.35218 22.7354 3.75 22.7354H20.25C20.6478 22.7354 21.0294 22.5773 21.3107 22.296C21.592 22.0147 21.75 21.6332 21.75 21.2354V4.73535C21.75 4.33753 21.592 3.956 21.3107 3.67469C21.0294 3.39339 20.6478 3.23535 20.25 3.23535ZM20.25 21.2354H3.75V4.73535H20.25V21.2354ZM9 11.4854V17.4854C9 17.6843 8.92098 17.875 8.78033 18.0157C8.63968 18.1563 8.44891 18.2354 8.25 18.2354C8.05109 18.2354 7.86032 18.1563 7.71967 18.0157C7.57902 17.875 7.5 17.6843 7.5 17.4854V11.4854C7.5 11.2864 7.57902 11.0957 7.71967 10.955C7.86032 10.8144 8.05109 10.7354 8.25 10.7354C8.44891 10.7354 8.63968 10.8144 8.78033 10.955C8.92098 11.0957 9 11.2864 9 11.4854ZM17.25 14.1104V17.4854C17.25 17.6843 17.171 17.875 17.0303 18.0157C16.8897 18.1563 16.6989 18.2354 16.5 18.2354C16.3011 18.2354 16.1103 18.1563 15.9697 18.0157C15.829 17.875 15.75 17.6843 15.75 17.4854V14.1104C15.75 13.6131 15.5525 13.1362 15.2008 12.7845C14.8492 12.4329 14.3723 12.2354 13.875 12.2354C13.3777 12.2354 12.9008 12.4329 12.5492 12.7845C12.1975 13.1362 12 13.6131 12 14.1104V17.4854C12 17.6843 11.921 17.875 11.7803 18.0157C11.6397 18.1563 11.4489 18.2354 11.25 18.2354C11.0511 18.2354 10.8603 18.1563 10.7197 18.0157C10.579 17.875 10.5 17.6843 10.5 17.4854V11.4854C10.5009 11.3016 10.5693 11.1247 10.692 10.988C10.8148 10.8513 10.9834 10.7645 11.166 10.7439C11.3485 10.7233 11.5323 10.7704 11.6824 10.8763C11.8325 10.9823 11.9385 11.1396 11.9803 11.3185C12.4877 10.9743 13.0792 10.7748 13.6914 10.7415C14.3036 10.7081 14.9133 10.8421 15.455 11.1292C15.9968 11.4162 16.4501 11.8453 16.7664 12.3706C17.0826 12.8958 17.2498 13.4973 17.25 14.1104ZM9.375 8.86035C9.375 9.08286 9.30902 9.30036 9.1854 9.48537C9.06179 9.67037 8.88609 9.81457 8.68052 9.89972C8.47495 9.98486 8.24875 10.0071 8.03052 9.96374C7.81229 9.92033 7.61184 9.81318 7.4545 9.65585C7.29717 9.49851 7.19002 9.29806 7.14662 9.07983C7.10321 8.8616 7.12549 8.6354 7.21064 8.42983C7.29578 8.22427 7.43998 8.04856 7.62498 7.92495C7.80999 7.80133 8.0275 7.73535 8.25 7.73535C8.54837 7.73535 8.83452 7.85388 9.0455 8.06486C9.25647 8.27583 9.375 8.56198 9.375 8.86035Z" fill="white"/>
</svg>
