<svg width="161" height="160" viewBox="0 0 161 160" fill="none" xmlns="http://www.w3.org/2000/svg">
<rect x="1.33398" y="1" width="158" height="158" rx="79" fill="#FFF9ED"/>
<g filter="url(#filter0_d_14819_29363)">
<path d="M73.3867 42.4766L82.5585 49.4916L84.0478 38.041L73.3867 42.4766ZM86.7389 45.1325L86.3562 46.0563L86.7389 45.1325ZM98.0582 52.6958L97.3511 53.403L98.0582 52.6958ZM105.622 64.0152L106.546 63.6326L106.546 63.6326L105.622 64.0152ZM105.622 90.7195L106.546 91.1022L105.622 90.7195ZM98.0582 102.039L98.7654 102.746L98.0582 102.039ZM86.7389 109.602L86.3562 108.678H86.3562L86.7389 109.602ZM82.0559 44.6041C83.517 44.9907 84.9538 45.4755 86.3562 46.0563L87.1215 44.2086C85.6364 43.5934 84.1149 43.0801 82.5675 42.6706L82.0559 44.6041ZM86.3562 46.0563C90.468 47.7595 94.2041 50.2559 97.3511 53.403L98.7654 51.9887C95.4326 48.656 91.476 46.0123 87.1215 44.2086L86.3562 46.0563ZM97.3511 53.403C100.498 56.55 102.995 60.2861 104.698 64.3979L106.546 63.6326C104.742 59.2781 102.098 55.3215 98.7654 51.9887L97.3511 53.403ZM104.698 64.3979C106.401 68.5097 107.278 72.9168 107.278 77.3674H109.278C109.278 72.6541 108.349 67.987 106.546 63.6326L104.698 64.3979ZM107.278 77.3674C107.278 81.818 106.401 86.225 104.698 90.3368L106.546 91.1022C108.349 86.7477 109.278 82.0806 109.278 77.3674H107.278ZM104.698 90.3368C102.995 94.4487 100.498 98.1847 97.3511 101.332L98.7654 102.746C102.098 99.4132 104.742 95.4567 106.546 91.1022L104.698 90.3368ZM97.3511 101.332C94.2041 104.479 90.468 106.975 86.3562 108.678L87.1215 110.526C91.476 108.722 95.4326 106.079 98.7654 102.746L97.3511 101.332ZM86.3562 108.678C82.2443 110.382 77.8373 111.258 73.3867 111.258V113.258C78.1 113.258 82.7671 112.33 87.1215 110.526L86.3562 108.678Z" fill="#373742"/>
<path d="M73.3859 112.258H43.4795" stroke="#373742" stroke-width="2" stroke-linecap="round"/>
<path d="M126.324 112.43L116.324 106.656V118.203L126.324 112.43ZM96.4277 111.43C95.8754 111.43 95.4277 111.877 95.4277 112.43C95.4277 112.982 95.8754 113.43 96.4277 113.43L96.4277 111.43ZM117.324 111.43H96.4277L96.4277 113.43H117.324V111.43Z" fill="#373742"/>
<path d="M52.7051 104.433C47.5979 100.53 43.6991 95.2619 41.4593 89.2372C39.2194 83.2125 38.73 76.677 40.0474 70.3858C41.3648 64.0946 44.4354 58.3046 48.9042 53.6848C53.3731 49.0649 59.058 45.8037 65.3019 44.2781" stroke="#373742" stroke-width="2" stroke-linecap="round" stroke-linejoin="round"/>
</g>
<rect x="1.33398" y="1" width="158" height="158" rx="79" stroke="#676775" stroke-width="2"/>
<defs>
<filter id="filter0_d_14819_29363" x="38.3242" y="38.041" width="92" height="84.1621" filterUnits="userSpaceOnUse" color-interpolation-filters="sRGB">
<feFlood flood-opacity="0" result="BackgroundImageFix"/>
<feColorMatrix in="SourceAlpha" type="matrix" values="0 0 0 0 0 0 0 0 0 0 0 0 0 0 0 0 0 0 127 0" result="hardAlpha"/>
<feOffset dx="4" dy="4"/>
<feComposite in2="hardAlpha" operator="out"/>
<feColorMatrix type="matrix" values="0 0 0 0 1 0 0 0 0 0.815686 0 0 0 0 0.847059 0 0 0 1 0"/>
<feBlend mode="normal" in2="BackgroundImageFix" result="effect1_dropShadow_14819_29363"/>
<feBlend mode="normal" in="SourceGraphic" in2="effect1_dropShadow_14819_29363" result="shape"/>
</filter>
</defs>
</svg>
