<svg width="161" height="35" viewBox="0 0 161 35" fill="none" xmlns="http://www.w3.org/2000/svg">
<path d="M154.231 27.6761C154.836 27.6761 155.192 27.5775 155.416 27.3781C155.59 27.1961 155.678 26.7735 155.678 26.0855V11.9882C155.678 11.2668 155.599 10.7882 155.449 10.5495C155.25 10.2468 154.828 10.0955 154.188 10.0955H153.7V9.07815L159.371 8.63882V26.0928C159.371 26.9888 159.61 27.4941 160.092 27.6021C160.282 27.6515 160.565 27.6761 160.93 27.6761V28.7715H154.231V27.6761ZM145.334 22.6021C145.856 22.1588 146.793 21.8068 148.146 21.5402V23.5475C148.146 24.6835 147.971 25.5455 147.632 26.1341C147.193 26.9221 146.62 27.3115 145.907 27.3115C145.484 27.3115 145.128 27.1301 144.838 26.7568C144.547 26.3828 144.399 25.8441 144.399 25.1315C144.398 23.9701 144.714 23.1328 145.334 22.6021ZM142.926 17.2362C143.038 16.9395 143.329 16.6555 143.802 16.3862C144.346 16.0799 144.96 15.92 145.584 15.9222C147.292 15.9222 148.146 16.7035 148.146 18.2702V20.4255C145.618 20.9182 143.81 21.4868 142.708 22.1295C141.274 22.9582 140.552 24.1195 140.552 25.6121C140.552 26.4908 140.822 27.2621 141.365 27.9168C142.074 28.7635 143.124 29.1848 144.516 29.1848C145.308 29.1848 146.066 28.9608 146.788 28.5048C147.46 28.0895 147.965 27.5595 148.305 26.9121V27.5755C148.324 28.1395 148.324 28.5455 148.305 28.7695H153.208V27.6748H153.021C152.234 27.6748 151.84 27.1348 151.84 26.0495V19.5095C151.84 16.3535 150.053 14.7735 146.489 14.7735C145.046 14.7735 143.836 15.0782 142.854 15.6875C141.871 16.2948 141.382 17.0902 141.382 18.0795C141.382 18.7608 141.606 19.3002 142.062 19.6922C142.443 20.0183 142.929 20.1944 143.43 20.1875C144.006 20.1875 144.483 20.0068 144.864 19.6462C145.25 19.2895 145.444 18.8862 145.444 18.4448C145.444 17.3508 144.859 16.8015 143.704 16.8015C143.264 16.8015 142.908 16.9422 142.642 17.2202L142.928 17.3315C142.931 17.2695 142.931 17.2362 142.926 17.2362ZM48.0204 20.3375C50.255 20.3375 52.041 19.9002 53.3844 19.0315C54.9017 18.0602 55.6564 16.6255 55.6564 14.7202C55.6564 12.7408 54.8897 11.2668 53.3557 10.2948C52.0504 9.46349 50.2844 9.04682 48.0537 9.04682H40.625V10.1228C41.5077 10.1228 42.055 10.1868 42.2664 10.3095C42.627 10.5128 42.809 11.0662 42.809 11.9742V25.9935C42.809 26.6808 42.6597 27.1461 42.357 27.3861C42.1084 27.5768 41.6444 27.6681 40.9597 27.6681H40.6244V28.7635H49.463V27.6681H48.543C47.8344 27.6681 47.353 27.5601 47.0964 27.3281C46.8397 27.1041 46.711 26.6648 46.711 25.9935V20.3375H48.0204ZM51.6017 14.7348C51.6017 17.6368 50.4164 19.0875 48.053 19.0875H46.8097V10.1935H48.053C50.4164 10.1935 51.6017 11.7088 51.6017 14.7348ZM61.281 17.7962C61.795 15.7795 62.885 14.7702 64.5597 14.7702C65.173 14.7702 65.6624 14.9362 66.0317 15.2715C66.4004 15.6068 66.587 16.0488 66.587 16.6022C66.59 17.0742 66.4238 17.5316 66.1184 17.8915C65.7617 18.3062 65.3144 18.5168 64.775 18.5168C64.261 18.5168 63.851 18.3575 63.5484 18.0428C63.2584 17.7668 63.1297 17.4275 63.1544 17.0248C63.1544 16.9875 63.175 16.8922 63.2084 16.7408C62.7024 17.3775 62.305 18.4675 62.0064 20.0015C61.7657 21.2308 61.6417 22.3582 61.6417 23.3742V26.0848C61.6417 26.7228 61.7164 27.1375 61.857 27.3281C62.031 27.5601 62.5037 27.6681 63.2664 27.6681H63.7264V28.7635H56.2904V27.6681H56.5684C57.0784 27.6681 57.447 27.5768 57.671 27.3948C57.8944 27.2201 58.0024 26.7728 58.0024 26.0848V20.1735C58.0024 18.1362 57.9484 17.0022 57.8364 16.7762C57.679 16.4095 57.3724 16.2268 56.9164 16.2268H56.527V15.1348H61.1864L61.281 17.7962ZM76.7137 26.5901C76.6557 26.6241 76.5977 26.6735 76.523 26.7155L76.7137 26.6081C76.4817 27.2461 76.0544 27.8181 75.4244 28.3075C74.7106 28.8783 73.8222 29.1862 72.9084 29.1795C71.333 29.1795 70.2224 28.7481 69.5757 27.8775C69.0617 27.1968 68.8004 26.1281 68.8004 24.6768V18.9675C68.8004 17.6822 68.7424 16.9322 68.6304 16.7168C68.473 16.4288 68.1037 16.2795 67.5157 16.2795H67.3997V15.1375H72.5484V25.1581C72.5484 26.4841 73.0997 27.1481 74.2024 27.1481C75.1144 27.1481 75.7317 26.5181 76.051 25.2328C76.1917 24.7188 76.2584 24.0142 76.2584 23.1182V18.9728C76.2584 17.5548 76.1924 16.7735 76.055 16.6222C75.8564 16.3962 75.4417 16.2782 74.807 16.2782H74.4177V15.1362H80.039V25.3642C80.039 26.4835 80.1057 27.1381 80.2424 27.3128C80.4164 27.5528 80.7524 27.6688 81.2457 27.6688H81.5977V28.7635H76.607L76.5237 26.5668L76.607 26.6241L76.6317 26.6835L76.7137 26.5901ZM87.7697 14.8235C85.933 14.8235 84.4497 15.6115 83.3217 17.1802C82.327 18.5775 81.8297 20.1735 81.8297 21.9722C81.8297 23.9455 82.1944 25.5455 82.9404 26.7815C83.8857 28.3808 85.3484 29.1775 87.335 29.1775C88.3544 29.1775 89.241 28.8621 89.9964 28.2321C90.585 27.7268 90.9704 27.1708 91.149 26.5655L91.0537 26.6401L90.9417 26.5328L91.037 28.7635H95.9244V27.6841H95.6797C95.1204 27.6841 94.7504 27.5348 94.573 27.2448C94.4324 27.0375 94.365 26.6481 94.365 26.0921V8.63282L88.645 9.07015V10.0902H89.0184C89.7397 10.0902 90.2037 10.2868 90.4164 10.6768C90.541 10.9068 90.6157 11.4268 90.6404 12.2395C90.6404 14.4322 90.6777 15.7148 90.7523 16.0802C90.2224 15.2402 89.2237 14.8235 87.7697 14.8235ZM90.6703 20.4968V23.2582C90.6703 24.0121 90.613 24.6421 90.501 25.1395C90.161 26.6488 89.4397 27.4108 88.3457 27.4108C86.8117 27.4108 86.041 25.5948 86.041 21.9722C86.041 20.3602 86.133 19.1722 86.3057 18.4028C86.657 16.9168 87.3577 16.1735 88.403 16.1735C89.913 16.1728 90.6703 17.6155 90.6703 20.4968ZM100.088 21.6368H108.384C108.37 19.5875 107.911 17.9702 107.008 16.7888C105.988 15.4435 104.479 14.7702 102.481 14.7702C100.644 14.7702 99.1237 15.4315 97.9124 16.7515C96.6937 18.1115 96.089 19.8442 96.089 21.9475C96.089 24.1115 96.6197 25.8275 97.6884 27.0968C98.833 28.4901 100.461 29.1775 102.571 29.1775C104.208 29.1775 105.588 28.5728 106.708 27.3701C107.687 26.3168 108.196 25.1895 108.234 23.9795H106.854C106.84 24.8742 106.501 25.7128 105.834 26.4921C105.079 27.3875 104.18 27.8268 103.131 27.8268C101.635 27.8268 100.69 26.7575 100.3 24.6182C100.16 23.9042 100.088 22.9175 100.088 21.6368ZM102.44 15.8102C103.874 15.8102 104.595 17.3708 104.595 20.4922H100.088C100.102 20.0055 100.122 19.6008 100.147 19.2762C100.337 16.9668 101.101 15.8102 102.44 15.8102ZM113.777 16.9088C114.088 16.2768 114.586 15.7648 115.264 15.3668C115.945 14.9688 116.698 14.7695 117.532 14.7695C120.264 14.7695 121.63 16.2535 121.63 19.2235V25.4301C121.63 26.1175 121.636 26.5315 121.647 26.6735C121.696 27.3361 122.12 27.6675 122.903 27.6675H123.189V28.7621H117.883V18.7455C117.883 18.0528 117.801 17.5555 117.634 17.2528C117.395 16.8115 116.943 16.5895 116.275 16.5895C115.646 16.5895 115.14 16.8962 114.758 17.5142C114.382 18.1342 114.19 19.0455 114.19 20.2522V25.3881C114.19 26.5408 114.244 27.1868 114.36 27.3115C114.588 27.5521 114.994 27.6681 115.574 27.6681H115.802V28.7635H108.888V27.6681H109.258C109.963 27.6681 110.34 27.3375 110.394 26.6735C110.418 26.5168 110.431 26.0681 110.431 25.3301V18.5128C110.431 17.4535 110.352 16.8088 110.195 16.5768C110.042 16.3428 109.71 16.2268 109.205 16.2268H108.89V15.1348H113.777V16.9088ZM128.332 29.1768C126.065 29.1768 124.925 27.8908 124.925 25.3215V16.2768H122.488V15.1842H122.862C124.196 15.1842 125.323 14.4342 126.252 12.9248C127.048 11.6588 127.455 10.3628 127.48 9.04682H128.624V15.1842H131.226V16.2768H128.624V25.7775C128.624 26.8975 128.969 27.4608 129.66 27.4608C130.27 27.4608 130.664 26.9295 130.842 25.8682C130.904 25.4868 130.937 24.7235 130.937 23.5882H132.214C132.214 25.4628 132.044 26.7461 131.708 27.4181C131.142 28.5961 130.014 29.1768 128.332 29.1768ZM17.9837 1.98549C8.38102 1.98549 2.10769 9.87815 2.10769 17.2255C2.10769 21.4455 3.13569 23.5468 4.26302 25.5608C5.68502 21.7402 8.52702 14.1388 8.52702 14.1388C8.52702 14.1388 9.85102 13.4548 9.85102 13.5548L11.7597 8.70282L12.987 8.06615L14.5084 4.83082L17.835 5.37016L24.5997 9.14215L32.1937 11.2508C30.237 6.25349 24.699 1.98549 17.9837 1.98549ZM17.8837 34.5241C13.7197 34.5241 8.62502 33.0568 4.94835 28.5468H30.7757C27.783 32.4188 22.6424 34.5241 17.8837 34.5241ZM22.983 27.7675H20.6284L24.9977 22.3248L25.437 23.1575L22.983 27.7675ZM25.2877 10.4648L17.793 6.10615L15.047 5.61482V7.62349L17.155 9.58615L14.2137 9.33749C14.2137 9.33749 14.309 9.48682 16.757 12.0835L27.9324 13.9448L29.889 15.2195L24.7984 15.4642L22.6924 23.1575L15.7804 27.7675H11.2704L12.7917 24.7748L12.545 24.6761L8.47635 27.7688H7.49835L11.6624 21.9315C11.859 20.2675 11.7597 21.0022 12.0064 18.0108L11.3697 17.1308L9.70302 23.5975L6.22302 27.7681H5.33969L7.39769 24.8735L10.289 16.0055L9.55302 16.3455L8.27835 19.8748L7.39769 20.3635C7.39769 20.3635 5.33969 25.3628 4.26169 27.8081C2.69569 25.5628 0.929688 22.5235 0.929688 17.2262C0.929688 9.28749 7.74235 0.910156 17.9837 0.910156C27.833 0.910156 33.081 8.75082 33.9597 12.8155L25.2877 10.4648ZM30.1377 21.9308L28.7117 23.1575L25.8764 27.7675H24.011L25.8764 24.4755L27.3437 23.2568L29.4577 17.3268L31.7044 18.2575L30.1377 21.9308ZM31.4637 27.7675H27.6917L31.265 22.1295L32.343 18.4528L34.5977 19.2382C34.399 22.0802 33.4704 24.9655 31.4637 27.7675ZM26.8544 21.0021L25.727 21.2022L26.0257 18.9442L25.727 18.5028L26.0257 15.9535L28.911 17.1308L26.8544 21.0021ZM133.119 27.6761H133.48C134.018 27.6761 134.358 27.5015 134.494 27.1708C134.582 26.9301 134.622 26.3328 134.622 25.3715V18.2455C134.622 17.2795 134.53 16.7135 134.331 16.5415C134.141 16.3715 133.854 16.2868 133.478 16.2868H133.118V15.1942H138.32V25.3708C138.32 26.4908 138.386 27.1455 138.528 27.3355C138.702 27.5675 139.025 27.6755 139.514 27.6755H139.888V28.7708H133.119V27.6761ZM134.11 11.3768C134.11 10.7615 134.326 10.2408 134.762 9.80749C134.966 9.59814 135.212 9.43266 135.482 9.32114C135.753 9.20962 136.044 9.15439 136.336 9.15882C136.63 9.15457 136.922 9.20984 137.194 9.32132C137.466 9.4328 137.713 9.59817 137.92 9.80749C138.364 10.2408 138.584 10.7608 138.584 11.3768C138.584 11.9942 138.364 12.5228 137.92 12.9642C137.481 13.4115 136.954 13.6335 136.336 13.6335C135.719 13.6335 135.197 13.4115 134.762 12.9642C134.551 12.7576 134.385 12.5104 134.273 12.2375C134.16 11.9646 134.105 11.6718 134.11 11.3768Z" fill="#007AC1"/>
<path d="M154.231 27.6761C154.836 27.6761 155.192 27.5775 155.416 27.3781C155.59 27.1961 155.678 26.7735 155.678 26.0855V11.9882C155.678 11.2668 155.599 10.7882 155.449 10.5495C155.25 10.2468 154.828 10.0955 154.188 10.0955H153.7V9.07815L159.371 8.63882V26.0928C159.371 26.9888 159.61 27.4941 160.092 27.6021C160.282 27.6515 160.565 27.6761 160.93 27.6761V28.7715H154.231V27.6761ZM145.334 22.6021C145.856 22.1588 146.793 21.8068 148.146 21.5402V23.5475C148.146 24.6835 147.971 25.5455 147.632 26.1341C147.193 26.9221 146.62 27.3115 145.907 27.3115C145.484 27.3115 145.128 27.1301 144.838 26.7568C144.547 26.3828 144.399 25.8441 144.399 25.1315C144.398 23.9701 144.714 23.1328 145.334 22.6021ZM142.926 17.2362C143.038 16.9395 143.329 16.6555 143.802 16.3862C144.346 16.0799 144.96 15.92 145.584 15.9222C147.292 15.9222 148.146 16.7035 148.146 18.2702V20.4255C145.618 20.9182 143.81 21.4868 142.708 22.1295C141.274 22.9582 140.552 24.1195 140.552 25.6121C140.552 26.4908 140.822 27.2621 141.365 27.9168C142.074 28.7635 143.124 29.1848 144.516 29.1848C145.308 29.1848 146.066 28.9608 146.788 28.5048C147.46 28.0895 147.965 27.5595 148.305 26.9121V27.5755C148.324 28.1395 148.324 28.5455 148.305 28.7695H153.208V27.6748H153.021C152.234 27.6748 151.84 27.1348 151.84 26.0495V19.5095C151.84 16.3535 150.053 14.7735 146.489 14.7735C145.046 14.7735 143.836 15.0782 142.854 15.6875C141.871 16.2948 141.382 17.0902 141.382 18.0795C141.382 18.7608 141.606 19.3002 142.062 19.6922C142.443 20.0183 142.929 20.1944 143.43 20.1875C144.006 20.1875 144.483 20.0068 144.864 19.6462C145.25 19.2895 145.444 18.8862 145.444 18.4448C145.444 17.3508 144.859 16.8015 143.704 16.8015C143.264 16.8015 142.908 16.9422 142.642 17.2202L142.928 17.3315C142.931 17.2695 142.931 17.2362 142.926 17.2362ZM48.0204 20.3375C50.255 20.3375 52.041 19.9002 53.3844 19.0315C54.9017 18.0602 55.6564 16.6255 55.6564 14.7202C55.6564 12.7408 54.8897 11.2668 53.3557 10.2948C52.0504 9.46349 50.2844 9.04682 48.0537 9.04682H40.625V10.1228C41.5077 10.1228 42.055 10.1868 42.2664 10.3095C42.627 10.5128 42.809 11.0662 42.809 11.9742V25.9935C42.809 26.6808 42.6597 27.1461 42.357 27.3861C42.1084 27.5768 41.6444 27.6681 40.9597 27.6681H40.6244V28.7635H49.463V27.6681H48.543C47.8344 27.6681 47.353 27.5601 47.0964 27.3281C46.8397 27.1041 46.711 26.6648 46.711 25.9935V20.3375H48.0204ZM51.6017 14.7348C51.6017 17.6368 50.4164 19.0875 48.053 19.0875H46.8097V10.1935H48.053C50.4164 10.1935 51.6017 11.7088 51.6017 14.7348ZM61.281 17.7962C61.795 15.7795 62.885 14.7702 64.5597 14.7702C65.173 14.7702 65.6624 14.9362 66.0317 15.2715C66.4004 15.6068 66.587 16.0488 66.587 16.6022C66.59 17.0742 66.4238 17.5316 66.1184 17.8915C65.7617 18.3062 65.3144 18.5168 64.775 18.5168C64.261 18.5168 63.851 18.3575 63.5484 18.0428C63.2584 17.7668 63.1297 17.4275 63.1544 17.0248C63.1544 16.9875 63.175 16.8922 63.2084 16.7408C62.7024 17.3775 62.305 18.4675 62.0064 20.0015C61.7657 21.2308 61.6417 22.3582 61.6417 23.3742V26.0848C61.6417 26.7228 61.7164 27.1375 61.857 27.3281C62.031 27.5601 62.5037 27.6681 63.2664 27.6681H63.7264V28.7635H56.2904V27.6681H56.5684C57.0784 27.6681 57.447 27.5768 57.671 27.3948C57.8944 27.2201 58.0024 26.7728 58.0024 26.0848V20.1735C58.0024 18.1362 57.9484 17.0022 57.8364 16.7762C57.679 16.4095 57.3724 16.2268 56.9164 16.2268H56.527V15.1348H61.1864L61.281 17.7962ZM76.7137 26.5901C76.6557 26.6241 76.5977 26.6735 76.523 26.7155L76.7137 26.6081C76.4817 27.2461 76.0544 27.8181 75.4244 28.3075C74.7106 28.8783 73.8222 29.1862 72.9084 29.1795C71.333 29.1795 70.2224 28.7481 69.5757 27.8775C69.0617 27.1968 68.8004 26.1281 68.8004 24.6768V18.9675C68.8004 17.6822 68.7424 16.9322 68.6304 16.7168C68.473 16.4288 68.1037 16.2795 67.5157 16.2795H67.3997V15.1375H72.5484V25.1581C72.5484 26.4841 73.0997 27.1481 74.2024 27.1481C75.1144 27.1481 75.7317 26.5181 76.051 25.2328C76.1917 24.7188 76.2584 24.0142 76.2584 23.1182V18.9728C76.2584 17.5548 76.1924 16.7735 76.055 16.6222C75.8564 16.3962 75.4417 16.2782 74.807 16.2782H74.4177V15.1362H80.039V25.3642C80.039 26.4835 80.1057 27.1381 80.2424 27.3128C80.4164 27.5528 80.7524 27.6688 81.2457 27.6688H81.5977V28.7635H76.607L76.5237 26.5668L76.607 26.6241L76.6317 26.6835L76.7137 26.5901ZM87.7697 14.8235C85.933 14.8235 84.4497 15.6115 83.3217 17.1802C82.327 18.5775 81.8297 20.1735 81.8297 21.9722C81.8297 23.9455 82.1944 25.5455 82.9404 26.7815C83.8857 28.3808 85.3484 29.1775 87.335 29.1775C88.3544 29.1775 89.241 28.8621 89.9964 28.2321C90.585 27.7268 90.9704 27.1708 91.149 26.5655L91.0537 26.6401L90.9417 26.5328L91.037 28.7635H95.9244V27.6841H95.6797C95.1204 27.6841 94.7504 27.5348 94.573 27.2448C94.4324 27.0375 94.365 26.6481 94.365 26.0921V8.63282L88.645 9.07015V10.0902H89.0184C89.7397 10.0902 90.2037 10.2868 90.4164 10.6768C90.541 10.9068 90.6157 11.4268 90.6404 12.2395C90.6404 14.4322 90.6777 15.7148 90.7523 16.0802C90.2224 15.2402 89.2237 14.8235 87.7697 14.8235ZM90.6703 20.4968V23.2582C90.6703 24.0121 90.613 24.6421 90.501 25.1395C90.161 26.6488 89.4397 27.4108 88.3457 27.4108C86.8117 27.4108 86.041 25.5948 86.041 21.9722C86.041 20.3602 86.133 19.1722 86.3057 18.4028C86.657 16.9168 87.3577 16.1735 88.403 16.1735C89.913 16.1728 90.6703 17.6155 90.6703 20.4968ZM100.088 21.6368H108.384C108.37 19.5875 107.911 17.9702 107.008 16.7888C105.988 15.4435 104.479 14.7702 102.481 14.7702C100.644 14.7702 99.1237 15.4315 97.9124 16.7515C96.6937 18.1115 96.089 19.8442 96.089 21.9475C96.089 24.1115 96.6197 25.8275 97.6884 27.0968C98.833 28.4901 100.461 29.1775 102.571 29.1775C104.208 29.1775 105.588 28.5728 106.708 27.3701C107.687 26.3168 108.196 25.1895 108.234 23.9795H106.854C106.84 24.8742 106.501 25.7128 105.834 26.4921C105.079 27.3875 104.18 27.8268 103.131 27.8268C101.635 27.8268 100.69 26.7575 100.3 24.6182C100.16 23.9042 100.088 22.9175 100.088 21.6368ZM102.44 15.8102C103.874 15.8102 104.595 17.3708 104.595 20.4922H100.088C100.102 20.0055 100.122 19.6008 100.147 19.2762C100.337 16.9668 101.101 15.8102 102.44 15.8102ZM113.777 16.9088C114.088 16.2768 114.586 15.7648 115.264 15.3668C115.945 14.9688 116.698 14.7695 117.532 14.7695C120.264 14.7695 121.63 16.2535 121.63 19.2235V25.4301C121.63 26.1175 121.636 26.5315 121.647 26.6735C121.696 27.3361 122.12 27.6675 122.903 27.6675H123.189V28.7621H117.883V18.7455C117.883 18.0528 117.801 17.5555 117.634 17.2528C117.395 16.8115 116.943 16.5895 116.275 16.5895C115.646 16.5895 115.14 16.8962 114.758 17.5142C114.382 18.1342 114.19 19.0455 114.19 20.2522V25.3881C114.19 26.5408 114.244 27.1868 114.36 27.3115C114.588 27.5521 114.994 27.6681 115.574 27.6681H115.802V28.7635H108.888V27.6681H109.258C109.963 27.6681 110.34 27.3375 110.394 26.6735C110.418 26.5168 110.431 26.0681 110.431 25.3301V18.5128C110.431 17.4535 110.352 16.8088 110.195 16.5768C110.042 16.3428 109.71 16.2268 109.205 16.2268H108.89V15.1348H113.777V16.9088ZM128.332 29.1768C126.065 29.1768 124.925 27.8908 124.925 25.3215V16.2768H122.488V15.1842H122.862C124.196 15.1842 125.323 14.4342 126.252 12.9248C127.048 11.6588 127.455 10.3628 127.48 9.04682H128.624V15.1842H131.226V16.2768H128.624V25.7775C128.624 26.8975 128.969 27.4608 129.66 27.4608C130.27 27.4608 130.664 26.9295 130.842 25.8682C130.904 25.4868 130.937 24.7235 130.937 23.5882H132.214C132.214 25.4628 132.044 26.7461 131.708 27.4181C131.142 28.5961 130.014 29.1768 128.332 29.1768ZM17.9837 1.98549C8.38102 1.98549 2.10769 9.87815 2.10769 17.2255C2.10769 21.4455 3.13569 23.5468 4.26302 25.5608C5.68502 21.7402 8.52702 14.1388 8.52702 14.1388C8.52702 14.1388 9.85102 13.4548 9.85102 13.5548L11.7597 8.70282L12.987 8.06615L14.5084 4.83082L17.835 5.37016L24.5997 9.14215L32.1937 11.2508C30.237 6.25349 24.699 1.98549 17.9837 1.98549ZM17.8837 34.5241C13.7197 34.5241 8.62502 33.0568 4.94835 28.5468H30.7757C27.783 32.4188 22.6424 34.5241 17.8837 34.5241ZM22.983 27.7675H20.6284L24.9977 22.3248L25.437 23.1575L22.983 27.7675ZM25.2877 10.4648L17.793 6.10615L15.047 5.61482V7.62349L17.155 9.58615L14.2137 9.33749C14.2137 9.33749 14.309 9.48682 16.757 12.0835L27.9324 13.9448L29.889 15.2195L24.7984 15.4642L22.6924 23.1575L15.7804 27.7675H11.2704L12.7917 24.7748L12.545 24.6761L8.47635 27.7688H7.49835L11.6624 21.9315C11.859 20.2675 11.7597 21.0022 12.0064 18.0108L11.3697 17.1308L9.70302 23.5975L6.22302 27.7681H5.33969L7.39769 24.8735L10.289 16.0055L9.55302 16.3455L8.27835 19.8748L7.39769 20.3635C7.39769 20.3635 5.33969 25.3628 4.26169 27.8081C2.69569 25.5628 0.929688 22.5235 0.929688 17.2262C0.929688 9.28749 7.74235 0.910156 17.9837 0.910156C27.833 0.910156 33.081 8.75082 33.9597 12.8155L25.2877 10.4648ZM30.1377 21.9308L28.7117 23.1575L25.8764 27.7675H24.011L25.8764 24.4755L27.3437 23.2568L29.4577 17.3268L31.7044 18.2575L30.1377 21.9308ZM31.4637 27.7675H27.6917L31.265 22.1295L32.343 18.4528L34.5977 19.2382C34.399 22.0802 33.4704 24.9655 31.4637 27.7675ZM26.8544 21.0021L25.727 21.2022L26.0257 18.9442L25.727 18.5028L26.0257 15.9535L28.911 17.1308L26.8544 21.0021ZM133.119 27.6761H133.48C134.018 27.6761 134.358 27.5015 134.494 27.1708C134.582 26.9301 134.622 26.3328 134.622 25.3715V18.2455C134.622 17.2795 134.53 16.7135 134.331 16.5415C134.141 16.3715 133.854 16.2868 133.478 16.2868H133.118V15.1942H138.32V25.3708C138.32 26.4908 138.386 27.1455 138.528 27.3355C138.702 27.5675 139.025 27.6755 139.514 27.6755H139.888V28.7708H133.119V27.6761ZM134.11 11.3768C134.11 10.7615 134.326 10.2408 134.762 9.80749C134.966 9.59814 135.212 9.43266 135.482 9.32114C135.753 9.20962 136.044 9.15439 136.336 9.15882C136.63 9.15457 136.922 9.20984 137.194 9.32132C137.466 9.4328 137.713 9.59817 137.92 9.80749C138.364 10.2408 138.584 10.7608 138.584 11.3768C138.584 11.9942 138.364 12.5228 137.92 12.9642C137.481 13.4115 136.954 13.6335 136.336 13.6335C135.719 13.6335 135.197 13.4115 134.762 12.9642C134.551 12.7576 134.385 12.5104 134.273 12.2375C134.16 11.9646 134.105 11.6718 134.11 11.3768Z" fill="#002148"/>
</svg>
