<svg width="141" height="19" viewBox="0 0 141 19" fill="none" xmlns="http://www.w3.org/2000/svg">
<path fill-rule="evenodd" clip-rule="evenodd" d="M101.17 1.04725H98.3041V18.5944H111.769L113.594 15.7276H101.17V1.04725ZM61.8666 1.91604L51.3558 18.5951H54.831L58.0016 13.5567H64.7775L66.5585 10.6907H59.7826L63.4747 4.91376L72.1185 18.5958H75.5929L64.9946 1.87189C64.3428 0.786093 62.6052 0.786092 61.8666 1.91604ZM82.2371 3.90879H94.2902L96.0674 1.04426L82.1488 1.05249C77.3065 1.05249 74.1195 4.97812 74.1195 9.82043C74.1195 14.6642 77.3073 18.5899 82.1488 18.5899L93.9228 18.5756L95.7659 15.7328H82.2364C78.9715 15.7328 77.0626 13.086 77.0626 9.82043C77.0633 6.55555 78.9723 3.90879 82.2371 3.90879ZM20.7282 1.05249H8.30552C3.46319 1.05249 0.275391 4.97812 0.275391 9.82118C0.275391 14.6642 3.46319 18.5899 8.30552 18.5899H20.7282C25.5705 18.5899 28.7584 14.6642 28.7584 9.82118C28.7584 4.97812 25.5705 1.05249 20.7282 1.05249ZM20.7282 15.7328H8.30552C5.04063 15.7328 3.13169 13.0861 3.13169 9.82118C3.13169 6.55631 5.04063 3.90879 8.30552 3.90879H20.7282C23.9931 3.90879 25.9021 6.55631 25.9021 9.82118C25.9021 13.0861 23.9931 15.7328 20.7282 15.7328ZM121.787 3.90879H133.84L135.619 1.04426L121.7 1.05249C116.856 1.05249 113.669 4.97812 113.669 9.82043C113.669 14.6642 116.857 18.5899 121.7 18.5899L133.473 18.5756L135.316 15.7328H121.786C118.999 15.7328 117.215 13.8059 116.748 11.2108H131.928L133.752 8.34401H116.748C117.245 5.8035 119.039 3.90879 121.787 3.90879ZM45.0947 11.4652C46.4754 11.4652 47.7996 10.9167 48.7759 9.94041C49.7522 8.9641 50.3007 7.63994 50.3007 6.25923C50.3007 4.87851 49.7522 3.55435 48.7759 2.57804C47.7996 1.60173 46.4754 1.05324 45.0947 1.05324L30.4787 1.04725V18.5944H33.6927V3.90954H45.0947C45.7179 3.90954 46.3156 4.15709 46.7562 4.59774C47.1969 5.0384 47.4444 5.63605 47.4444 6.25923C47.4444 6.8824 47.1969 7.48005 46.7562 7.92071C46.3156 8.36136 45.7179 8.60892 45.0947 8.60892H35.9519L46.2658 18.5749H50.4152L43.0316 11.4719L45.0947 11.4652ZM138.693 0.833984C137.831 0.833984 137.103 1.49698 137.103 2.3957C137.103 3.30265 137.831 3.9664 138.693 3.9664C139.547 3.9664 140.275 3.3034 140.275 2.3957C140.275 1.49624 139.546 0.833984 138.693 0.833984ZM138.693 3.7045C137.977 3.7045 137.417 3.14925 137.417 2.39496C137.417 1.65338 137.977 1.0944 138.693 1.0944C139.401 1.0944 139.96 1.65413 139.96 2.39496C139.96 3.14925 139.401 3.7045 138.693 3.7045Z" fill="#FF141C"/>
<path fill-rule="evenodd" clip-rule="evenodd" d="M138.944 2.51171C139.209 2.47879 139.412 2.33736 139.412 2.01409C139.412 1.65789 139.202 1.5 138.774 1.5H138.086V3.30641H138.359V2.52368H138.675L139.152 3.30641H139.457L138.944 2.51171ZM138.359 2.29171V1.73197H138.733C138.923 1.73197 139.126 1.77313 139.126 1.99687C139.126 2.2745 138.919 2.29096 138.686 2.29096L138.359 2.29171Z" fill="#CF402D"/>
</svg>
