<svg width="141" height="23" viewBox="0 0 141 23" fill="none" xmlns="http://www.w3.org/2000/svg">
<path fill-rule="evenodd" clip-rule="evenodd" d="M31.095 0.481445C38.8422 0.481445 40.955 3.023 40.955 11.7194C40.955 20.4158 38.8422 22.9573 31.095 22.9573C23.3785 22.9573 21.2656 20.4158 21.2656 11.7194C21.2656 3.023 23.3785 0.481445 31.095 0.481445ZM27.3592 15.3939C27.3592 17.5068 29.9314 17.5068 31.095 17.5068C32.2892 17.5068 35.0758 17.5068 35.0758 15.3939V8.59604C35.0758 6.14635 32.2892 5.84014 31.095 5.84014C29.9314 5.84014 27.3592 6.14635 27.3592 8.59604V15.3939ZM0.658203 1.2207H19.7658V6.15069H13.3354V22.3186H7.24175V6.18131L0.658203 6.15069V1.2207ZM53.7864 5.38082C56.8179 5.38082 56.8179 6.39132 56.8179 7.67741H62.2379C62.2379 4.21722 61.8704 0.481445 54.2764 0.481445C48.2134 0.481445 44.7225 1.92064 44.7225 8.77976C44.7225 13.1132 48.5549 13.4035 51.9323 13.6594C54.5928 13.8609 56.971 14.0411 56.971 16.1594C56.971 17.774 56.3346 17.7823 54.0368 17.8125L54.0008 17.813L53.8425 17.8133C53.0323 17.8155 51.0813 17.8207 50.9386 17.5068C50.6937 17.0168 50.5406 16.2207 50.51 15.3939H44.7225C44.7225 21.5488 46.6211 22.6817 53.7252 22.6817C58.8083 22.6817 62.7278 22.3143 62.7278 15.5776C62.7278 9.62895 58.1909 9.39423 54.6603 9.21158C52.4116 9.09525 50.5712 9.00003 50.5712 7.46306L50.5712 7.42C50.5701 6.62144 50.5684 5.38082 53.7864 5.38082ZM66.5254 1.22168H72.4047V8.78508H79.2026V1.22168H85.0206V22.3196H79.2026V14.3275H72.4047V22.3196H66.5254V1.22168ZM95.5825 22.3196H89.6113V1.22168H95.5825V22.3196ZM100.299 1.22175L110.526 1.12988C116.528 1.12988 117.906 2.81404 117.906 6.15173C117.906 9.64254 117.539 10.4387 114.568 11.3879V11.4492C117.171 11.8166 118.273 13.1946 118.273 16.8079C118.273 19.4719 117.232 22.3197 111.996 22.3197H100.299V1.22175ZM106.392 17.2978H110.404C111.598 17.2978 112.21 16.6854 112.21 15.3993C112.21 14.0826 111.261 13.7151 110.281 13.7151H106.392V17.2978ZM106.392 9.30571H110.496C111.506 9.30571 111.843 8.75453 111.843 7.68279C111.843 6.61106 111.445 6.15173 110.434 6.15173H106.392V9.30571ZM134.136 1.22168H125.837L119.438 22.3196H125.409L126.848 18.3695H133.186L134.442 22.3196H140.658L134.136 1.22168ZM131.87 13.5314H128.165L130.002 7.19279L131.87 13.5314Z" fill="#E71917"/>
</svg>
