<svg width="161" height="75" viewBox="0 0 161 75" fill="none" xmlns="http://www.w3.org/2000/svg">
<rect width="160" height="59.1597" transform="translate(0.845703 7.85352)" fill="white"/>
<path fill-rule="evenodd" clip-rule="evenodd" d="M0.845703 7.99756V15.98C12.9444 17.9238 24.1175 23.6485 32.7627 32.3339C42.0913 41.616 47.9859 53.7941 49.4792 66.8686H59.7227V7.99756H0.845703ZM36.9091 26.9043H34.5704V13.2329H36.9224L36.9091 26.9043ZM45.8251 17.7944H43.4858V16.7383C43.4858 15.5785 42.9613 15.0859 42.352 15.0859C41.406 15.0859 41.1017 15.5785 41.1017 16.602V23.535C41.1017 24.5521 41.406 25.0447 42.352 25.0447C43.2979 25.0447 43.4858 24.5521 43.4858 23.6647V22.0189H45.8378V23.5868C45.8378 25.5306 44.6975 27.0923 42.352 27.0923C39.8899 27.0923 38.7561 25.5177 38.7561 23.5868V16.5437C38.7561 14.5999 39.8899 13.045 42.352 13.045C44.6975 13.045 45.8378 14.749 45.8378 16.7899L45.8251 17.7944ZM54.533 17.7944H52.181V16.7383C52.181 15.5785 51.6565 15.0859 51.0472 15.0859C50.1012 15.0859 49.7968 15.5785 49.7968 16.602V23.535C49.7968 24.5521 50.1012 25.0447 51.0472 25.0447C51.5008 25.0447 51.7799 24.9314 51.9476 24.7157C52.1298 24.4815 52.181 24.1266 52.181 23.6647V22.0189H54.533V23.5868C54.533 25.5306 53.3927 27.0923 51.0472 27.0923C48.5851 27.0923 47.4513 25.5177 47.4513 23.5868V16.5437C47.4513 14.5999 48.5851 13.045 51.0472 13.045C53.3927 13.045 54.533 14.749 54.533 16.7899V17.7944Z" fill="#0B5940"/>
<path d="M19.1624 36.0466H8.95118C8.62089 34.945 8.22542 33.8696 7.82363 32.8328C5.81529 27.4485 3.43743 23.2176 0.845703 20.2501V19.7575C7.97296 22.4789 14.3226 28.2391 19.1624 36.0466Z" fill="#0B5940"/>
<path d="M8.54939 20.6645C13.1532 23.8469 17.1111 27.8753 20.2122 32.5348C20.9898 33.6687 21.7219 34.8349 22.428 36.0466H32.4773C31.9332 35.4505 31.3757 34.8674 30.8056 34.297C24.58 28.043 16.9491 23.3689 8.54939 20.6645Z" fill="#0B5940"/>
<path d="M9.79337 38.8132C10.9456 42.9239 11.8523 47.0997 12.5085 51.3182H25.9202C24.6458 46.982 22.9216 42.791 20.7759 38.8132H9.79337Z" fill="#0B5940"/>
<path d="M23.9118 38.8132C25.9505 42.8109 27.5913 46.9994 28.8099 51.3182H42.4557C40.4898 46.832 37.936 42.6268 34.8621 38.8132H23.9118Z" fill="#0B5940"/>
<path d="M0.845703 54.0915H10.111C10.6748 58.1864 11.057 62.4628 11.2126 66.8686H0.845703V54.0915Z" fill="#0B5940"/>
<path d="M26.6719 54.0979C27.7355 58.2876 28.4448 62.5599 28.7909 66.8686H14.0245C13.8297 62.4757 13.4544 58.1993 12.9033 54.0979H26.6719Z" fill="#0B5940"/>
<path d="M43.6092 54.0915H29.542C30.5588 58.2895 31.2371 62.5621 31.5706 66.8686H46.6932C46.1756 62.5023 45.1405 58.2129 43.6092 54.0915Z" fill="#0B5940"/>
<path d="M0.845703 24.8438C2.63827 27.6662 4.1132 30.6777 5.24455 33.824C5.51727 34.5305 5.78239 35.2819 6.02916 36.0466H0.845703V24.8438Z" fill="#0B5940"/>
<path d="M6.90994 38.8132H0.845703V51.3182H9.69592C9.03534 47.0946 8.1052 42.9179 6.90994 38.8132Z" fill="#0B5940"/>
<path d="M68.5027 26.3146V14.1336H67.2069V26.3146H68.5027Z" fill="#0B5940"/>
<path d="M72.9408 14.1336L76.09 23.1139H76.1286V14.1336H77.4244V26.3146H76.0058L72.2087 15.7209H72.1695V26.3146H70.8736V14.1336H72.9408Z" fill="#0B5940"/>
<path d="M85.3161 15.2479V14.1336H79.0057V15.2479H81.5133V26.3146H82.8091V15.2479H85.3161Z" fill="#0B5940"/>
<path d="M92.5281 14.1336V15.2479H88.2514V19.4012H91.4069V20.5092H88.2514V25.2H92.7287V26.3146H86.9296V14.1336H92.5281Z" fill="#0B5940"/>
<path fill-rule="evenodd" clip-rule="evenodd" d="M97.5236 14.1336H94.575L94.6206 26.3146H95.9165V20.6129L97.6464 20.5481L99.5902 26.3146H101.002L98.9359 20.276C99.5434 20.0612 100.063 19.6521 100.415 19.1121C100.766 18.572 100.929 17.9314 100.88 17.2888C100.88 15.2805 99.4674 14.1336 97.5236 14.1336ZM97.0244 19.4661H95.8709L95.8968 15.2479H97.0244C98.9226 15.2479 99.532 15.9866 99.532 17.3537C99.532 18.7207 98.9226 19.4661 97.0244 19.4661Z" fill="#0B5940"/>
<path d="M104.988 14.1336L108.143 23.1139H108.175V14.1336H109.471V26.3146H108.078L104.275 15.7209V26.3146H102.979V14.1336H104.988Z" fill="#0B5940"/>
<path fill-rule="evenodd" clip-rule="evenodd" d="M118.27 26.3146L115.575 14.1336H113.793L111.097 26.3146H112.393L113.125 22.7057H116.242L116.974 26.3146H118.27ZM116.028 21.5912H113.281L114.642 15.034H114.674L116.028 21.5912Z" fill="#0B5940"/>
<path d="M124.51 14.1336V15.2479H122.009V26.3146H120.713V15.2479H118.206V14.1336H124.51Z" fill="#0B5940"/>
<path d="M127.49 26.3146V14.1336H126.195V26.3146H127.49Z" fill="#0B5940"/>
<path fill-rule="evenodd" clip-rule="evenodd" d="M133.101 26.4896C131.035 26.4896 129.641 24.766 129.641 20.2241C129.641 15.6819 131.035 13.965 133.101 13.965C135.168 13.965 136.562 15.6886 136.562 20.2241C136.562 24.7596 135.168 26.4896 133.101 26.4896ZM133.101 15.0796C131.915 15.0796 130.963 16.0904 130.963 20.2241C130.963 24.3578 131.915 25.375 133.101 25.375C134.287 25.375 135.24 24.3578 135.24 20.2241C135.24 16.0904 134.32 15.0796 133.101 15.0796Z" fill="#0B5940"/>
<path d="M143.805 23.1139L140.65 14.1336H138.615V26.3146H139.911V15.7209L143.708 26.3146H145.133V14.1336H143.837V23.1139H143.805Z" fill="#0B5940"/>
<path fill-rule="evenodd" clip-rule="evenodd" d="M153.926 26.3146H152.63L151.904 22.7057H148.781L148.055 26.3146H146.76L149.461 14.1336H151.23L153.926 26.3146ZM148.943 21.5912H151.691L150.336 15.034H150.297L148.943 21.5912Z" fill="#0B5940"/>
<path d="M156.88 25.2V14.1336H155.558V26.3146H160.846V25.2H156.88Z" fill="#0B5940"/>
<path d="M72.1182 34.6795C71.9493 32.7357 71.3406 31.9517 70.3035 31.9517C68.7615 31.9517 68.0813 33.2992 68.0813 37.0963C68.0813 40.8931 68.7615 42.2408 70.3035 42.2408C71.5412 42.2408 72.2473 41.3983 72.2865 39.1372H73.5824C73.5501 41.839 72.3644 43.3551 70.2776 43.3551C68.0876 43.3551 66.7336 41.703 66.7336 37.0963C66.7336 32.4893 68.0876 30.8372 70.2776 30.8372C72.0923 30.8372 73.2129 32.0811 73.4141 34.6795H72.1182Z" fill="#0B5940"/>
<path fill-rule="evenodd" clip-rule="evenodd" d="M75.3509 37.0963C75.3509 41.6318 76.7442 43.3551 78.8108 43.3551C80.878 43.3551 82.2713 41.6381 82.2713 37.0963C82.2713 32.5541 80.878 30.8372 78.8108 30.8372C76.7442 30.8372 75.3509 32.5608 75.3509 37.0963ZM76.6727 37.0963C76.6727 32.9622 77.6257 31.9517 78.8108 31.9517C79.9966 31.9517 80.9495 32.9622 80.9495 37.0963C80.9495 41.23 79.9966 42.2408 78.8108 42.2408C77.6257 42.2408 76.6727 41.23 76.6727 37.0963Z" fill="#0B5940"/>
<path fill-rule="evenodd" clip-rule="evenodd" d="M84.3701 31.0055H86.6448C89.2365 31.0055 90.7786 32.4181 90.7786 37.0963C90.7786 41.7742 89.2233 43.1868 86.6448 43.1868H84.3701V31.0055ZM85.666 42.0722H86.3791C88.3229 42.0722 89.4308 41.2623 89.4308 37.0963C89.4308 32.93 88.3165 32.1201 86.3791 32.1201H85.7248L85.666 42.0722Z" fill="#0B5940"/>
<path d="M98.5405 32.1201V31.0055H92.9103V43.1868H98.7417V42.0722H94.2644V37.3813H97.4199V36.2668H94.2644V32.1201H98.5405Z" fill="#0B5940"/>
<path d="M72.1182 51.5517C71.9493 49.6079 71.3406 48.8173 70.3035 48.8173C68.7615 48.8173 68.0813 50.165 68.0813 53.9618C68.0813 57.7586 68.7615 59.113 70.3035 59.113C71.5412 59.113 72.2473 58.2705 72.2865 56.0094H73.5824C73.5501 58.7046 72.3644 60.2273 70.2776 60.2273C68.0876 60.2273 66.7336 58.5685 66.7336 53.9618C66.7336 49.3551 68.0876 47.7027 70.2776 47.7027C72.0923 47.7027 73.2129 48.9533 73.4141 51.5517H72.1182Z" fill="#0B5940"/>
<path fill-rule="evenodd" clip-rule="evenodd" d="M75.3509 53.9618C75.3509 58.504 76.7442 60.2273 78.8108 60.2273C80.878 60.2273 82.2713 58.4973 82.2713 53.9618C82.2713 49.4263 80.878 47.7027 78.8108 47.7027C76.7442 47.7027 75.3509 49.42 75.3509 53.9618ZM76.6727 53.9618C76.6727 49.8281 77.6257 48.8173 78.8108 48.8173C79.9966 48.8173 80.9495 49.8281 80.9495 53.9618C80.9495 58.0956 79.9966 59.113 78.8108 59.113C77.6257 59.113 76.6727 58.0956 76.6727 53.9618Z" fill="#0B5940"/>
<path d="M85.647 47.8713V56.8193C85.647 58.0503 86.0032 59.113 87.4415 59.113C88.8797 59.113 89.2429 58.0503 89.2429 56.8193V47.8713H90.5387V56.8516C90.5387 58.7954 89.6187 60.2273 87.4155 60.2273C85.2129 60.2273 84.2992 58.8083 84.2992 56.8516V47.8713H85.647Z" fill="#0B5940"/>
<path d="M98.1064 56.8516L94.9578 47.8713H92.9103V60.059H94.2061V49.4589H94.2384L98.0355 60.059H99.4415V47.8713H98.1456V56.8516H98.1064Z" fill="#0B5940"/>
<path d="M106.841 51.5517C106.672 49.6079 106.063 48.8173 105.026 48.8173C103.484 48.8173 102.81 50.165 102.81 53.9618C102.81 57.7586 103.458 59.113 105.026 59.113C106.264 59.113 106.97 58.2705 107.015 56.0094H108.311C108.279 58.7046 107.087 60.2273 105.001 60.2273C102.817 60.2273 101.462 58.5685 101.462 53.9618C101.462 49.3551 102.817 47.7027 105.001 47.7027C106.815 47.7027 107.935 48.9533 108.143 51.5517H106.841Z" fill="#0B5940"/>
<path d="M111.7 60.059V47.8713H110.404V60.059H111.7Z" fill="#0B5940"/>
<path d="M115.471 47.8713V58.9444H119.417V60.059H114.123V47.8713H115.471Z" fill="#0B5940"/>
<path fill-rule="evenodd" clip-rule="evenodd" d="M119.417 51.6618H119.858L119.844 50.4564H120.324L121.062 51.6618H121.529L120.738 50.4434C120.838 50.4447 120.936 50.4254 121.027 50.3868C121.118 50.3482 121.2 50.2913 121.268 50.2194C121.336 50.1476 121.389 50.0628 121.422 49.9698C121.457 49.8768 121.471 49.7778 121.464 49.6791C121.464 49.3665 121.35 49.1504 121.128 49.0239C120.968 48.9328 120.751 48.8885 120.48 48.8885H119.417V51.6618ZM120.363 50.1131H119.858L119.825 49.2384H120.402C120.92 49.2384 121.05 49.3485 121.05 49.6531C121.05 49.9575 120.881 50.1131 120.363 50.1131Z" fill="#0B5940"/>
<path fill-rule="evenodd" clip-rule="evenodd" d="M121.693 48.2987C121.303 48.0289 120.843 47.8802 120.37 47.8713C120.05 47.8644 119.733 47.9213 119.436 48.0387C119.14 48.1561 118.869 48.3316 118.641 48.555C118.412 48.7781 118.232 49.0448 118.107 49.339C117.984 49.6335 117.92 49.9493 117.92 50.2688C117.92 50.5241 117.96 50.7766 118.039 51.017C118.105 51.2227 118.199 51.4191 118.319 51.601C118.581 51.9962 118.953 52.3053 119.389 52.4894C119.826 52.6736 120.307 52.7248 120.773 52.6362C121.238 52.548 121.667 52.324 122.006 51.9924C122.185 51.8171 122.335 51.6159 122.451 51.3964C122.553 51.2012 122.629 50.9917 122.675 50.7737C122.774 50.3102 122.733 49.8281 122.558 49.3877C122.384 48.9473 122.082 48.5686 121.693 48.2987ZM119.23 48.5718C119.57 48.3585 119.968 48.2522 120.37 48.2665C120.63 48.2665 120.887 48.3187 121.127 48.4199C121.367 48.5212 121.584 48.6695 121.765 48.8562C121.946 49.0432 122.088 49.2643 122.182 49.507C122.277 49.7493 122.321 50.0084 122.313 50.2688C122.315 50.6706 122.198 51.0642 121.974 51.3989C121.751 51.7333 121.433 51.9934 121.061 52.1455C120.689 52.2977 120.28 52.335 119.886 52.2528C119.493 52.1705 119.133 51.9725 118.852 51.6839C118.573 51.3954 118.385 51.03 118.314 50.6339C118.244 50.2381 118.294 49.8303 118.456 49.4627C118.619 49.0954 118.889 48.785 119.23 48.5718Z" fill="#0B5940"/>
</svg>
