<svg width="16" height="14" viewBox="0 0 16 14" fill="none" xmlns="http://www.w3.org/2000/svg">
<path d="M14.9842 7.64273L9.35918 13.2677C9.24191 13.385 9.08285 13.4509 8.91699 13.4509C8.75114 13.4509 8.59208 13.385 8.4748 13.2677C8.35753 13.1505 8.29165 12.9914 8.29165 12.8255C8.29165 12.6597 8.35753 12.5006 8.4748 12.3834L13.0334 7.82554H0.791992C0.626232 7.82554 0.467261 7.7597 0.350051 7.64249C0.23284 7.52527 0.166992 7.3663 0.166992 7.20054C0.166992 7.03478 0.23284 6.87581 0.350051 6.7586C0.467261 6.64139 0.626232 6.57554 0.791992 6.57554H13.0334L8.4748 2.01773C8.35753 1.90045 8.29165 1.7414 8.29165 1.57554C8.29165 1.40969 8.35753 1.25063 8.4748 1.13336C8.59208 1.01608 8.75114 0.950195 8.91699 0.950195C9.08285 0.950195 9.24191 1.01608 9.35918 1.13336L14.9842 6.75836C15.0423 6.8164 15.0884 6.88533 15.1198 6.96121C15.1513 7.03708 15.1675 7.11841 15.1675 7.20054C15.1675 7.28268 15.1513 7.36401 15.1198 7.43988C15.0884 7.51575 15.0423 7.58468 14.9842 7.64273Z" fill="#EA1B3D"/>
</svg>
